<?xml version="1.0" encoding="UTF-8"?><svg id="a" xmlns="http://www.w3.org/2000/svg" viewBox="0 0 1920 719.94"><path d="M0,226c9.16-9.61,18.91-18.73,27.34-28.95,10.38-12.58,19.68-26.04,29.37-39.19,1.46-1.98,2.67-4.22,3.64-6.49,6.69-15.77,14.04-31.32,19.66-47.47,4.23-12.15,6.35-25.05,9.13-37.68,2.46-11.2,4.78-22.45,6.64-33.76,.68-4.18,2.48-4.66,5.98-4.18,27.23,3.74,53.85,9.86,80.1,18.2,24.89,7.9,47.66,20.41,71.65,30.22,25.09,10.26,47.72,25.02,71.05,38.5,1.96,1.13,3.6,2.93,5.15,4.64,12.1,13.32,24.1,26.74,36.25,40.01,1.98,2.16,4.47,3.93,6.95,5.54,3.06,1.99,6.24,3.89,9.58,5.37,31.65,14.03,56.69,37.07,81.59,60.17,10.93,10.14,22.77,17.93,36.99,22.67,19.62,6.53,38.31,15.36,55.9,26.26,18.74,11.61,39.74,17.64,60.11,25.29,33,12.4,65.94,24.96,98.93,37.35,3.08,1.16,4.73,3.02,5.89,6.08,10.46,27.51,21.17,54.93,31.57,82.47,1.3,3.44,3.3,5.43,6.4,7.03,20.72,10.66,41.4,21.39,62.04,32.22,2.91,1.53,5.71,3.45,8.13,5.66,24.96,22.84,49.82,45.78,74.76,68.65,2.07,1.9,4.38,3.6,6.77,5.07,27.11,16.64,54.52,32.79,81.27,49.98,12.6,8.1,25.88,12.81,40.44,15.7,61.15,12.13,122.14,25.02,183.29,37.15,14.48,2.87,29.34,3.89,44.04,5.66,9.42,1.14,18.88,1.89,28.26,3.25,3.53,.51,5.9-.41,8.51-2.62,51.57-43.79,103.19-87.53,154.91-131.14,3.21-2.71,7.13-4.93,11.09-6.33,41.72-14.68,83.54-29.08,125.25-43.79,3-1.06,6.11-3.45,7.87-6.09,26.5-39.78,52.19-80.11,79.27-119.49,30.01-43.64,61.26-86.43,91.93-129.61,1.73-2.43,3.29-5.01,4.66-7.66,15.7-30.29,31.3-60.63,47.07-90.89,1.5-2.87,3.79-5.39,5.99-7.83,2-2.22,4.25-4.25,6.58-6.13,19.81-15.98,35.32-35.39,48.11-57.4,5.97-10.27,14.57-19.01,21.89-28.51,6.09-7.91,12.04-15.93,18.05-23.9V719.94H0c0-164.61,0-329.28,0-493.94Z"/></svg>