<?xml version="1.0" encoding="UTF-8"?><svg id="a" xmlns="http://www.w3.org/2000/svg" viewBox="0 0 1920 663.53"><path d="M0,268.56c1.35-.88,2.86-1.58,4.01-2.67,19.03-18.04,40.38-33.16,60.88-49.4,28.58-22.64,56.08-46.65,83.97-70.16,1.46-1.23,2.44-3.13,3.38-4.86,6.81-12.59,13.54-25.22,20.31-37.83,.77-1.43,1.65-2.81,2.7-4.59,6.53,2.94,12.73,6.15,19.23,8.57,24.16,8.99,45.01,23.57,65.84,38.25,1.49,1.05,2.84,2.31,4.18,3.56,14.61,13.65,29.01,27.54,43.9,40.88,7.95,7.12,14.89,14.8,18.79,24.77,4.05,10.33,11.22,17.01,21.22,21.68,8.55,3.99,18.36,7.78,24.09,14.61,5.55,6.62,6.33,17.12,9.71,25.72,5.66,14.39,11.72,28.63,17.64,42.92,.37,.9,.97,1.76,1.63,2.48,10.62,11.46,20.95,23.03,34.09,32.04,31.59,21.66,62.7,44.03,93.82,66.37,8.85,6.35,18.13,11.6,28.16,15.85,33.7,14.26,67.24,28.9,100.93,43.19,3.71,1.58,7.95,2.46,11.99,2.64,39.94,1.73,79.89,3.3,119.85,4.66,2.79,.09,6.17-1.27,8.41-3.04,25.61-20.26,51.29-40.44,76.47-61.23,21.25-17.54,43.19-34.04,67.44-47.13,18.06-9.75,32.8-22.65,45.15-39.09,13.8-18.36,28.87-35.79,43.66-53.38,2.41-2.87,5.98-5.24,9.49-6.61,12.39-4.84,25.17-8.69,37.45-13.77,13.75-5.69,28.14-7.67,42.7-9.24,7.44-.81,14.88-1.68,22.29-2.78,3.44-.51,6.25-.19,8.15,3.03,.17,.28,.4,.54,.65,.76,22.72,20.24,32.83,47.97,44.32,74.84,2.48,5.79,6.09,10.46,10.14,15.18,13.18,15.38,28.65,27.54,46.78,36.64,11.59,5.82,22.33,13.33,33.97,19.04,20.97,10.29,39.73,23.56,56.92,39.24,4.92,4.49,10.53,8.26,15.21,12.97,21.68,21.84,49.02,34.59,76.01,47.95,5.21,2.58,11.07,4.56,15.28,8.33,9.85,8.83,21.45,10.93,33.95,11.83,15.6,1.13,31.15,2.97,46.7,4.7,4.34,.48,7.91-.25,11.64-2.79,63.97-43.35,128.02-86.59,192.11-129.75,3.02-2.03,4.49-4.29,5.08-7.92,6.38-39.74,12.41-79.55,19.72-119.13,3.31-17.9,2.47-35.26-.14-52.96-3.85-26.17-7.18-52.42-10.51-78.66-.43-3.37,.06-7,.85-10.34,7.34-31.4,14.77-62.79,22.4-94.12,.83-3.42,2.71-6.75,4.75-9.68,4.18-6.01,8.92-11.64,13.17-17.61,1.89-2.65,3.61-3.15,6.62-1.81,8.35,3.74,17.05,6.73,25.23,10.78,14.87,7.34,30.59,10.82,46.97,12.19,2.53,.21,5.21,1.14,7.39,2.44,13.02,7.75,25.9,15.73,38.87,23.57,1.35,.82,2.95,1.24,4.43,1.85V663.53H0c0-131.67,0-263.32,0-394.97Z"/></svg>