<?xml version="1.0" encoding="UTF-8"?><svg id="a" xmlns="http://www.w3.org/2000/svg" viewBox="0 0 1920 760.56"><path d="M0,384.57c9.33,9.04,18.59,18.15,28.04,27.05,1.85,1.74,4.27,3.26,6.69,3.94,19.87,5.52,39.8,10.87,59.74,16.13,3.34,.88,6.86,1.46,10.32,1.52,34.66,.62,69.32,1.13,103.98,1.58,2.07,.03,4.42-.33,6.18-1.33,87.17-49.57,178.65-90.77,267.26-137.53,2.87-1.52,5.66-3.55,7.85-5.93,22.31-24.31,44.44-48.79,66.78-73.08,1.89-2.06,4.67-3.78,7.36-4.57,22.66-6.67,45.4-13.05,68.09-19.63,2.84-.82,5.65-2.01,8.2-3.5,34.21-20.01,68.4-40.04,102.49-60.25,3.83-2.27,6.21-2.42,9.87,.74,31.1,26.96,62.49,53.59,93.66,80.48,3.18,2.74,6.04,6.23,8.01,9.93,17.29,32.47,34.34,65.07,51.51,97.61,1.24,2.34,2.66,4.63,4.27,6.73,19.54,25.54,39.1,51.07,58.76,76.51,1.89,2.44,4.34,4.6,6.89,6.36,7.53,5.21,15.54,9.77,22.84,15.27,16.06,12.11,33.95,19.62,53.32,24.92,37.22,10.19,74.12,21.53,111.11,32.55,3.36,1,5.95,.74,8.85-1.15,4.88-3.18,9.84-6.29,15.04-8.91,19.14-9.64,35.02-23.18,49.65-38.77,21.2-22.6,43.32-44.35,65.1-66.42,1.97-2,4.19-3.81,6.49-5.43,22.33-15.74,44.72-31.39,67.03-47.16,2.26-1.6,4.39-3.59,6.06-5.8,5.82-7.69,11.65-15.4,17.01-23.41,4.22-6.3,8.41-12.77,11.45-19.67,8.05-18.27,16.25-36.54,22.93-55.32,7.57-21.29,14.57-42.9,19.99-64.82,7.9-32,24.5-59.92,38.87-88.94,.84-1.69,2.52-3.06,4.03-4.32,12.53-10.48,24.98-21.05,37.74-31.24,4.08-3.26,8.81-5.89,13.58-8.04,7.88-3.55,16.13-6.27,24.05-9.75,3.86-1.7,6.02-1.17,8.63,2.32,23.31,31.25,46.26,62.8,70.51,93.31,14.8,18.61,31.46,35.78,47.74,53.16,7.73,8.26,14.26,16.99,18.34,27.59,2.03,5.27,5.06,10.16,7.01,15.45,10.37,28.11,27.73,51.77,46.87,74.33,10.56,12.45,21.1,24.91,31.93,37.13,1.63,1.84,4.72,3.11,7.24,3.3,7.11,.56,13.3,2.47,19.33,6.69,24.16,16.89,48.76,33.16,72.99,49.96,5.25,3.64,9.64,8.54,14.42,12.85,1.31,1.18,2.63,2.35,3.94,3.53v380H0C0,635.21,0,509.89,0,384.57Z"/></svg>