<svg id="trees-3" class="trees" xmlns="http://www.w3.org/2000/svg" viewBox="0 0 1920 635.97"><path d="M0,325.97c.57-.34,1.16-1.01,1.7-.98,4.32,.25,6-1.17,5.48-5.94-.2-1.89,2.18-4.83,4.16-6.06,8.18-5.08,17.01-8.38,26.82-9.04,3.24-.22,6.66-1.61,9.48-3.31,3.83-2.31,7.18-5.44,11.79-9.05h-11.4c1.49-2.21,2.51-3.41,3.17-4.79,.72-1.49,1.96-4.07,1.46-4.54-1.43-1.32-3.59-2.34-5.54-2.48-2.18-.16-4.43,.78-7.79,1.47,.49-3.47,.9-6.38,1.47-10.48-3.03,.84-5.77,1.9-8.61,2.28-1.99,.27-5.09,.35-5.96-.8-1.77-2.34-.32-4.37,2.46-5.77,10.63-5.37,17.65-14.61,25.75-24.38-4.47-.73-8.1-1.37-11.75-1.9-2.81-.41-6.04-.31-6.32-4.18-.26-3.58,1.03-6.52,4.68-7.96,1.2-.48,2.34-1.13,4.04-1.96-1.36-2.16-2.85-3.96-3.65-6.02-.51-1.32-.58-3.61,.21-4.44,.86-.9,3-.91,4.51-.74,1.39,.16,2.98,.78,4,1.73,4.9,4.56,9.46,3.03,12.65,.4,1.59-3.93,2.09-7.09,3.85-9.19,4.82-5.74,7.07-11.84,4.02-19.97,.57,.52,.31,.09,.09,.11-7.22,.64-13.32-3.44-20.07-4.76-1.33-.26-3.52-1.08-3.59-1.8-.15-1.59,.29-3.91,1.4-4.83,3.66-3.06,7.74-5.62,11.63-8.4,1.74-1.25,3.66-2.36,5.1-3.91,2.9-3.13,4.66-2.6,6.75,.98,2.9,4.99,5.53,5.09,9.67,1.04-1.29-2.81-2.57-5.61-3.86-8.41l1.57,.16c.92-2.53,2.02-5.02,2.72-7.61,.56-2.07,.08-4.56,1.05-6.34,1.56-2.86,.88-4.52-1.45-6.33-2.69-2.09-1.86-3.87,.49-5.97,3.37-3.01,6.3-6.51,9.84-10.25-2.24-1.41-3.4-1.8-4.03-2.6-1.32-1.71-3.35-3.7-3.23-5.45,.11-1.61,2.41-3.5,4.18-4.47,4.06-2.22,5.85-4.6,5.27-9.86-.57-5.19-1.27-9.97-3.61-14.7-2.08-4.22-1.18-4.8,6.73-4.64,1.26-4.86,2.47-9.92,3.96-14.89,.35-1.17,1.67-2.05,2.55-3.06,.79,1.05,2.03,2,2.28,3.16,1.38,6.22,2.51,12.49,3.57,17.93,2.29,.74,4.96,.88,5.36,1.91,.53,1.37-.5,3.51-1.21,5.17-2.18,5.18-4.53,10.29-6.81,15.42l1.28,1.04c2.19-1.27,4.38-2.54,6.57-3.8,.49,.4,.98,.81,1.47,1.21-1.5,2.51-2.61,5.39-4.6,7.41-1.67,1.69-3.61,2.5-2.73,5.53,.82,2.83,2.29,4.23,5.18,4.26,.46,0,.92,.28,2.6,.84-1.53,5.11-3.05,10.18-4.27,14.25,1.67,3.81,3.84,7,4.41,10.45,.76,4.6,3.44,4.62,6.73,4.2,2.73-.35,5.42-1.03,8.16-1.4,2.98-.41,4.55,1.67,3.26,4.35-.56,1.16-1.43,2.21-2.31,3.18-4.91,5.44-9.87,10.84-15.55,17.06,7.17,3.29,11.94,6.92,6.22,14.83,.56,.09,1.12,.19,1.69,.28,3.56-2.1,7.04-4.34,10.71-6.24,1.41-.73,3.22-.68,4.85-.98,.18,2.1,1.23,4.72,.36,6.22-2.76,4.8-6.24,9.18-9.63,14.01,.87,.29,1.51,.39,2.04,.68,1.57,.87,3.09,1.81,4.63,2.73-1.47,1.59-2.67,3.63-4.47,4.65-2.72,1.54-5.84,2.37-8.21,4.52,4.1,0,8.22-.25,12.28,.14,1.35,.13,3.11,1.67,3.62,2.98,.42,1.1-.28,3.58-1.22,4.11-5.76,3.22-8.12,10.57-16.43,11.28-5.56,.48-2.83,7.33-4.22,12.13,3.66-.59,6.57-.52,9-1.57,6.37-2.75,12.71-5.24,19.81-4.55,1.87,.18,3.69,.79,5.54,1.21-.91,1.78-1.73,3.61-2.78,5.3-.37,.59-1.33,.81-2.61,1.54,2.08,2.58,3.93,4.86,5.77,7.14l-.53,1.53c-3.44-.16-6.89-.33-10.39-.5v8.8c-2.72-1.13-4.67-2.35-6.76-2.69-1.71-.28-3.59,.49-5.4,.8,.83,1.45,1.31,3.47,2.56,4.23,3.03,1.84,6.43,3.05,9.65,4.58,1.57,.74,4.05,1.35,4.36,2.5,.4,1.48-.87,3.47-1.61,5.16-.44,1-1.23,1.84-1.77,2.63,2.25,4,10.31,2.84,8.02,10.74-2.39-.25-5.25,.25-7.07-.9-5.08-3.2-8.98-2.03-13.37,1.41-4.23,3.32-9.1,5.82-13.65,8.73-.79,.5-1.42,1.25-3.13,2.8,7.44,.04,18.05-7.16,16.56,8.51,1.64-.49,3.05-.95,4.49-1.33,5.38-1.39,10.7-3.42,16.17-3.92,4.83-.44,6.08,2.8,3.22,6.77-1.22,1.69-2.58,3.27-4.45,5.62,6.9,1.12,12,4.37,18.87,3.43,4.48-.61,9.56,3.15,14.37,4.96-.79,1.86-1.08,4.74-2.45,5.4-5.02,2.42-10.34,4.29-15.68,5.98-2.59,.82-5.45,.77-8.37,1.14-1.1,2.61-1.74,5.73-3.51,7.97-2.24,2.85-5.25,5.16-8.18,7.37-3.2,2.41-6.9,4.19-10.01,6.69-3.22,2.59-6.1,5.65-8.95,8.66-1.31,1.38-2.2,3.15-3.28,4.75,.2,.47,.4,.94,.6,1.41,2.04-.27,4.09-.79,6.13-.77,6.75,.06,13.52,.69,20.24,.38,7.28-.34,14.87,.73,21.59-3.64,1.09-.71,3.08-.02,4.65,.03-.31,1.43-.21,3.18-1.02,4.23-2.21,2.89-4.61,5.71-7.31,8.13-3.06,2.74-2.35,4.94-.04,7.6,1.24,1.43,2.52,3.18,2.86,4.96,.55,2.86-.65,4.71-4.13,4.6-7.39-.23-7.39-.13-8,7.34-.03,.33,.04,.71-.1,.99-.87,1.73-1.79,3.44-2.69,5.16-1.24-1.56-2.56-3.06-3.69-4.69-.51-.74-.68-1.72-1.4-3.67-8.24,9.21-16.08,17.68-23.48,26.52-1.36,1.62-1.18,4.74-1.23,7.18-.05,2.73,1.35,3.7,3.82,1.93,3.49-2.51,6.89-5.15,10.45-7.54,3.08-2.07,6.01-4.94,10.79-3.06,.53,7.88-7.47,12.58-8.05,21.54,2.49-1.27,4.44-2,6.09-3.15,7.06-4.94,10.82-12.25,14.36-19.81,1.08-2.31,1.54-6.91,6.74-4.5-.83,2.25-1.64,4.45-2.76,7.51,3.79-1.93,6.7-3.41,9.61-4.89,.56,.52,1.12,1.04,1.68,1.56-2.18,5.41-4.36,10.82-6.54,16.23,.3,.2,.6,.39,.9,.59,4.01-2.24,7.97-4.6,12.08-6.64,1.04-.52,2.58-.02,3.9,.02-.15,1.45,.26,3.52-.54,4.24-3.57,3.18-7.56,5.88-11.21,8.97-.9,.76-1.09,2.35-1.61,3.56,1.14,.31,2.44,1.13,3.41,.85,10.11-2.9,20.32-3.56,30.85-3.56,6.36,0,12.72-3.36,19.07-5.22l-.25-1.65c-3.31-.5-6.63-1.01-10.53-1.6,.82-1.37,1.11-1.91,1.45-2.43,1-1.51,2.02-3.02,3.03-4.53-2.31-1.11-4.6-2.29-6.96-3.29-.5-.21-1.27,.34-1.92,.34-6.65,.03-7.49-1.27-4.63-8.48-3.08,0-5.83-.06-8.57,.02-1.65,.05-3.47,.83-4.89,.34-1.49-.52-2.58-2.16-3.85-3.31,1.02-1.05,1.88-2.73,3.1-3.04,10.3-2.68,17.93-9.44,26.7-16.77-5.12-1.44-9.34-2.58-13.53-3.83-3.26-.97-7.19-1.19-6.96-6.2,.23-4.96,4.34-4.13,7.27-5.08,.3-.1,.57-.3,1.54-.82-1.3-1.71-2.73-3.23-3.69-4.99-.7-1.29-.78-2.92-1.13-4.4,1.6-.16,3.35-.82,4.75-.38,2.31,.73,4.77,1.77,6.5,3.4,4.5,4.26,9.21,3.42,14.4,1.25-2.59-4.69,1.86-6.6,4.09-9.21,3.14-3.67,4.7-8.66,1.86-12.97-1.27-1.92-5.14-2.14-7.85-3.08-1.03-.36-2.17-.45-3.17-.88-4.38-1.89-8.78-3.75-13.05-5.87-1.44-.71-3.44-2.12-3.5-3.3-.07-1.29,1.53-3.29,2.89-3.92,6.13-2.83,12.34-5.55,18.74-7.65,1.22-.4,3.83,1.84,5.08,3.42,3.67,4.65,6.18,5.49,10.86,2.87-1.54-2.68-3.08-5.37-4.63-8.05,.48,.07,.96,.15,1.44,.22,.93-2.25,2.04-4.45,2.72-6.77,.51-1.72-.12-4.01,.79-5.34,1.92-2.83,.27-4.09-1.43-5.83-1.02-1.04-2.01-2.56-2.06-3.89-.02-.66,2.24-1.26,3.29-2.11,2.72-2.2,5.34-4.52,8.41-7.14-3.02-2.33-5.25-3.56-6.77-5.38-1.02-1.22-1.46-3.32-1.29-4.94,.08-.74,2.19-1.56,3.49-1.82,6.52-1.34,6.28-1.79,5.98-8.49-.23-5.08-1.35-9.34-4.23-13.43-.86-1.23-.56-3.28-.79-4.95,1.55,.19,3.12,.34,4.66,.58,.8,.12,1.57,.41,3.01,.81,1.27-4.51,2.41-8.87,3.77-13.16,.33-1.05,1.37-1.87,2.09-2.8,.95,.8,2.46,1.43,2.74,2.42,1.55,5.35,2.84,10.78,4.14,16.2,.57,2.4,.49,4.78,4.36,4.54,3.23-.2,4.36,2.94,2.74,5.54-2.78,4.44-5.33,9.03-7.98,13.55,.43,.49,.87,.98,1.3,1.47,2.46-.67,4.92-1.34,7.64-2.08,1.58,6-2.6,7.31-7.92,9.21,2.3,2.74,3.73,6.01,6.06,6.89,4.61,1.73,4.2,4.55,3.02,7.85-.87,2.46-2.25,4.74-2.87,6.02,2.06,3.96,4.52,7.05,5.24,10.5,.92,4.4,3.85,4.97,7.11,5.41,2.75,.37,5.61,0,8.32,.48,1.54,.27,2.9,1.59,4.35,2.43-.86,1.43-1.42,3.25-2.65,4.24-4.78,3.86-9.77,7.46-15.24,11.58,4.39,4.56,13.08,5.9,6.82,14.38,.4,.23,.79,.47,1.19,.7,3.27-1.05,6.53-2.15,9.83-3.12,2.43-.72,4.95-2.41,7.04,.84,1.85,2.88,.07,4.65-1.7,6.4-2.57,2.54-5.26,4.97-8.41,7.94,1.89,.72,3.19,.95,4.16,1.65,1.18,.86,2.08,2.1,3.1,3.18-1.26,.89-2.4,2.21-3.8,2.57-2.67,.69-5.49,.8-8.22,1.25-.26,.04-.39,.8-.63,1.31,4.41,.71,8.77,1.13,12.95,2.23,1.56,.41,3.35,2.25,3.76,3.77,.24,.88-1.82,2.97-3.26,3.62-4.81,2.18-8.55,6.43-15.03,5.51-3.69-.53-2.57,4.62-2.84,7.33-.06,.57,2.63,2.04,4.02,2.01,3.93-.09,7.86-1.13,11.78-1.07,5.35,.08,10.73,.56,16.02,1.4,2.94,.46,2.73,2.55,.68,4.24-.96,.79-2.23,1.2-3.74,1.99,1.98,2.18,3.71,4.07,5.43,5.96l-.45,1.43c-3.33-.62-6.66-1.24-10.18-1.89,.21,2.22,.39,4.07,.63,6.57-4.47-1.38-8.25-2.56-12.03-3.73-.37,.79-.74,1.57-1.11,2.36,4.07,2.42,7.89,5.51,12.27,7.1,6.86,2.5,7.38,3.35,2.01,8.9,1.48,.99,2.89,1.93,4.56,3.04,1.6-1.41,3.12-2.68,4.54-4.04,1.31-1.26,2.51-2.63,3.81-4.01,1.72,1.32,3.24,2.7,5,3.69,.44,.25,1.6-.79,1.17-1.62,.39-4.45,1.77-9.12,.91-13.31-1.13-5.47,.49-9.61,2.94-14.02,.4-.71-1.04-2.3-1.3-3.56-.36-1.69-1.15-4.56-.49-5,6.71-4.39,3.28-9.82,1.9-15.04-.33-1.24-.93-2.41-.96-2.49,1.89-2.66,3.63-4.37,4.43-6.44,.89-2.32,.93-4.98,1.43-8.1,5.5,3.95,1.01,12.33,8.17,14.29-1.29,4.47-2.56,8.85-4.14,14.3,1.96-1.19,2.95-1.8,3.95-2.41,.37,.13,.73,.26,1.1,.39-.78,1.71-1.9,3.35-2.24,5.14-.33,1.75-.26,5.08,.32,5.25,4.31,1.21,2.97,4.31,1.95,6.37-2.41,4.87,2.36,7.81,2.72,11.88,.03,.28,2.35,.62,3.55,.48,1.75-.2,3.45-.8,5.17-1.23,.43,.34,.86,.69,1.29,1.03-3.01,5.12-6.02,10.25-8.11,13.81,1.84,4.24,3.07,7.06,4.37,10.05,1.74-1.34,4.04-3.1,6.33-4.86q2.37,3.22-3.05,12.64,3.97,2.93-3.61,9.23c2.63-.29,4.59-.74,6.52-.66,3.05,.13,3.99,2.15,2.17,4.33-2.34,2.81-5.62,4.84-7.95,7.66-1.55,1.88-2.16,4.54-3.19,6.85,.51,.42,1.02,.84,1.53,1.26,2.72-1.28,5.34-2.86,8.17-3.76,2.89-.92,6-1.18,10.45-1.99-1.46,2.85-2.28,4.45-3.12,6.09,.86,1.22,1.76,2.5,3.04,4.33-2.34,.28-4.03,.48-5.99,.71v4.55c-2.34-.18-4.4-.34-6.45-.49l-.47,1.36c1.79,1.3,3.48,3.51,5.39,3.72,5.47,.6,5.6,3.02,3.13,6.53,1.88,1.94,3.49,3.61,5.1,5.28l-.97,1.21c-2.86-.23-6.36-1.61-8.44-.45-3.86,2.15-6.88,5.79-10.61,9.12,7.93-1.67,8.43-1.4,9.11,4.3,4.51-1.36,9.04-2.72,13.55-4.07-.71,2.76-1.42,5.51-2.24,8.75,2.74,.47,5.45,.94,8.16,1.4,3.33,.56,6.67,1.11,10.01,1.67l.47,2.3c-3.36,2.21-6.71,4.41-11.12,7.31,10.63,.92,20.14,1.73,29.65,2.55,.26-.52,.51-1.03,.77-1.55-4.43-3.2-8.83-6.44-13.29-9.59-1.59-1.12-4.32-1.72-4.79-3.14-1.9-5.68-6.77-5.88-11.23-7.14-2.21-.62-4.33-1.62-6.48-2.45-1.15-.73-2.3-1.46-3.46-2.2,.09-.62,.19-1.24,.28-1.87,7.48-.52,14.96-1.05,23.04-1.61-1.33-2-2.29-3.44-3.69-5.54,6.46-2.2,11.31,1.5,16.89,2.77,1.57-6.99,6.44-4.22,10.87-3.33-7.14-4.79-13.45-11.26-23.63-7.44,0-.72,0-1.44,0-2.16l6.14-3.38c-.62-1.07-1.32-2.27-2.25-3.87,4.4-1.25,8.5-2.42,12.61-3.59l-.24-1.55h-7.55c-.25-1.36-.5-2.69-.74-4.02-2.14-.24-4.23-.47-7.22-.81,1.72-1.53,2.76-2.45,4-3.55-.98-1.15-1.96-2.32-2.95-3.48l.3-1.27c3.75,.48,7.58,.61,11.21,1.54,3.76,.95,7.32,2.68,11.16,4.13,1.28-4.48,.42-6.31-3.65-7.69-3.35-1.14-6.02-4.34-8.85-6.79-.07-.06,1.42-2.8,2.23-2.83,2.71-.09,5.45,.48,8.41,.21l-9.53-4.9c2.86-1.01,4.27-1.5,5.91-2.07-1.76-2.31-3.6-4.45-5.09-6.82-.56-.9-.3-2.31-.42-3.49,1.18,0,2.55-.41,3.5,.06,2.36,1.16,4.52,2.71,7.59,4.61-.97-4.53,.46-6.93,5.99-7.07-4.31-5.14-7.9-9.44-11.5-13.73l-.21-1.48c6.63,.96,14.32,4.93,17.3-4.57-.69-2.66-1.38-5.33-1.98-7.67,2.38-1.38,4.29-2.49,6.13-3.55-2.05-2.76-3.5-4.69-4.94-6.63,.36-.32,.71-.65,1.07-.97,1.35,.75,2.7,1.5,5.52,3.06-2-5.18-3.48-9.02-5.17-13.39,1.53-.08,2.88-.15,4.36-.23,1.04-2.79,2.01-5.77,3.29-8.6,.37-.82,1.63-1.24,2.48-1.85,.47,.77,.97,1.51,1.4,2.3,.23,.43,.47,.93,.48,1.41,.09,3.96,.91,7.29,6.01,6.95-1.33,3.64-2.84,6.85-3.57,10.23-.32,1.49,.44,3.93,1.58,4.88,5.11,4.21,5.22,4.19-1.2,7.8,2.19,2.66,4.27,5.18,6.36,7.73-3.01,3.61-3.12,8.64,.06,12.9-.84,1.25-1.73,2.56-3.55,5.24,3.1-.33,5.63,.16,6.7-.86,2.63-2.53,4.04-1.27,6.24,.48,3.55,2.83,7.03,7.11,12.69,2.76-1.55-1.31-2.97-2.52-5.27-4.46,8.1-2.57,15.46-4.92,22.82-7.26-.2-.87-.41-1.73-.61-2.6-4.77,.75-9.53,1.5-14.82,2.33,.33-2.19,.55-3.7,.83-5.54-4.16,.31-8.17,.62-12.18,.92-.15-.46-.3-.92-.46-1.38,1.98-1.42,3.95-2.85,6.02-4.33-2.21-1.37-4.15-2.57-6.09-3.77,.12-.64,.25-1.27,.37-1.91,7.41,0,14.84-.27,22.23,.09,5.1,.25,10.14,1.57,15.24,2.02,1.37,.12,2.88-1.21,4.32-1.87-.95-2.04-1.47-4.53-2.99-5.96-1.01-.94-3.61,.07-5.21-.53-5.92-2.23-11.71-4.77-18.86-7.73,7.17-7.09,15.04-4.08,22.17-4.26l.14-1.43c-5.2-1.15-10.4-2.3-15.6-3.46,.03-.82,.05-1.63,.08-2.45,2.69-.64,5.39-1.27,8.73-2.06-4.49-3.69-8.7-7.15-12.84-10.55,1.79-4.21,4.33-4.84,7.91-3.62,4.77,1.63,9.64,2.95,15.07,4.58q-2.37-6.47,9.45-12.26c-7.65-5.25-14.63-10.04-21.62-14.84l-.04-1.4c2.17-.4,4.33-1.09,6.51-1.13,3.45-.06,6.92,.57,10.37,.45,3.74-.13,7.27-.38,9.02-5.12,1-2.72,4.16-4.64,6.67-7.26-.42-.62-1.38-1.9-2.19-3.28-3.54-6-2.82-7.27,3.72-9.31,2.14-.67,3.77-2.99,6.33-5.14-3.11-1.42-5.27-1.96-6.82-3.23-1.43-1.17-2.23-3.12-3.31-4.73l1-1.26c3.22,.92,6.44,1.84,9.67,2.76,.38-.45,.76-.89,1.14-1.34-3.02-4.99-6.04-9.98-9.58-15.83,1.32-.44,3.3-1.76,5.13-1.57,3.11,.32,4.04-1.13,4.95-3.59,1.76-4.73,3.67-9.42,5.84-13.97,.5-1.04,2.34-2.08,3.48-1.99,.96,.08,2.14,1.65,2.6,2.81,.84,2.08,1.16,4.37,1.79,6.54,1.07,3.7,2.39,6.92,7.45,5.15,1.46-.51,3.3,.06,6.27,.2-2.28,2.8-4.09,4.36-5.04,6.33-2,4.18-3.96,8.48-4.97,12.95-.21,.95,3.61,2.97,5.73,4.24,2.07,1.24,4.33,2.15,6.51,3.2-2.07,1.85-4.07,3.79-6.24,5.52-.7,.56-1.82,.6-3.34,1.06,2.62,3.44,3.53,7.73,8.68,8.11,1.4,.1,2.7,1.39,4.05,2.14-1.14,1.19-2.23,2.44-3.45,3.55-.71,.64-1.63,1.03-3.46,2.15,5.69,2.79-1.49,11.01,7.46,12.69-2.21,2.53-4.09,4.69-5.97,6.83,4.88,2.82,8.67,2.67,12.86-1.47,3.25-3.21,5.89-2.93,9.72-.99,4.98,2.52,10.47,4.04,15.74,6.02,1.39,.52,2.91,.91,4.08,1.77,.92,.67,2.06,2.13,1.87,2.94-.22,.93-1.72,2-2.82,2.21-8.55,1.62-17.09,3.54-25.73,4.33-4.62,.42-5.71,3.11-6.72,6.33-.9,2.88,.68,4.7,2.94,6.7,2.26,2,7.26,3.01,4.9,7.94,7.83,5.23,15.15,.43,22.68-1.16,2.44-.51,4.99-.52,7.48-.76l.87,1.67c-2.2,2.1-4.41,4.2-7.11,6.78,2.37,.56,4.25,.63,5.72,1.45,1.53,.86,3.92,2.74,3.7,3.62-.41,1.64-2.24,3.75-3.82,4.11-4.52,1.01-9.23,1.2-13.85,1.77-1.61,.2-3.21,.55-4.81,.83-.23,.53-.45,1.06-.68,1.59,7.55,4.06,15.06,8.19,22.66,12.15,1.89,.98,4.12,1.27,6.07,2.17,1.31,.6,2.4,1.71,3.59,2.59-1.48,.87-2.96,2.47-4.44,2.46-3.62,0-7.23-.79-10.86-1.18-1.27-.14-2.57-.02-3.91-.02,1.02,6.5,1.02,6.41-5.56,6.55-3.96,.08-7.92,.49-11.88,.75-.11,.59-.22,1.18-.33,1.77,1.53,1.32,3.06,2.64,5.8,5.02-4.86,.3-8.54,.53-13.29,.82,8.26,3.85,15.55,6.82,23.99,7.36,10.36,.66,20.64,2.55,30.95,3.94,.98,.13,1.97,.73,2.9,.64,1.01-.1,1.97-.75,2.95-1.16-.58-.86-.97-2.02-1.78-2.54-4.54-2.94-9.18-5.72-13.78-8.56l.32-2.28c1.82-.11,3.87-.82,5.41-.21,4.58,1.8,8.96,4.11,14.33,5.55-2.05-4.33-4.09-8.67-6.14-13,.5-.51,1-1.02,1.51-1.52,3.3,1.36,6.59,2.72,10.71,4.41-.85-2.21-1.49-3.88-2.23-5.81,2.66-1.23,4.46-.74,6.03,1.94,2.42,4.12,4.71,8.48,7.93,11.92,3.31,3.54,7.63,6.16,11.62,9.02,.56,.4,1.78-.13,3.51-.31-3.25-5.61-6.18-10.68-9.11-15.75l1.58-1.91c3.54,1.26,7.23,2.21,10.58,3.86,3.39,1.67,6.32,4.25,9.67,6.01,1.66,.87,3.82,.79,5.76,1.14-.18-2.52,.55-5.7-.71-7.43-2.9-4-6.6-7.49-10.29-10.82-4.27-3.85-8.89-7.32-13.31-10.92-.43,.24-.81,.33-.97,.57-1.49,2.19-2.23,6.16-5.79,4.48-1.47-.7-2.04-4.3-2.15-6.62-.17-3.46-1.62-4.85-4.92-4.72-1.16,.05-2.41,.27-3.48-.05-1.59-.48-4.29-1.31-4.33-2.09-.08-1.63,1.02-3.54,2.12-4.94,1.07-1.36,2.76-2.23,4.72-3.74-4.68-4.12-8.98-7.91-13.29-11.7,.23-.7,.46-1.4,.68-2.1,1.73-.18,3.86-1.1,5.14-.42,9.47,4.98,19.78,4.68,29.98,5.42,7.22,.52,14.4,1.55,21.61,2.29,1.09,.11,2.22-.11,3.61-.19-.14-.94,0-1.85-.37-2.13-7.17-5.66-12.26-13.8-21.67-16.89-3.6-1.18-8.07-4.07-9.28-7.27-2.43-6.43-6.96-7.32-12.54-8.56-6.23-1.39-12.21-4-18.21-6.32-1.4-.54-2.44-2.03-3.65-3.08,0-.6,0-1.2,0-1.81,5.74-1.13,11.44-2.79,17.24-3.26,7.13-.57,14.34-.14,22.91-.14-1.62-2.14-2.65-3.24-3.36-4.52-.9-1.62-1.53-3.39-2.28-5.1,1.82-.53,3.8-1.8,5.43-1.45,5.93,1.3,11.75,3.12,17.59,4.81,1.69,.49,3.32,1.19,5.1,1.83,.7-7.75,4.34-9.92,11.76-7.47,2.11,.7,4.21,1.41,6.77,1.23-.62-.65-1.13-1.46-1.87-1.92-6.41-4.03-12.68-8.33-19.39-11.78-2.34-1.21-5.78-.41-8.71-.3-2.62,.1-5.24,.66-7.85,.68-.85,0-2.4-1.07-2.4-1.66,0-1.07,.65-2.69,1.49-3.1,2.64-1.26,5.5-2.05,8.74-3.18-.62-1-1.21-1.87-1.72-2.78-.75-1.36-1.45-2.75-2.17-4.13,1.53-.75,2.99-1.78,4.61-2.2,4.28-1.1,8.67-1.77,12.9-3,1.24-.36,2.1-2.02,3.14-3.09-1.44-.54-2.9-1.6-4.31-1.53-3.03,.16-6.03,.89-9.91,1.53,.38-2.85,.65-4.84,1.01-7.52-3.94-.25-8.03-.5-12.12-.76-.13-.48-.26-.97-.39-1.45,2.17-1.69,4.34-3.38,6.43-5.01-.26-.62-.33-.96-.52-1.2-1.55-1.89-3.13-3.75-4.7-5.63,2.48-.15,4.97-.23,7.44-.46,9.57-.91,17.03,5.88,26.02,7.03,1.81,.23,3.66,.11,5.49,.16-.21-2.75-.32-5.52-.72-8.25-.09-.59-1.25-1.5-1.88-1.47-7.79,.34-11.16-6.73-16.73-10.06-1.64-.98-2.37-3.48-3.51-5.28,2.06-.89,4.15-2.56,6.18-2.49,4.3,.14,8.58,1.18,13.43,1.01-1.3-.86-2.51-1.93-3.92-2.54-2.27-.98-4.87-1.33-6.93-2.6-1.45-.89-2.24-2.87-3.32-4.36,1.42-.56,2.81-1.23,4.28-1.63,1.05-.28,2.21-.19,3.92-.31-3.37-4.29-6.45-8.09-9.38-11.99-1.47-1.96-3.47-4.48-.62-6.35,1.37-.9,4.31-.44,6.03,.41,4.22,2.09,8.15,4.76,12.63,7.46,0-3.56-1.05-7.11,.28-8.87,1.51-1.99,5.15-2.38,9.25-4.01-6.68-7.66-12.95-14.84-20.35-23.33,3.24-.22,5.27-.74,7.16-.41,4.96,.86,9.86,2.1,13.96,3,3.2-4.54,5.79-8.21,9.03-12.8-.91-3.14-2.32-8.04-3.51-12.17,3.72-1.65,6.57-2.34,8.64-4,2-1.6,2.27-3.73-.85-5.45-3.14-1.73-5.46-4.43-4.26-9.37,2.79,1.68,5.38,3.23,7.97,4.78,.35-.27,.71-.54,1.06-.81-1.72-4.82-3.43-9.64-5.18-14.44-.72-1.99-1.54-3.94-2.31-5.91,2.05-.33,4.1-.65,7.02-1.12,1.54-4.11,3.31-9.31,5.46-14.34,.72-1.68,2.42-2.94,3.67-4.39,.89,1.52,2.09,2.94,2.61,4.57,.74,2.31,.84,4.82,1.48,7.17,.95,3.51,1.03,7.62,6.83,6.95,3.76-.43,4.42,2.68,2.08,4.78-4.53,4.05-4.87,9.53-6.12,14.69-1.36,5.61,3.77,6.52,6.96,8.86,1.3,.95,3.15,2.64,2.99,3.74-.22,1.52-1.93,3.01-3.32,4.11-1.1,.87-2.67,1.12-4.46,1.81,2.1,4.18,2.61,8.99,7.97,11.1,3.9,1.53,3.71,3.88-.14,6.02-2,1.12-3.05,1.98-1.85,4.62,.89,1.98,.34,4.56,.82,6.78,.5,2.29,1.49,4.47,2.26,6.71l1.8-.04c-1.69,2.31-3.37,4.62-5.09,6.97,3.45,4.25,7.09,4.73,10.93,.55,2.97-3.23,4.84-2.56,7.8,.01,4.22,3.67,9.02,6.66,13.54,9.98,1.33,.98,2.85,1.87,3.79,3.15,.78,1.06,1.32,2.74,1.07,3.97-.14,.7-2.02,1.29-3.2,1.5-4.66,.86-9.33,1.91-14.04,2.17-3.45,.19-6.97-.74-9.74-1.08-5.04,7.66-1.99,13.1,2.54,18.53,1.42,1.7,1.68,4.35,2.07,6.53,5.11,6.95,11.74,3.42,18.23,2.44,2.19-.33,4.56,.55,6.84,.88-1.05,1.86-2.05,3.75-3.17,5.57-.5,.81-1.23,1.49-2.2,2.62,2.13,1.14,4.42,1.74,5.68,3.21,1.34,1.57,2.5,4.09,2.21,5.96-.19,1.23-3.04,2.73-4.8,2.89-4.59,.41-9.25,.14-15.41,.14,4.08,4.72,6.99,8.82,10.64,12.12,4.64,4.19,9.96,7.61,14.79,11.59,1.25,1.03,1.79,2.91,2.65,4.4-1.9,.4-3.92,1.41-5.67,1.06-3.54-.72-6.93-2.18-10.78-3.47,.43,3.43,.71,5.74,1.02,8.24-5.64,.95-10.87-4.4-15.91,1.23,1.38,1.92,2.84,3.96,5.17,7.2-4.44-.37-7.71-.64-11.76-.97,7.78,6.93,15.24,12.76,25.71,12.62,5-5.09,9.98-3.12,15.34-.44,1.47,.73,3.98-.63,6.76-1.18-2.17-2.43-3.71-4.17-5.25-5.9l1.7,.03c1.09-4.07,2.19-8.14,3.34-12.42-1.1-.55-2.04-.88-2.81-1.45-.82-.61-1.48-1.43-2.21-2.16,.66-.65,1.27-1.34,1.98-1.94,2.85-2.39,5.72-4.75,8.75-7.27-1.24-1.13-1.45-1.41-1.72-1.56-2.18-1.19-4.37-2.36-6.56-3.53,1.92-1.45,3.7-3.18,5.79-4.3,4.67-2.51,4.97-9.44,.46-13.99-1.35-1.36-2.63-2.8-4.58-4.9,2.12-.52,3.38-1.22,4.5-1.05,4.7,.73,5.26-2.53,6.28-5.79,.87-2.77,2.33-5.35,3.52-8.01,1.83,2.05,3.71,4.06,5.46,6.18,.61,.74,1.04,1.72,1.28,2.66,.95,3.69,2.02,6.99,7.07,5.03,.53-.21,1.56,.86,2.04,1.15-2.58,4.9-5.02,9.54-7.46,14.19,.39,.37,.77,.75,1.16,1.12,2.38-1.14,4.76-2.28,7.22-3.45q.72,4.24-5.72,8.36c.53,5.48,4.92,4.14,9.51,4.7-1.28,3.83-2.46,7.36-3.52,10.53,1.71,1.5,4.43,2.8,5.32,4.87,1.78,4.17,4.75,4.02,8.1,3.46,3.08-.52,6.11-1.41,9.2-1.85,1.58-.22,3.25,.2,6.2,.44-6.95,6.18-12.75,11.34-18.7,16.63,2.96,3.62,12.68,.36,7.26,10.71,4.56-2.14,7.68-3.75,10.93-5.09,3.11-1.27,6.43-4.61,10.27,1.69-3.79,2.89-7.83,5.97-11.88,9.05,.35,.48,.71,.95,1.06,1.43,2.29,.29,4.59,.58,7.49,.94-3,6.49-10.14,3.75-14.23,8.11,6.72,.57,13.35-4.04,20.29,1.85-7.38,2.83-11.16,9.54-18.9,9.79-5.04,.17-4.85,3.94-4.2,8.36,12.45-.99,23.99-8.31,38.17-5.71-2.44,2.04-4.07,3.4-6.04,5.05,1.8,1.1,3.63,2.22,5.46,3.34l-.05,1.3c-3.59,.24-7.17,.49-11.15,.76,.22,1.56,.44,3.04,.72,5h-14.65c6.71,5.97,14.65,3.85,21.73,6.67-1.83,1.96-3.02,3.23-4.7,5.03,2.75,.76,5.23,1.26,7.55,2.16,1,.39,1.67,1.6,2.5,2.44-.91,.52-1.98,1.64-2.72,1.45-10.63-2.65-19.72,1.12-28.6,6.35-2.15,1.27-4.71,1.86-6.97,3.25,6.04,.98,13.62-5.59,18.15,4.62,3.82-1.04,8.34-2.6,12.99-3.45,4.34-.79,8.87-2.97,13.91,.44-1.91,2-3.54,3.71-5.44,5.7,12.26,4.15,25.38-1.62,38.14,4.49-2.42,1.34-3.98,2.64-5.75,3.09-7.2,1.84-14.49,3.33-21.7,5.14-1.38,.35-3.15,1.24-3.72,2.4-2.62,5.28-7.32,6.82-12.4,8.92-7.12,2.95-13.5,7.67-20.19,11.63,.26,.57,.52,1.14,.77,1.71,9.6-.49,19.23-.67,28.79-1.55,9.39-.87,18.71-2.47,28.07-3.74l.44,1.36c-3.79,2.84-7.59,5.68-12.01,8.99,2.01,1.17,3.67,1.87,4.97,2.99,.89,.76,1.92,2.23,1.72,3.14-.18,.83-1.84,1.69-2.97,1.89-1.78,.32-3.82-.37-5.43,.22-1.48,.55-2.79,2.07-3.72,3.46-.95,1.44-1.35,3.25-1.99,4.9-1.83-1.05-3.66-2.09-5.48-3.14-.28-.16-.55-.36-1.5-.98-7.1,5.12-14.55,10.28-21.67,15.87-1.22,.96-.99,3.77-1.42,5.72,1.65-.04,3.5,.37,4.93-.21,4.75-1.93,9.29-4.4,14.06-6.3,1.98-.79,4.32-.66,6.5-.95,.27,.44,.55,.89,.82,1.33-2.66,3.57-5.32,7.14-8.69,11.66,6.36-.17,10.49-2.87,14.14-5.99,2.85-2.44,4.79-5.9,7.42-8.63,1.41-1.47,3.4-2.36,5.14-3.52,.35,.35,.69,.7,1.04,1.05-.47,1.23-.94,2.46-1.57,4.12,3.6-1.02,6.85-1.95,10.11-2.87,.38,.5,.77,.99,1.15,1.49-1.89,2.87-3.78,5.75-6.03,9.17,6.94,.2,12.08-6.15,18.66-4.09,.22,.53,.44,1.05,.66,1.58-4.96,2.58-9.92,5.15-14.89,7.73,.07,.44,.13,.87,.2,1.31,9.42-1.01,18.82-2.26,28.26-2.95,9.54-.7,19.15-.65,29.04-5.77h-10.34c-.12-.33-.24-.67-.36-1,1.24-1,2.48-2.01,3.72-3.01l-.03-1.54c-4.24-.2-8.49-.7-12.72-.52-3.63,.16-5.22-.63-3.55-4.44-6.07-2.24-12.66,3.07-18.95-1.33,10.66-4.16,20.78-8.1,30.89-12.04-.13-.6-.26-1.19-.4-1.79-4.7-.46-9.4-.9-14.1-1.39-1.65-.17-3.38-.22-4.89-.82-1.03-.41-2.39-1.69-2.36-2.54,.03-.89,1.4-2.11,2.45-2.5,1.82-.7,3.84-.87,6.47-1.41-2.37-1.76-4.26-3.17-6.55-4.87,5.04-3.26,9.32-.01,13.64,.38,2.27,.21,4.68,1.97,6.67,1.5,3.33-.79,8.19,1.07,9.5-4.69,.33-1.42,3.29-2.09,4.65-3.48,1.12-1.14,2.66-3.23,2.28-4.21-.71-1.81-2.51-4.14-4.19-4.45-8.09-1.52-16.3-2.42-24.46-3.6-1.7-.24-3.36-.73-5.04-1.1-.09-.47-.19-.93-.28-1.4,1.76-.9,3.44-2.05,5.3-2.65,5.99-1.93,11.98-3.93,18.11-5.31,2.07-.47,4.83,.32,6.77,1.43,4.01,2.31,7.93,3.24,12.74,1.36-1.88-1.76-3.58-3.36-5.99-5.61,8.32,.24,2.35-7.2,7.29-8.99-2.9-1.49-4.86-2.5-7.17-3.69,4.63-2.47,8.68-4.62,12.73-6.78-.19-.49-.37-.97-.56-1.46-1.85-.65-3.79-1.11-5.5-2.02-1.16-.61-2-1.85-2.98-2.81,1.15-.69,2.22-1.62,3.46-2.01,2.77-.89,5.63-1.51,9.89-2.61-3.58-5.68-6.51-10.33-9.76-15.47,1.66,0,3.43-.33,5.03,.06,4.1,1,5.72-1.06,6.55-4.6,.33-1.4,1.06-2.69,1.49-4.07,1.11-3.53,3.38-2.37,5.52-1.32,.53,.26,.82,1.01,1.2,1.56,3.9,5.56,4.73,14.33,14.74,12.86-3.44,4.49-6.35,8.29-9.25,12.09l1.06,1.14c2.94-.69,5.88-1.39,9.36-2.21-.11,5.84-5.28,4.65-9.04,7.74,4.05,1.75,7.27,3.14,11.72,5.06-1.13,2.25-2.54,5.08-3.68,7.35,2.27,2.17,4.4,4.81,7.09,6.58,2.14,1.41,4.94,2.25,7.52,2.45,3.59,.29,7.25-.41,10.88-.38,1.63,.01,3.26,.76,6.12,1.49-7.72,4.06-14.18,7.46-20.64,10.86,.07,.44,.14,.87,.22,1.31,2.31,.66,4.91,.88,6.84,2.13,1.33,.86,1.74,3.14,3.08,5.82,5.41,1.07,12.23-6.01,20.66-.98-4.79,3.17-8.57,5.67-12.84,8.49,2.99,.61,5.31,1.08,7.62,1.55,.05,.63,.11,1.25,.16,1.88-4.73,.83-9.45,1.65-14.18,2.48,6.51,1.54,13.53-.98,19.4,3.14,.09,.62,.19,1.25,.28,1.87-6.37,1.68-12.66,3.8-19.13,4.88-3.72,.63-6.12,1.19-5.08,6.85,6.51-.74,13.11-1.79,19.74-2.17,6.5-.38,13.04-.08,19.57-.08,.09,.59,.18,1.18,.28,1.77-1.65,.8-3.31,1.61-5.4,2.62,1.89,1.12,3.57,2.11,5.25,3.1-.06,.36-.11,.71-.17,1.07-3.68-.2-7.36-.4-11.3-.62,.1,1.34,.19,2.49,.32,4.19-4.85-.67-9.32-1.28-13.79-1.89-.15,.7-.3,1.4-.45,2.1,6.8,1.67,13.59,3.33,21.1,5.17-1.66,1.34-2.84,2.29-4.18,3.36,3.64,2.83,6.82,1.14,9.89-.86,2.79-1.82,5.34-3.89,8.77-.96,.74,.64,2.5,.09,3.22,.09v-13.4c-.39-.01-.77-.02-1.16-.03,1.87-1.71,3.75-3.41,5.97-5.44-2-1.22-3.42-2.09-4.93-3.01q6.81-6.49,2.84-12.48c1.84-2.61,3.39-4.8,4.93-7,.62-.89,1.2-1.8,1.8-2.7,.94,.75,2.06,1.37,2.8,2.28,1.85,2.29,1.45,6.94,6.9,5.46-1.63,3.25-2.98,5.95-4.81,9.6,2.42-.72,3.81-1.13,5.2-1.54,.46,.53,.91,1.05,1.37,1.58-1.63,.92-3.27,1.85-5.94,3.35,2.68,1.36,4.35,2.21,6.51,3.3-.51,1.57-1.11,3.4-1.47,4.5,3.18,8.33,9.73,5.25,15.69,4.23,.05,.45,.1,.89,.15,1.34-3.27,3.02-6.53,6.03-9.56,8.82,2.11,1.88,3.88,3.45,6.17,5.48,2.16-.75,5.51-1.9,8.86-3.06,.31,.56,.62,1.13,.94,1.69-1.92,2.11-3.84,4.22-5.93,6.51,1.39,.45,2.52,.82,5.21,1.68-3.72,1.49-6.12,2.45-9.63,3.85h10.98c.23,.51,.46,1.02,.69,1.53-3.25,1.81-6.37,3.93-9.78,5.33-3.07,1.25-3.21,.9-3.1,5.13,7.03-1.41,14.01-2.81,20.99-4.21,.17,.41,.34,.81,.51,1.22-.73,.89-1.47,1.79-2.31,2.82,.87,.63,1.73,1.25,2.66,1.93-2.57,1.02-4.94,1.96-7.3,2.9l.34,1.12h-6.37c-.1,.42-.2,.85-.3,1.27,3.55,.85,7.11,1.69,11.04,2.63-.42,.97-.87,2-1.33,3.07,1.89,.8,3.64,1.53,5.38,2.26,.08,.6,.16,1.21,.24,1.81-8.8-2.95-15.34,1.59-23.55,5.37,4.89,.03,9.23-2.91,11.3,2.33,4.99-.97,9.92-1.94,16.26-3.18-1.54,2.63-2.21,3.78-3.21,5.49,7.33,.41,14.36,.8,21.38,1.19,.07,.72,.15,1.43,.22,2.15-4.55,1.17-9.09,2.35-13.64,3.49-1.12,.28-2.56,.04-3.37,.66-3.5,2.67-6.83,5.57-10.92,8.97,4.99-.8,10.63-.23,14.42-2.62,7.22-4.55,14.5-1.71,21.7-2.41,2.59-.25,5.15-.93,7.71-1.47,1.95-.41,3.88-.91,5.82-1.36,.29,.44,.58,.87,.88,1.31-1.02,1.85-2.04,3.7-3.07,5.54,.16,.26,.32,.53,.48,.79,1.81-1.14,3.54-2.45,5.45-3.37,1.62-.79,3.46-1.14,5.2-1.68-.15,1.78-.21,3.57-.5,5.32-.17,1.06-.69,2.07-1.06,3.11,6.59,2.27,9.81,.86,14-5.98-3.12-4.38-6.7-7.5-12.67-5.05-3.08,1.27-5.67,.37-8.13-1.85-1.11-1-2.89-1.32-4.41-1.82-3.18-1.05-6.38-2.02-9.57-3.04-5.07-1.62-9.38-3.97-13.1-8.25-1.87-2.14-6.77-1.64-10.94-2.47,.38-1,.52-2.37,1.27-3.16,4.14-4.36,13.73-5.07,18.97-1.88,5.35,3.25,11.23,5.04,17.41,2.98,2.24-.75,4.44-2.65,5.85-4.6,1.94-2.69,3.85-3.24,6.75-1.96,1.07,.48,2.86,1,3.52,.48,3.58-2.82,6.9-5.95,10.15-8.83-3.27-2.18-6.19-4.2-9.21-6.07-.72-.45-1.78-.6-2.65-.51-3.43,.35-6.83,.94-10.26,1.26-4.06,.38-7.99,.58-9.17-4.93-.22-1.05-2.38-1.98-3.82-2.43-3.23-1.02-6.56-1.7-9.85-2.52-.07-.61-.13-1.22-.2-1.84,2.52-1,5.03-1.99,8-3.16-1.96-3.73,.62-5.79,4.05-6.78,9.66-2.76,19.49-4.97,29.08-7.93,5.52-1.71,10.72-4.46,16.06-6.74l-.4-1.26c-2.96,.26-5.92,.52-10.13,.88,1.99-2.32,3.19-3.72,4.59-5.35-2.79-3.13-6.11-2.06-9.48-1.45-5.73,1.04-5.98,.7-4.7-5.81-3.63,.96-6.87,2.09-10.19,2.6-1.71,.26-3.59-.59-5.39-.93,1.07-1.15,1.97-2.56,3.25-3.42,7.62-5.12,15.32-10.12,22.99-15.16l-.68-2.1c-4.01,0-8.05,.28-12.02-.11-2.16-.22-5.53-1.11-6.05-2.53-1.22-3.33,2.15-4.18,4.63-5.14,.77-.3,1.51-.67,3.97-1.77-2.93-1.52-5.19-2.69-7.44-3.87l1.24-2.12c3.4,0,7.2-.97,10.13,.21,5.33,2.14,9.64,.55,12.65-.98,1.85-3.23,2.6-5.67,4.23-7.15,3.96-3.6,5.54-7.3,1.99-12.1-7.24-.43-14.76-.82-22.25-1.39-1.47-.11-2.89-.96-4.33-1.46,.89-1.27,1.5-2.98,2.71-3.73,5.63-3.48,11.32-6.89,17.23-9.84,1.23-.62,3.76,.38,5.21,1.35,3.67,2.44,7.03,2.51,10.7-.21-1.63-1.77-3.13-3.41-4.64-5.05l1.5,.08c1.12-4.07,2.25-8.13,3.46-12.51-1.06-.59-2.07-1.06-2.98-1.68-.74-.5-1.36-1.18-2.04-1.78,.7-.79,1.33-1.66,2.13-2.34,2.74-2.32,5.54-4.58,9.31-7.67-2.87-.97-4.28-1.23-5.44-1.91-1.3-.76-2.38-1.9-3.56-2.88,1.05-1.05,2.11-2.1,3.17-3.14,.11-.11,.29-.16,.44-.22,6.5-2.67,7.89-9.44,2.85-14.51-1.37-1.38-3.23-2.27-4.87-3.39,.31-.59,.61-1.17,.92-1.76,1.12-.37,2.3-1.21,3.33-1.04,4.45,.71,5.53-2.08,6.6-5.48,.91-2.88,2.45-5.57,3.7-8.35,1.9,2.24,3.86,4.43,5.67,6.74,.7,.89,1.4,2.01,1.49,3.08,.32,3.69,1.5,5.66,5.66,4.04,.78-.31,2.03,.58,2.92,.87-2.6,5.07-5.04,9.84-7.49,14.6,.4,.33,.79,.66,1.19,.99,2.41-1.14,4.83-2.27,7.54-3.54,1.28,5.64-3.71,6.16-6.18,8.38q1.77,4.07,9.62,4.98c-1.25,3.63-2.42,7.04-3.37,9.79,2.16,2.52,4.06,5.53,6.72,7.54,1.64,1.24,4.46,1.38,6.7,1.22,3.09-.22,6.11-1.35,9.2-1.76,1.55-.21,3.21,.32,5.91,.65-6.86,6.07-12.69,11.24-18.78,16.64,3.68,3.17,12.74,.43,7.57,10.54,5.45-2.58,9.58-4.49,13.67-6.49,2.81-1.37,5.1-1.26,7.99,3.34-4.08,3.06-8.16,6.12-12.24,9.17,.3,.37,.59,.75,.89,1.12,2.2,.21,4.41,.41,7.52,.7-3.04,6.54-10.29,4.01-14.42,8.4,6.9,.25,13.35-3.95,20.72,1.69-6.65,3.62-12.01,7.43-17.97,9.51-5.72,1.99-6.15,1.44-5.26,8.79,12.32-1.31,23.88-8.36,38.12-5.78-2.63,2.1-4.3,3.44-6.28,5.03,1.96,1.17,3.8,2.28,5.64,3.38l-.13,1.31c-3.64,.21-7.28,.43-11.14,.65,.21,1.69,.4,3.2,.65,5.13h-13.39c-.1,.7-.2,1.4-.3,2.1,6.68,1.39,13.35,2.78,20.85,4.34-1.79,2-3.03,3.39-4.63,5.19,2.92,.84,5.55,1.49,8.08,2.39,.76,.27,1.28,1.22,1.91,1.87-.82,.62-1.58,1.36-2.48,1.81-.54,.27-1.37,.25-1.97,.04-12.55-4.37-21.52,5.18-32.15,8.25-.67,.19-1.18,.94-2.5,2.05,4.5-.73,8.01-1.52,11.56-1.8,3.74-.3,7.35,.08,6.1,5.84,9.44-1.79,17.94-6.43,28.79-4.14-2.51,2.82-4.15,4.66-5.87,6.59,12.11,4.35,25.15-1.92,37.68,4.46-2.01,1.21-3.48,2.58-5.19,3.03-7.19,1.89-14.48,3.41-21.68,5.27-1.53,.39-3.49,1.31-4.13,2.55-2.58,5.09-6.79,7.29-12.09,8.55-8.11,1.92-13.33,8.4-20.24,12.27l.63,1.3c9.64-.49,19.32-.66,28.92-1.56,9.3-.88,18.53-2.51,27.79-3.8,.2,.44,.4,.89,.59,1.33-3.83,2.9-7.66,5.8-12.07,9.14,1.98,1.16,3.53,1.77,4.68,2.82,.97,.89,1.46,2.29,2.17,3.47-1.09,.59-2.12,1.49-3.28,1.7-1.61,.29-3.53-.41-4.93,.2-1.59,.69-3,2.19-4.05,3.65-1,1.39-1.45,3.18-2.14,4.79-1.72-.98-3.44-1.95-5.15-2.95-.41-.24-.75-.61-1.55-1.28-7.07,5.04-14.34,9.94-21.19,15.36-1.44,1.14-1.33,4.22-1.94,6.41,1.83-.18,3.82,.03,5.45-.63,4.45-1.81,8.67-4.16,13.13-5.94,2.02-.81,4.38-.77,6.58-1.12l1.07,1.34c-2.68,3.61-5.36,7.23-8.8,11.87,6.48-.5,10.73-2.96,14.35-6.25,2.79-2.53,4.78-5.92,7.42-8.64,1.4-1.44,3.43-2.26,5.18-3.35,.31,.36,.63,.72,.94,1.09-.52,1.22-1.03,2.45-1.74,4.11,3.78-1.06,7.04-1.98,10.3-2.9l1.03,1.5c-1.89,2.89-3.79,5.78-6.01,9.18,6.92-.03,12.14-5.91,18.63-4.33l.65,1.81c-4.98,2.57-9.96,5.15-15.67,8.1,1.64,.59,2.61,1.33,3.3,1.13,17.64-5.13,36.79-.74,54.03-9.12h-10.93c2.44-1.85,3.64-2.76,6.05-4.58-3.65-.67-6.33-1.29-9.05-1.6-1.62-.19-3.32,0-4.96,.21-3.81,.5-5.2-.78-3.26-4.42-6.23-2.16-12.82,3.14-19.07-1.3,10.67-4.15,20.73-8.07,30.8-11.99-.08-.58-.15-1.17-.23-1.75-4.28-.46-8.56-.92-12.84-1.38-.33-.04-.7,.04-.99-.08-2.59-1-5.16-2.04-7.74-3.06,2.39-1.26,4.77-2.52,7.16-3.78,.39-.21,.81-.37,1.68-.75-2.21-1.57-4.12-2.93-6.03-4.29l.51-1.84c4.18,.59,8.36,1.26,12.55,1.75,5.12,.59,10.25,1.03,15.37,1.54-.23-.75-.46-1.5-.7-2.25,1.78-1.69,3.68-3.28,5.3-5.11,1.37-1.55,3.45-3.45,3.36-5.09-.17-2.88-2.31-4.42-5.74-4.73-8.2-.74-16.35-2.08-24.51-3.25-1.18-.17-2.29-.78-3.44-1.18-.07-.47-.14-.94-.21-1.41,1.98-.85,3.91-1.86,5.96-2.51,5.68-1.82,11.34-3.75,17.14-5.07,2.1-.48,4.93,.02,6.79,1.14,4.13,2.48,8.12,3.48,13.09,1.48-1.9-1.69-3.55-3.16-5.97-5.32,7.96-.23,2.67-7.12,6.63-9.49-2.43-1.3-4.35-2.32-6.65-3.54,4.69-2.37,8.7-4.41,12.72-6.45l-.41-1.53c-1.62-.61-3.36-1.01-4.82-1.88-1.4-.83-2.5-2.16-3.73-3.27,1.36-.66,2.68-1.46,4.1-1.94,2.59-.87,5.24-1.56,9.19-2.71-3.54-5.5-6.45-10.02-9.82-15.25,1.76,0,3.63-.36,5.3,.07,3.94,1.02,5.35-1.21,6.34-4.31,.44-1.37,.89-2.76,1.5-4.06,1.54-3.24,4.07-3.56,6.27-.77,.81,1.03,1.36,2.26,2.08,3.37q3.93,6.05,13.1,10.97c-.69,1.05-1.36,2.08-2.2,3.36,1.16,.45,2.29,.88,3.87,1.49,.49-4.67,1.12-7.99-4.43-10.29-3.45-1.43-5.66-6.06-8.1-9.49-.25-.35,1.68-3.26,2.67-3.3,2.51-.1,5.06,.75,8.16,.48-1.57-1-3.28-1.84-4.67-3.05-1.28-1.11-2.2-2.63-3.28-3.96,1.22-.84,2.45-1.67,3.87-2.64-.47-4.9-7.56-8.52-4.21-15.84,3.45,2.76,6.46,5.16,10.4,8.31-1.65-5.3-1.33-8.93,5.06-10.08-2.99-4.86-5.61-9.13-8.24-13.39-.7-1.12-1.64-2.13-2.12-3.33-.32-.78-.34-2.08,.12-2.65,.4-.5,1.71-.55,2.54-.38,1.45,.3,2.91,.75,4.22,1.43,2.9,1.5,4.49,.92,5.45-2.38,.65-2.23,2.11-4.22,3.35-6.58-.58-3.17-1.27-6.86-1.93-10.45,6.1-2.05,6.58-3.74,3.44-8.41-1.06-1.59-1.41-3.65-1.02-6.06l3.58,3c.39-.15,.78-.31,1.17-.46-1.21-4.13-2.38-8.26-3.65-12.37-.71-2.3-3.05-5.28,2.36-4.41,.41,.07,1.38-1.84,1.69-2.94,1.14-4.03,2.1-8.11,3.13-12.17,.76-.02,1.53-.03,2.29-.05,.43,2.82,.79,5.66,1.31,8.46,.5,2.71-.4,6.37,4.27,6.56,.24,0,.76,2.98,.46,4.43-.59,2.85-1.52,5.65-2.59,8.37-1.79,4.57,.31,7.21,3.66,10.18,4.44,3.94-.42,5.71-3.58,8.41,1.86,2.82,3.8,5.54,5.48,8.41,.57,.98,1.09,2.86,.59,3.47-3.94,4.84-1.78,9.7-.51,14.64,.32,1.25-.08,2.69-.14,4.04-.07,1.5-.14,3.01-.21,4.51,1.66-.56,3.36-1.01,4.95-1.72,.66-.3,1.08-1.14,1.71-1.83,3.43,3.61,6.69,7.03,9.84,10.33,2.32-1.13,3.91-1.91,5.93-2.9-.75-1.02-1.45-1.83-1.99-2.74-.78-1.31-2.38-3.23-1.97-3.93,.78-1.34,2.63-2.2,4.2-2.92,4.74-2.16,9.59-4.08,14.31-6.28,.81-.38,1.2-1.65,1.79-2.51-1.11-.44-2.34-1.43-3.31-1.21-3.46,.77-6.82,1.95-11.19,3.27,.35-3.11,.6-5.25,.89-7.86-4,.31-8.06,.63-12.12,.95-.51-.87-1.03-1.73-1.54-2.6,2.71-1.51,5.42-3.02,7.74-4.32-.75-1.39-.8-1.55-.9-1.66-1.68-1.76-3.37-3.51-5.06-5.26,2.56-.58,5.14-1.09,7.67-1.76,9.98-2.62,18.91,3.24,28.54,3.48,2.7,.07,3.87-.74,3.76-3.75-.27-7.1-.31-7.21-7.49-7.9-2.89-.28-5.31-1.01-7.55-3.7-2.51-3.02-6.57-4.74-9.84-6.94,1.99-5.18,6.58-7.28,13.05-6.51,2.39,.28,4.8,.44,7.21,.66l.39-1.57c-1.32-.62-2.59-1.46-3.99-1.82-2.23-.58-4.73-.43-6.76-1.36-1.68-.76-2.86-2.63-4.26-4.01,1.41-.93,2.74-2.02,4.24-2.75,1.12-.54,2.46-.63,4.31-1.05-3.75-4.19-7.11-7.95-10.47-11.71-1.99-2.23-2.79-4.97-.33-6.87,1.37-1.06,4.25-1.07,6.08-.46,4.54,1.52,8.86,3.67,13.93,5.85q-1.89-9.23,7.89-15.72c-4.03-9.34-12.58-14.58-19.92-20.67,1.86-3.44,3.5-4.75,7.01-4.2,4.28,.68,8.78,.52,13.12,.09,1.36-.13,3.04-2.06,3.67-3.55,1.86-4.39,2.66-9.41,7.89-10.82-1.45-4.82-2.93-9.28-4.11-13.82-.66-2.52,.41-4.19,3.26-4.36,5.42-.32,6.23-4.39,7.19-8.72-4.67-2.26-9.45-4.38-7.55-11.79,2.28,1.21,4.25,2.52,6.42,3.26,.81,.28,3.02-1.08,3-1.13-1.79-5.15-3.74-10.25-5.69-15.35-.8-2.1-2.88-4.93-2.17-6.11,.98-1.64,4.03-2.04,6.2-2.97,.4,.37,.79,.74,1.19,1.1,1.03-4.04,1.95-8.11,3.13-12.1,1.21-4.08,2.51-8.16,4.13-12.08,.5-1.22,2.18-1.96,3.32-2.91,.86,1.19,2.15,2.27,2.51,3.59,1.24,4.53,2.43,9.12,3.11,13.76,.45,3.07,1.68,3.42,4.35,2.85,1.78-.38,3.72,.02,5.59,.07-.36,1.82-.08,4.31-1.18,5.36-5.57,5.35-5.06,12.71-6.78,19.26-1.24,4.7,2.66,6.03,6.11,7.54,2.03,.88,5.46,2.66,5.32,3.61-.35,2.38-2.19,4.65-3.77,6.7-1.27,1.65-3.03,2.92-4.57,4.36,2.72,2.84,2.01,8.37,7.24,9.25,.48,.08,1.05,.12,1.41,.4,1.08,.82,2.85,1.7,2.91,2.65,.08,1.27-.89,2.99-1.95,3.87-2.5,2.09-5.08,3.57-2.42,7.57,1.01,1.52,.41,4.23,.28,6.38-.21,3.44,.12,6.41,5.11,6.87-2.28,3.61-4.17,6.62-6.08,9.64,3.9,3.86,7.94,3.49,11.92-1.2,4.72-5.56,4.53-5.27,10.5-1.38,4.53,2.95,9.64,5.01,14.44,7.55,1.6,.85,3.25,1.76,4.53,2.99,2.26,2.17,1.53,5.24-1.39,6.28-6.01,2.16-12.02,4.29-18.09,6.26-.97,.32-2.3-.58-3.34-.36-2.83,.59-6.63,.61-8.18,2.44-3.13,3.69-2.35,11.45,.29,14.36,1.43,1.58,3.14,3.03,4.13,4.86,1.1,2.03,1.52,4.43,2.68,8.07,3.64,1.61,8.65,4.15,14.3-.36,2.09-1.67,4.94-2.68,7.61-3.25,1.7-.36,3.7,.63,5.56,1.01-.54,1.61-.79,3.4-1.68,4.77-1.14,1.75-2.8,3.16-4.95,5.48,2.46,.77,4.12,1.2,5.71,1.81,2.65,1.02,4.42,2.5,4.26,5.87-.16,3.43-2.15,4.71-4.92,5.27-3.91,.79-7.88,1.3-11.81,2.01-1.87,.34-3.71,.84-6.9,1.58,8.72,6.98,14.43,15.43,24.14,19.05,1.53,.57,3.13,1.2,4.4,2.19,1.35,1.05,2.34,2.56,3.48,3.86-1.84,1.09-3.67,3.07-5.51,3.07-3.23,0-6.44-1.27-9.69-1.86-1.05-.19-2.2,.12-3.12,.19-.29,.66-.6,1.02-.53,1.25,2.22,7.13,2.02,8.05-6.38,7.59-1.46-.08-3.08-.75-4.33-.31-1.91,.68-3.57,2.09-5.33,3.18,.91,1.44,1.82,2.89,2.73,4.33,.5,.79,1.02,1.56,2.23,3.39-4.5,.23-8.11,.42-13.15,.68,8.13,4.7,14.43,10.32,23.44,9.94,10.22-.43,19.88,1.99,29.41,5.41,1.7,.61,3.83,.02,5.76-.02-.93-1.69-1.54-3.7-2.85-5.02-3.24-3.27-6.96-6.07-10.11-9.42-.88-.94-.41-3.13-.56-4.75,1.55,.1,3.41-.32,4.58,.39,4.2,2.53,8.17,5.44,13.41,7.75-2.02-6.11-4.04-12.22-6.04-18.25,6.13-3.39,7.21,3.99,11.8,3.61-.82-2.55-1.6-4.94-2.37-7.34,.34-.44,.68-.88,1.02-1.33,1.5,1.03,3.65,1.71,4.4,3.14,2.9,5.55,4.86,11.63,8.13,16.92,2.71,4.39,6.69,8.02,10.29,11.81,.53,.56,2.05,.18,3.11,.23,.02-.92,.33-1.96,.01-2.75-1.74-4.27-3.73-8.45-5.45-12.73-.88-2.19-1.35-4.53-2.03-6.88,5.87-2.28,8.78,1.45,11.98,4.03,3.6,2.89,6.98,6.05,10.43,9.12,2.68,2.39,4.22,1,4.1-1.76-.15-3.35-.27-7.31-2.04-9.88-6.63-9.65-13.92-18.84-21.65-29.1-1.13,2.78-1.61,4.65-2.61,6.17-.73,1.1-2.17,1.72-3.29,2.56-.88-1.23-1.89-2.38-2.57-3.71-.34-.66-.05-1.64-.05-2.47,0-9.01-.01-8.94-8.66-10.07-1.25-.16-3.35-1.39-3.36-2.16-.04-2.35,.01-5.27,1.33-6.96,4.87-6.25,5.06-6.09,.39-12.32-2.08-2.78-4.31-5.48-6.05-8.46-.62-1.07,0-2.86,.05-4.32,1.29,.05,2.96-.41,3.8,.23,8.54,6.48,18.62,6.47,28.6,7.36,6.96,.61,13.83,2.09,20.76,3.11,.92,.14,1.91-.12,4.09-.3-1.48-2.81-2.39-5.18-3.85-7.15-2.77-3.73-5.63-7.45-8.88-10.76-2.91-2.96-6.07-5.97-9.69-7.84-5.37-2.78-7.85-7.3-9.66-12.53-.76-2.18-1.26-4.46-2.59-5.4-8.17-3.93-16.44-7.68-24.44-11.93-1.87-.99-2.82-3.7-4.19-5.62,1.72-.98,3.41-2.02,5.16-2.94,5.05-2.67,9.89-3.28,15.85-1.81,4.9,1.2,10.6-.89,17.06-1.65-1.42-2.47-2.73-4.11-3.33-5.98-.8-2.47-1.04-5.11-1.52-7.68,2.67-.26,5.65-1.4,7.95-.59,5.06,1.78,9.77,4.55,14.65,6.87,1.21,.58,2.51,.96,4.47,1.69-.63-5.18-1.8-10.46,4.44-10.76,3.97-.19,8.04,1.71,13.46,3-2.07-2.2-3.29-3.74-4.75-5-4.82-4.18-10.23-7.81-14.44-12.53-3.29-3.68-6.6-2.92-10.3-2.39-2.24,.32-4.45,1.1-6.67,1.12-1.13,0-3.17-1.15-3.22-1.9-.12-1.55,.34-3.83,1.42-4.63,2.43-1.79,5.39-2.86,8.7-4.51-1.07-1.78-2.04-3.42-3.04-5.04-2.51-4.05-.87-7.49,3.9-7.19,5.3,.34,9.05-2.58,13.04-5.07,.95-.59,1.92-2.65,1.56-3.44-.44-.97-2.31-1.93-3.47-1.83-3.01,.27-5.96,1.13-10.02,1.98,.42-3.89,.74-6.85,1.16-10.66-2.15,0-4.24,.15-6.3-.04-1.93-.18-3.84-.72-5.73-1.1,.24-1.35,.19-1.73,.36-1.97,4.14-5.83,4.08-5.8,1.27-12.18-.55-1.24-.42-2.78-.75-5.33,7.82,2.22,15.28,1.13,21.78,5.63,3.84,2.66,8.29,4.49,12.59,6.42,.74,.33,2.74-.45,3.08-1.21,2.39-5.37-.86-11.86-6.22-14.04-2.65-1.08-5.71-1.91-6.62-5.84-.53-2.27-3.51-3.86-4.93-6.05-1.61-2.48-3.75-5.28-3.79-7.96-.05-3.51,6.54-4.9,11.47-2.8,2.03,.86,4.06,1.7,6.09,2.54,.38-.43,.77-.86,1.15-1.29-1.24-1.29-2.32-2.84-3.77-3.82-1.89-1.27-4.44-1.69-6.04-3.19-1.77-1.64-2.79-4.09-4.13-6.19,1.92-.79,3.84-1.59,5.78-2.36,.57-.23,1.18-.35,2.1-.62-2.98-5.44-5.85-10.61-8.65-15.81-.78-1.45-1.94-3.04-1.88-4.52,.07-1.96,.87-4.1,2.02-5.69,.32-.44,3.32,.43,4.53,1.4,3.98,3.17,7.71,6.66,12.54,10.92-.28-4.56-1.66-8.52-.38-11.19,1.32-2.75,5.24-4.25,9.17-7.13-4.45-6.96-8.72-14.46-13.83-21.35-3.93-5.3-4.85-8.29-1.58-11.55,5.69,1.79,11.3,3.55,17.25,5.43,1.11-3.87,1.57-6.85,2.83-9.45,1.13-2.33,3.15-4.24,5.1-6.76-1.16-5.84-2.52-12.66-3.96-19.88,3.22-.27,5.16-.43,7.4-.61,2.11-4.07,4.26-7.61-.8-11.92-2.47-2.11-2.95-6.56-4.33-9.95,.6-.4,1.2-.8,1.79-1.2,2.23,2.06,4.46,4.12,7.53,6.96-.34-4.23-.17-7.73-.98-10.98-1.03-4.09-2.85-7.97-4.34-11.94-.17-.47-.57-.91-.57-1.37-.03-1.99-.42-4.19,.32-5.88,.27-.63,3.24-.1,5.94-.1,.75-3.3,1.61-7.36,2.62-11.38,1.01-3.98,2.06-7.95,3.35-11.84,.37-1.13,1.61-1.97,2.46-2.95,.9,1.2,2.35,2.3,2.6,3.62,1.08,5.81,2.02,11.66,2.58,17.54,.28,2.95,1.25,4.19,4.24,4.09,4.14-.14,5.93,1.99,3.62,5.6-4.15,6.47-5.26,13.69-6.44,21.01-.8,5.01,1.64,8.2,5.32,10.89,7.04,5.15,6.69,8.97-1.17,13.33-.73,.4-1.82,1.58-1.66,1.95,1.87,4.45,3.05,9.65,6.18,13,4.55,4.88,5.19,5.81,.37,10.21-.92,.84-1.6,2.48-1.55,3.72,.18,3.92,.58,7.85,1.24,11.72,.48,2.82,1.48,5.56,2.25,8.33l1.7-.07c-1.14,2.32-1.97,4.87-3.51,6.89-1.55,2.04-2.67,4,.1,5.22,2.05,.9,5,1.3,6.96,.49,2.44-1.01,4.27-3.48,6.37-5.32,1.89,2.29,3.63,4.74,5.71,6.84,3.46,3.5,7.21,6.72,10.71,10.2,1.52,1.51,2.98,3.21,3.98,5.08,2.03,3.81,.27,6.28-3.99,6.51-2.71,.14-5.38,.98-8.07,1.44-2.86,.49-5.5,2.3-8.72,.37-1.43-.86-3.81-.15-5.61-.15-.67,3.51-1.18,6.41-1.78,9.29-1.23,6.03,3.1,10.21,4.92,15.24,1.08,3,1.7,6.16,2.53,9.26-.41,.13-.83,.26-1.24,.39,.14,.29,.23,.63,.43,.87,5.49,6.85,11.78,3.98,18.23,1.75,1.61-.56,4.41-.13,5.48,.98,.84,.88,.14,3.57-.37,5.32-.35,1.19-1.49,2.18-2.37,3.18-2.01,2.28-1.87,3.95,1.03,5.42,1.41,.72,3.12,1.92,3.54,3.26,.85,2.71,1.7,5.89,.99,8.44-.37,1.35-3.97,2.29-6.2,2.52-3.86,.4-7.79,.11-12.25,.11,.56,1.87,.63,2.91,1.13,3.64,7.1,10.29,12.53,21.9,23.45,29.24,1.23,.83,.87,4.02,1.25,6.12-1.86,.18-3.9,.95-5.53,.42-3.14-1.01-6.05-2.76-9.76-4.54,.31,4.5,.54,7.93,.84,12.29-3.33-1.13-5.53-2.35-7.8-2.49-2.07-.13-4.52,.48-6.18,1.65-.68,.48,.06,3.38,.6,5.03,.6,1.8,1.72,3.42,3.36,6.52-4.47-.64-7.53-1.09-11.9-1.72,3.96,4.35,7.4,7.86,10.54,11.64,4.02,4.85,10.32,4.17,15.3,6.69,4.92,2.48,10,4.65,15.01,6.95v44c-5.86-.49-11.72-.99-17.67-1.49-2.67,2.51-6.13,5.61-9.36,8.92-.63,.65-.96,2.45-.52,3.15,3.53,5.64,7.29,11.15,11.01,16.76,5.81-5.4,6.75-5.17,9.19,1.88,1.34,3.87,2.14,8.16,7.35,8.77v29c-1.91,2.46-3.82,4.92-5.48,7.05-4.57,.48-8.3-5.72-12.38-1.36-5.18,5.54-5.84,10.73-2.65,15.52,2.57,3.86,4.59,9.39,11.25,6.18,2.82-5.83-5.72-11.99,.3-18.2,3.14,3.43,6.05,6.62,8.97,9.81v75c-2.27-2.41-4.62-4.75-6.8-7.24-1.69-1.94-3.17-4.07-4.75-6.11-.58,.31-1.16,.62-1.74,.93,.93,4.08,.94,8.72,3.02,12.08,2.5,4.02,6.76,6.94,10.26,10.34v111h-513c-5.25-1.9-10.51-3.8-16.87-6.1,3.65-1.42,6.5-2.52,10.19-3.96-2.58-2.43-4.4-4.62-6.69-6.07-1.1-.7-3.68-.61-4.59,.22-3.65,3.32-6.59,2.97-9.62-.69-.77-.93-2.04-1.46-3.63-2.55-3.37,4.77-6.53,9.25-9.69,13.72,6.56,4.88,9.37,5.3,13.44,2.34,5.28-3.85,7.27-3.2,9.46,3.08h-143c3.91-3.47,10.48-4.99,9.22-13.41-2.82,2.22-5.16,3.91-7.32,5.81-3.23,2.84-6.07,3.17-8.72-1.08,1.76-2.58,3.54-5.18,5.31-7.78-.28-.31-.56-.61-.85-.92-3.6,2.15-7.2,4.3-10.75,6.42,.27,1.3,.5,2.44,.59,2.89-3.56,1.15-6.68,2.15-10.48,3.38q-6.79-4.26-12.6,1.23c.51,1.11,1.06,2.29,1.61,3.47h-507c.77-2.86,1.54-5.71,2.31-8.57-2.16,.2-3.15,1.28-4.39,1.83-2.46,1.09-5.24,2.97-7.56,2.58-5.15-.87-8.58,1.81-12.36,4.16h-7c-6.33-1.69-12.67-3.38-19-5.07-.17,.31-.34,.61-.51,.92,1.17,1.38,2.34,2.77,3.51,4.15H0c0-42,0-84,0-126,7.77-4.42,11.3-11.14,10.32-20.53C6.88,493.28,3.44,497.12,0,500.97c0-27,0-54,0-81,.95-.66,1.81-1.59,2.86-1.92,1.4-.43,2.94-.39,4.42-.56,.02,1.54,.33,3.16-.03,4.61-.33,1.37-1.4,2.55-2.06,3.86-.51,1.01-.88,2.08-1.31,3.13l1.19,.83c3.2-3.09,6.41-6.17,9.83-9.47,5.6,6.81-3.65,11.62-1.36,17.49,6.16,1.88,7.49,1.33,12.05-4.97,3.27-4.51,3.24-9.22-1.3-14.85-3.78-4.68-8.07,1.22-12.56,.3C8.89,414.49,7.48,407.93,0,409.97,0,400.64,0,391.3,0,381.97c1.11,.29,2.24,.52,3.32,.89,8.33,2.87,10.65,1.97,14.25-5.58,3.32-6.94,4.06-7.09,9.77-1.65,4.09-4.68,8.23-9.32,12.2-14.09,.45-.54,.39-2.17-.09-2.73-3-3.52-6.19-6.89-8.55-9.46-5.12,0-9.75,.02-14.39,0-3.38-.02-4.98-1.27-4.93-5.14,.05-3.79-.04-8.05-5.65-8.89-2.09-.31-3.95-2.18-5.92-3.34,0-2,0-4,0-6Zm1734,153.87c-.51,1.84-.79,3.85-1.64,5.56-.67,1.34-1.98,3.22-3.13,3.31-5.87,.46-11.79,.37-17.68,.58-1.15,.04-2.52,.27-3.39,.94-3.22,2.46-6.41,5.01-9.3,7.85-.61,.6-.38,3,.33,3.81,2.6,2.97,5.43,5.79,8.48,8.28,1.07,.87,3.49,1.34,4.55,.72,5.62-3.27,6.16-3.26,9.05,2.22,2.77,5.26,8.03,6.83,13.71,4.89,5.65-1.93,11.21-3.69,15.25-8.48,1.02-1.21,8.31-10.43,8.61-11.89,.9-4.3,3.36-9.12,2.22-12.8-1.63-5.24-5.92-9.66-9.95-15.74-3.26,4.09-5.79,7.32-8.37,10.51-1.3,1.6-2.7,3.13-4.05,4.69-1.44-1.36-2.89-2.72-4.69-4.43Zm-1551.77,1.25c-2.11,1.77-3.57,3.88-4.67,3.7-1.33-.21-3.14-2.22-3.39-3.68-.87-5.04-4.38-7.39-8.61-9.89-3.26,4.31-7.2,8.16-9.29,12.83-1.17,2.63,.7,6.62,1.22,10,.23,1.46,1.03,3.03,.7,4.33-1.17,4.68,1.32,6.54,5.01,8.53,3.69,1.99,6.58,5.43,10.22,7.55,4.22,2.45,9.06,4.87,13.91,2.86,2.54-1.05,3.83-4.8,6.27-6.49,1.34-.93,4.75-.98,5.72,.02,2.84,2.96,4.51,1.59,6.47-.65,.86-.98,1.8-1.92,2.79-2.77,1.88-1.61,3.83-3.13,5.75-4.7-1.58-1.63-3.32-3.13-4.7-4.92-3.02-3.91-5.71-8.11-11.83-5.7-.92,.36-2.26-.32-3.4-.56-6.01-1.29-13.48-.77-12.17-10.47Zm420.07,24.42c3.21,2.2,6.45,4.18,9.41,6.51,2.32,1.82,4.24,2.75,7.09,.81,2.5-1.7,5.58-2.04,7.38,1.09,2.19,3.8,5.43,5.35,9.48,5.02,4.07-.34,8.29-.67,12.1-1.99,5.86-2.04,11.42-4.92,17.08-7.43,1.18-4.17,2.46-8.54,3.62-12.95,.26-.99,.52-2.47,.01-3.09-2.28-2.81-4.76-5.47-7.36-8-.82-.8-2.68-1.71-3.31-1.33-2.86,1.75-6,3.52-8.03,6.08-3.56,4.51-5.21,4.85-9.27-.33-.73,7.5-5.98,7.76-11.28,7.77-4.28,0-8.56-.26-12.84-.32-.92-.01-1.99,.12-2.74,.6-3.69,2.35-7.3,4.84-11.36,7.57Zm348.6,54.44c7.4,2.08,14.79,4.43,22.32,6.18,5.24,1.22,10.44,1.09,14.63-3.48,.98-1.07,3.72-1.85,4.87-1.25,7.74,4.02,11.64-3.28,18.61-4.9-3.46-1.42-5.72-2.01-7.6-3.2-3.33-2.09-6.62-2.37-10.6-2.5-6.7-.22-14.97,3.06-19.66-5.61-3.28,4.35-5.85,2.84-8.71-.6-4.13-4.96-9.08-4.94-13.5-.46-1.49,1.51-3.12,2.88-4.63,4.26,1.38,3.73,2.74,7.4,4.28,11.57Zm477.77,51.47c-4.4,3.54-4.92,3.48-8.82-.81-4.46-4.91-9.14-4.93-13.85-.14-1.37,1.39-2.96,2.58-4.42,3.83,1.45,3.9,2.85,7.7,4.08,11,3.83,1.48,7.25,3.39,10.91,4.08,6.89,1.31,14.32,3.72,20.75,2.25,5.48-1.25,9.96-4.68,16.58-3.37,3.27,.65,7.52-3.69,11.88-6.06-2.71-1.04-4.89-1.46-6.57-2.6-3.58-2.45-7.28-2.53-11.52-2.75-6.53-.35-14.68,3.05-19.04-5.41Zm342.54-119.91c-2.85,5.1-5.29,9-7.18,13.15-.45,.99,.67,3.07,1.62,4.19,.76,.9,2.69,.79,3.49,1.68,1.2,1.33,2.36,3.1,2.53,4.78,.07,.67-2.49,1.83-4,2.37-2.91,1.04-6.23,1.26-8.82,2.79-4.36,2.57-2.02,6.27-.6,9.55,1.36,3.14,3.74,4.62,7.17,3.63,7.13-2.05,8.01-3.21,8.85-10.94,.09-.82,.2-1.69,.56-2.41,.88-1.75,1.92-3.42,2.89-5.12,1.87,1.27,3.71,2.58,5.61,3.8,1.9,1.22,4.76,3.79,5.64,3.24,2.93-1.82,7.67-5.37,7.23-7.17-2.03-8.38-5.57-16.39-8.58-24.54-.53,.04-1.06,.07-1.58,.11-1.14,1.95-2.11,4.03-3.48,5.8-.99,1.28-2.46,2.85-3.83,2.96-1.21,.1-2.74-1.46-3.83-2.58-1.12-1.14-1.89-2.64-3.72-5.3Zm-1640.11-4.76c-3.37,7.31-6.45,13.69-9.26,20.18-1.9,4.41-.53,7.27,4.41,10.25,4.15,2.51,5.42-1.2,7.36-3.44,.44-.5,.78-1.11,1.28-1.52,2.41-1.96,5.12-.94,5.75,2.16,.3,1.46,.99,3.08,.62,4.39-1.79,6.44,2.14,8.75,7.07,10.75,3.61,1.46,6.12,.51,7.9-2.74,1.78-3.24,3.9-6.83-.52-9.43-2.62-1.54-5.88-1.94-8.77-3.07-1.06-.41-2.46-1.33-2.65-2.24-.21-1.03,.45-2.68,1.3-3.38,1.21-1.01,3.11-1.17,4.38-2.13,1.11-.83,2.74-2.64,2.46-3.38-1.63-4.35-3.75-8.51-5.58-12.45-4.49,1.18-4.23,8.05-8.74,5.63-2.73-1.47-4.12-5.44-7.01-9.58Zm538.96,23.8c3.38,1.18,5.67,1.7,7.65,2.79,1.07,.59,1.61,2.14,2.38,3.26-1.07,.55-2.09,1.35-3.23,1.61-3.37,.77-6.9,1.02-10.13,2.14-1.2,.41-2.83,3.43-2.47,3.92,1.66,2.23,3.97,5.58,6.03,5.57,4.04-.02,8.08-1.98,12.07-3.27,.28-.09,.13-1.26,.33-1.88,.87-2.68,1.03-6.52,2.89-7.76,3.2-2.14,5.58,1.2,7.72,3.56,.52,.58,1.39,.91,2.16,1.2,3.36,1.26,11.41-3.39,10.22-5.98-2.77-6.04-6.2-11.77-9.5-17.88-3.3,2.98-5.51,6.54-8.09,6.84-2.65,.31-5.68-2.56-9.35-4.47-2.37,2.83-5.18,6.17-8.68,10.36Zm896.58-47.9c11.51-5.66,20.87-.09,30.4,.87-.32-6.99,.75-8.49,7.11-9.11,2.53-.25,5.16,.57,7.75,.82,1.1,.11,2.21,.02,3.32,.02-1.27-1.87-2.71-2.61-4.18-3.29-4.91-2.25-10.18-3.96-14.65-6.88-3.62-2.37-6.9-1.88-10.35-1-6.46,1.65-12.84,3.63-20.8,5.92,.33,2.98,.83,7.58,1.39,12.65Zm-614.14,105.63c-6.06-1.19-11.28-2.21-16.49-3.24-.03-.43-.07-.86-.1-1.29,1.38-.64,2.72-1.36,4.14-1.9,1.45-.55,2.96-.94,6.09-1.9-2.98-2.53-5.02-4.16-6.95-5.92-2-1.82-3.74-1.65-5.6,.23-3.07,3.09-5.98,2.8-8.81-.5-.9-1.05-2.24-1.74-3.93-3.01-3.43,4.86-6.59,9.36-9.75,13.84,7.06,5.15,8.61,5.24,14.61,1.24,3.76-2.51,7.01-1.14,8.02,3.34,.28,1.22,.31,2.88,1.11,3.53,4.93,4.01,13.28,2.49,17.66-4.42Zm-485.98-90.79c10.36-3.89,20.32,.38,30.51,1.06-.87-6.26,3.26-6.53,7.13-6.63,3.76-.09,7.53,.32,11.3,.5-1.15-1.41-2.45-1.96-3.79-2.39-4.87-1.57-9.9-2.75-14.59-4.73-5.13-2.17-9.76-1.53-14.89,.06-4.3,1.34-9.03,1.25-13.57,1.82-1.4,.18-3.75,.08-4,.73-.71,1.88-.94,4.15-.64,6.15,.2,1.27,1.69,2.34,2.54,3.42Zm-161.47-1.48c8.93-.59,17.21-4.46,26.58,1.22,.48-4.72,.9-8.77,1.13-11.07-6.74-2.63-11.75-4.74-16.87-6.5-2.26-.78-5.04-1.75-7.11-1.11-5.93,1.85-11.61,4.49-17.4,6.78-.75,.3-1.6,.33-2.41,.48,.44,.54,.87,1.08,1.31,1.62,3.38,0,6.8-.34,10.12,.08,4.49,.58,6.03,3.55,4.64,8.49Zm1422.81,118.12c-.48,.38-.95,.76-1.43,1.13,1.31,2.07,2.62,4.13,3.92,6.19q3.97-2.01,6.49,1.32c.7,.93,1.3,1.95,2.09,2.8,2.99,3.21,5.75,6.31,10.96,3.19,3.85-2.3,8.28-3.72,12.57-5.18,6.56-2.24,7.73-4.12,5.81-10.78-8.39,5.07-14.82-4.03-23.09-3.76,2.17,4.08,4.39,7.33,5.58,10.92,.53,1.61-.44,4.6-1.77,5.66-.97,.77-3.92-.13-5.5-1.09-5.33-3.27-10.44-6.9-15.63-10.4Zm-1585.75-7.02c-1.53,4.81-1.05,8.5,2.73,10.82,3.01,1.85,6.49,2.93,9.62,4.6,8.37,4.47,11.3,3.95,17.27-3.38,.21-.26,.45-.5,.63-.78,1.57-2.55,3.37-3.77,5.88-.54,1.61-2.3,2.96-4.24,4.31-6.17-.43-.39-.85-.79-1.28-1.18-5.43,3.4-10.79,6.93-16.35,10.11-1.29,.74-3.66,.95-4.77,.23-1.05-.69-1.7-3.04-1.43-4.44,.43-2.17,1.67-4.23,2.81-6.2,.98-1.71,2.3-3.22,4.08-5.65-8.73-.19-15.22,8.12-23.51,2.58Zm970.16-50.61c4.1-.48,8.37-1.19,12.67-1.41,4.28-.23,8.59,.13,12.88,.02,1.39-.04,3.32-.37,4-1.29,.76-1.05,.87-3.15,.32-4.35-.39-.85-2.34-1.22-3.64-1.37-4.41-.49-8.84-.94-13.28-1.12-4.85-.2-9.79-.66-14.53,.05-5.71,.86-11.25,2.83-16.86,4.32,6.2,1.3,13.6-3.02,18.45,5.17Zm-745.08,41.44c.34,.34,.67,.68,1.01,1.03,1.61-.07,3.23-.11,4.84-.22,5.27-.37,10.57-.59,15.81-1.23,3-.37,5.24-1.88,5.04-5.61-.18-3.36-2.45-2.85-4.59-3.06-1.04-.1-2.02-.78-3.03-1.2,.58-1.08,1-2.28,1.78-3.19,.6-.7,1.64-1.01,2.94-1.77-2.71-2.28-4.5-3.77-5.23-4.39-3.31,3.03-6.14,5.3-8.58,7.93-3.48,3.76-6.67,7.79-9.99,11.71Zm13.02,47.55c5.98-3.6,12.38-12.85,11.7-17.4-.33-2.23-2.93-4.56-5.09-5.88-.92-.57-3.44,1.15-5.06,2.11-1.19,.71-1.97,2.44-3.18,2.74-5.48,1.38-8.43,6.75-6.42,12.73,3.74-2.9,7.42-5.76,11.1-8.61,.52,.48,1.05,.96,1.57,1.44-1.39,3.87-2.78,7.75-4.61,12.86Zm296.62-52.34c-8.74,4.49-16.05-2.76-24.47-1.56,.82,1.47,2.43,2.07,3.04,3.21,1.19,2.24,3.22,5.59,2.39,7.02-1.75,3.01-5.04,1.93-7.88,.24-2.16-1.28-4.6-2.09-6.91-3.12,3.6,5.29,7.57,9.01,14.49,6.23,4.51-1.81,9.39-2.8,14.19-3.75,4.38-.87,6.3-2.99,5.15-8.28Zm-276.27,21.73c.55-.5,1.1-1,1.65-1.5-1.57-2.9-3.13-5.81-4.7-8.71,.4-.49,.79-.99,1.19-1.48,4.79,2.44,9.58,4.89,15.47,7.89-.98-10.54-10.19-12.47-14.69-18.71-2.79,4.05-5.28,7.53-7.57,11.12-.42,.66-.48,2.17-.03,2.66,2.78,3.01,5.76,5.84,8.68,8.72Zm1179.87-80.21c-1.51-.26-2.29-.51-3.07-.52-1.65-.01-3.32,0-4.94,.28-.21,.04-.39,2.42-.15,2.51,1.59,.57,3.31,1.13,4.97,1.1,5.92-.1,11.84-.51,17.77-.67,2.06-.06,4.13,.27,6.2,.42,.23-.63,.47-1.26,.7-1.89-4.44-3.4-8.88-6.79-12.95-9.9-.1,1.46-.19,2.97-.29,4.47-1.49-.27-3-.44-4.46-.84-1.31-.36-2.56-.96-4.17-1.58,.14,2.38,.25,4.13,.39,6.6Zm130.81,48.67c7.73-.14,8.65-1.7,6.32-7.17-.78-1.82-.64-4.03-1.05-6.03-.21-.99-.47-2.16-1.14-2.83-3.06-3.1-4.89-2.65-8.93,2.73-1.27,1.7-2.96,4.87-2.27,5.92,2.04,3.12,5.19,5.52,7.07,7.38Zm-507.15,44.87l-.63-1.76c-3.95,4.48-11.34,5.35-13.4,11.81,.31,.42,.61,.85,.92,1.27l14.14-5.33c.23,.45,.46,.9,.69,1.35l-4.23,5.99c.39,.39,.79,.78,1.18,1.17,1.77-1.39,5.05-2.79,5.04-4.18,0-5.21,3.62-6.55,7.08-8.46,1.42-.79,2.6-2.02,3.89-3.04-.21-.43-.42-.86-.64-1.29-4.68,.82-9.37,1.64-14.05,2.46Zm-1012.89-48.65c7.36,2.19,10.76,1.21,14.02-3.87,.74-1.16,1.23-3.46,.6-4.32-1.93-2.61-4.11-5.57-6.9-6.81-1.74-.77-5.09,.83-4.39,4.75,.25,1.42-.72,3.08-1.23,4.59-.6,1.79-1.31,3.54-2.1,5.66Zm764.77,52.67c2.14-2.39,4.11-4.58,6.48-7.21-8.02,1.12-15.61,2.19-23.28,3.26q.21,2.82,12.43,6.34c10.58,3.05,15.46,2.26,19.37-3.13-4.76-.33-8.83,5.63-15.01,.75Zm-656.15-89.18l.7,1.74c6.01,.4,12.02,.79,18.03,1.22,.99,.07,1.96,.41,2.94,.56,3.51,.51,5.82-1.49,3.92-2.95-1.5-1.15-4.11-.86-6.59-1.27v-5.18c-2.35,.88-4.42,1.66-6.79,2.55-.65-1.43-1.2-2.64-1.85-4.07-3.55,2.54-6.96,4.97-10.37,7.41Zm189.85-12.54c-2.77,6.69-6.77-.11-10.32,1.28v4.22h-8.68c0,.7-.01,1.39-.02,2.09,10.21,1.33,20.47-.08,30.7,.31l.43-1.62c-3.87-2.01-7.74-4.01-12.1-6.27Zm135.17,39.8c-1.11-2.45-2.57-4.55-2.97-6.83-.71-4.03-4.57-6.34-7.84-3.97-2.2,1.6-3.99,3.76-5.93,5.63,5.32,6.67,9.78,8.05,16.73,5.17Zm-216.31,58.81c-2.72,4.43-5.24,7.22-9.03,2.09-1.14,3.2-2.09,5.86-3.5,9.82,3.79-2.36,6.29-3.92,8.02-5.01,1.55,3.04,2.18,6.22,4.03,7.28,1.51,.86,4.47-.84,7.51-1.58-2.59-4.65-4.51-8.08-7.02-12.6Zm1387.97-189.57c-1.77-8.66-7.29-14.57-14.49-19.58-1.9,7.85,5.67,14.48,14.49,19.58Zm-807.88,169.8c7.35,2.75,11.85,1.6,16.55-4.57-3.77-1.21-7.47-3.62-10.53-2.98-2.39,.5-3.97,4.8-6.01,7.55Zm590.31-25.59c4.42,2.37,8.25,4.48,12.13,6.48,2.47,1.27,3.98,.29,3.85-2.36-.1-1.85-.53-4.94-1.51-5.25-3.92-1.24-8.12-1.62-12.47-2.36-.51,.9-1.15,2.01-2,3.49ZM142.74,403.64c-7.55,4.58-13.51,9.1-15.33,17.25,6.53-3.96,14.29-6.79,15.33-17.25Zm993.26,162.1c-1.77-4.83-8.66,2.31-8.61-4.61-2.8,.34-5.58,1.41-7.92,.79-3.77-1-9.6,.37-11.93,3.81h28.45Zm-430.39-118.34c.13-6.15-8.46-13.86-15.64-14.85,1.52,8.72,9.54,10.13,15.64,14.85Zm-394.96,118.59v-.17c-1,0-2.17-.33-2.94,.08-1.17,.62-2.67,1.62-2.93,2.72-.38,1.6,.23,3.43,.42,5.16,1.39-.18,2.87-.11,4.14-.6,2.29-.87,4.58-1.89,6.63-3.22,.96-.62,1.35-2.12,2-3.22-1.14-.36-2.25-.92-3.42-1.02-1.28-.12-2.6,.17-3.9,.28Zm167.76-14.83c.12,.48,.23,.95,.35,1.43,4.03,1.47,8.02,3.05,12.11,4.32,1.05,.32,2.95,.02,3.49-.71,.61-.84,.42-3.5,.07-3.6-4.14-1.19-8.35-2.19-12.61-2.88-1.03-.17-2.27,.93-3.41,1.45Zm-167.53,57.75c.36,.12,.72,.24,1.08,.36-.08,1.49-.22,2.98-.22,4.47,0,1.77,.13,3.54,.2,5.31,1.7-1.17,3.59-2.15,5.04-3.58,.8-.79,.86-2.33,1.45-4.13-4.59,.82-5.18-7.21-10.67-3.47-.61,1.78-1.27,3.67-1.93,5.57,.24,.12,.49,.23,.73,.35,1.44-1.63,2.87-3.25,4.31-4.88Zm181.33-19.98q-3.03-6.95-14.89-2.51c1.87,3.34,3.44,6.85,8.42,4.95-.37-2.52-.71-4.83-1.06-7.14,.41-.14,.81-.28,1.22-.42,1.73,1.4,3.46,2.81,6.31,5.12Zm435.21-87.33c-7.37,2.29-12.54,5.23-15.94,10.78,5.81-2.02,12.35-2.87,15.94-10.78Zm438.19,75.28c.47,.73,.95,1.46,1.42,2.19,5.22-2.86,11.93-3.51,14.68-10.02-.36-.55-.72-1.11-1.08-1.66-5.01,3.16-10.02,6.33-15.03,9.49Zm-237.39,14.59l-.05-2.11c-4.65,.41-9.32,.74-13.94,1.37-.48,.06-1.21,2.08-.92,2.85,.26,.69,1.88,1.44,2.69,1.25,4.11-.96,8.15-2.21,12.22-3.36Zm758.25-260.05c.41,.45,.81,.91,1.22,1.36,1.58-1.2,4.67-2.85,4.47-3.51-.84-2.77-2.66-5.24-4.13-7.82-.52,.26-1.04,.53-1.56,.79v9.18Zm-764.89,288.24c.37,.57,.74,1.13,1.11,1.7,2.36-1.31,4.73-2.62,7.92-4.4-3.97-1.5-6.34-3-8.8-3.14-1.93-.11-3.95,1.47-5.92,2.31,.19,.45,.37,.9,.56,1.34,1.99-.9,3.98-1.79,7.03-3.16-.95,2.68-1.42,4.02-1.89,5.35ZM49.24,323.79c-.62-.26-1.23-.52-1.85-.79-1.48,2.37-3.14,4.67-4.22,7.22-.13,.31,2.84,1.94,5.26,3.54l.81-9.98Zm1641.99,143.4v10.07c2.89-1.46,5.01-2.52,8.14-4.1l-8.14-5.97Zm190.54-166.32c-.62,.41-1.23,.83-1.85,1.24,.54,3.68,2.54,6.48,6.13,8.19,.54,.26,1.76,0,2.07-.43,.32-.44,.15-1.62-.25-2.11-1.95-2.36-4.05-4.61-6.1-6.89Zm-125.17,274.18l-.22,2.15c2.43,1.49,4.86,2.98,7.29,4.47,.43-.31,.85-.61,1.28-.92-1.12-2.05-1.88-4.47-3.5-5.98-.82-.76-3.19,.13-4.86,.27Zm-1610.21,.6c.4,.36,.8,.71,1.2,1.07,2.54-1.46,5.08-2.92,7.62-4.38l-.27-1.74c-1.54-.28-3.73-1.33-4.48-.69-1.73,1.47-2.75,3.77-4.06,5.73Zm653.84-192.52c2.6-1.46,4.37-2.46,6.14-3.45-1.67-1.9-3.35-3.8-5.02-5.7l-1.12,.75v8.41ZM221.59,481.61v-8.94c-2.73,1.84-4.62,3.11-7.6,5.12,3.06,1.54,5.04,2.53,7.6,3.82Zm1462.11-29.08c1.79,6.28,5.21,7.99,10.63,5.55-3.66-1.91-6.71-3.5-10.63-5.55Zm-1088.26,35.98c2.83-.86,5.08-1.54,7.32-2.23-.02-.51-.04-1.03-.07-1.54-2.21-1-4.43-2-7.26-3.29v7.06Zm-181.71,91.08c.52-.62,1.04-1.23,1.56-1.85-3.02-2.41-6.05-4.83-9.07-7.24l-1.5,1.92c3,2.39,6.01,4.78,9.01,7.17ZM47.31,312.23c5.28,1.7,8.79-.98,9.14-6.74-3.22,2.37-5.91,4.36-9.14,6.74Zm1840.82-56.82c-.82,.36-1.63,.72-2.45,1.08,.73,1.99,1.37,4.03,2.33,5.91,.09,.18,2.15-.64,3.3-1-1.06-1.99-2.12-3.99-3.18-5.98ZM229.01,459.97c-3.35,1.42-6.11,2.58-9.43,3.99,4.83,2.71,7.81,1.44,9.43-3.99Zm565-101.22c.19,5.4,3.89,7.94,8.73,6.17-2.89-2.04-5.45-3.86-8.73-6.17Zm-129.97,203.37c2.41,1.02,4.81,2.04,7.44,3.16,.17-5.14-1.76-6.18-7.44-3.16Zm1051.29,38.85c-.39,.43-.78,.86-1.17,1.29,.65,4.06,4.17,4.36,7.85,4.52-2.23-1.94-4.45-3.87-6.68-5.81Zm-893.74-142.65c-2.69,1.94-4.39,3.15-7.43,5.34,3.39,.68,5.23,1.05,7.43,1.5v-6.84Zm454.85,65.77c-2.75,2.24-4.38,3.56-6.01,4.89,.14,.42,.27,.84,.41,1.26,1.9,.21,3.8,.42,6.1,.68-.16-2.27-.28-3.82-.49-6.82Zm-687.95-53.31l-.47,1.65c2.76,2.39,5.7,4.07,9.72,1.59l-9.25-3.24ZM8.44,398.53c-2.04-1.42-3.18-2.84-4.22-2.77-1.06,.07-2.01,1.61-3.01,2.51,1.07,.82,2.04,2.06,3.22,2.3,.86,.18,2-.96,4-2.04Z"/></svg>