<svg id="a" xmlns="http://www.w3.org/2000/svg" viewBox="0 0 1921 1081"><path d="M1,946c4.47,.36,8.94,.89,13.42,.96,1.18,.02,2.39-1.4,3.58-2.17-1.14-.87-2.16-2.16-3.45-2.53-4.04-1.17-8.17-2-12.27-2.95l-.02-2.13c4.33-.51,8.66-1.02,12.99-1.52l.18-.52c-2.78-.51-5.55-1.03-9.77-1.81,2.88-1.15,4.42-1.76,6.31-2.52-2.54-1.85-4.75-3.47-7.44-5.43,5.34-3.72,9.8,.7,14.74-.03-1.13-5.25,4.21-4.05,7.59-6.64-4.43-2.54-8.3-4.77-13.72-7.88,9.23-1.07,18.29,.65,23.18-8.49l-1.68-4.29c3.03-1.43,5.58-2.63,8.85-4.16-2.59-1.5-4.18-2.42-5.78-3.35l.36-1.35c1.91,.21,3.82,.42,7.18,.79-1.73-3.35-3.1-6.01-4.67-9.07,6.55,.32,7.76-6.02,11.22-9.98,.78-.89,2.04-1.37,3.46-2.28,.97,2.9,1.15,5.79,2.69,7.29,1.18,1.15,4.07,.54,6.21,.71-2.51,3.37-4.99,6.71-8.08,10.86,3.6,1.03,6.15,1.76,10.04,2.88-3.07,1.72-5.19,2.92-8.44,4.74,2.93,1.71,5.39,3.15,8.07,4.71-1.17,.74-2.49,1.58-4.21,2.66,.46,2.35,.95,4.84,1.61,8.17-.26,.24-1.4,1.31-2.54,2.37l.36,1.19c2.44-.45,5.36-.2,7.21-1.49,3.33-2.31,6.12-2.23,9.7-.81,3.9,1.54,8.13,2.22,12.21,3.28l.03,1.62c-5.63,1.21-11.25,2.47-16.9,3.62-1.62,.33-3.53-.1-4.89,.61-1.43,.74-2.7,2.29-3.37,3.79-.3,.66,.99,2.08,1.62,3.12,4.21,6.95,10.12,5.81,16.4,3.59,2.05-.73,4.3-.87,6.46-1.28,.15,.38,.29,.77,.44,1.15-1.26,1.07-2.51,2.13-4.09,3.47,2.13,.7,3.92,1.29,6.65,2.18-5.25,5.08-11.93,2.46-18.45,5.63,7.94,3.13,14.72,5.81,21.5,8.49l.11,.67h-12.5c-1.99,8.08-9.79,1.01-13.06,5.89,.38,.62,.88,1.46,1.62,2.67-2.45,.2-4.39,.36-6.53,.53,3.9,2.32,35.86,6.23,41.35,4.79-3.88-2.16-7.17-3.98-10.45-5.81l.52-1.71c4.16,1.16,8.32,2.32,13.27,3.71-1.34-2.82-2.34-4.93-3.96-8.34,3.42,.8,5.65,1.33,8.13,1.91v-3.01l1.15-.87c2.22,2.74,4.14,5.82,6.74,8.12,2.67,2.36,6.02,3.96,9.07,5.89,.43-.49,.85-.99,1.28-1.49-1.52-2.57-3.03-5.14-5.44-9.21,3.37,.61,5.52,.7,7.45,1.41,2.8,1.03,5.38,2.64,8.16,3.71,1.2,.46,2.69,.17,4.05,.23-.22-1.65,.18-4.03-.76-4.83-4.65-3.95-9.65-7.49-14.28-10.99-2.3,1.31-4.14,2.35-7.35,4.18,3.12-10.16-4.46-6.47-8.89-8.29,2.37-1.94,4.03-3.31,6.19-5.08-2.48-2.12-4.89-4.18-7.78-6.65,14.59,.84,28.49,1.63,42.39,2.43l.85-1.96c-4.61-2.8-9-6.1-13.91-8.21-3.43-1.47-6.82-2.2-8.51-6.07-.42-.97-2.21-1.59-3.48-1.89-4.52-1.06-9.11-1.83-13.63-2.9-1.47-.35-2.8-1.27-4.19-1.93l.21-1.62c9.08-.83,18.17-1.66,27.97-2.55l-3.82-5.18c7.4-1.97,13.58,.81,19.83,2.11q2.14-3.94,15.14-4.07c-9.82-4.13-17.78-10.32-28.62-5.33l.04-2.35c2.4-.99,4.79-1.97,7.59-3.12-.66-1.03-1.3-2.04-2.29-3.6,5.33-1.38,10.52-2.72,15.72-4.07l-.28-1.92c-3.09,.18-6.19,.35-9.5,.54,.17-1.32,.29-2.36,.46-3.7h-8.93c2.32-1.48,3.57-2.27,6.18-3.93-1.89-.56-3.41-1.01-4.94-1.46,.47-.87,.94-1.75,1.42-2.62,8.82,1.3,17.63,2.61,26.45,3.91,1.5-3.72,1.34-5.52-3.13-6.5-4.08-.9-7.76-3.67-12.42-6.02,5.38-4.13,10.15-1.93,15.07-2.73-3.06-1.07-6.12-2.14-9.18-3.21l.04-1.13c1.73-.49,3.45-.99,5.59-1.6-2.39-2.68-4.55-5.09-7.09-7.93,5.79-4.62,9.52,2.56,14.58,1.55-2.13-5.98,3.98-4.6,7.23-7.19-3.94-3.57-7.65-6.93-11.79-10.68,4.07-2.67,8.27,.87,11.73-.39,3.6-1.32,6.67-4.08,9.92-6.17-.6-2.51-1.16-4.84-1.69-7.04,2.83-1.27,5.21-2.35,7.94-3.58-2.09-2.3-3.55-3.92-5.02-5.53,.26-.33,.53-.66,.79-.99,1.61,.55,3.22,1.09,6.33,2.15-1.55-4.26-2.75-7.56-4.12-11.34,.49-.15,1.54-.3,2.4-.78,1.39-.77,2.93-1.52,3.9-2.7,1.35-1.64,2.08-3.78,3.38-5.48,.8-1.05,2.16-1.69,3.27-2.51,.57,1.29,1.45,2.53,1.66,3.88,.86,5.37,.78,5.38,6.44,5.9-2.33,3.78-4.63,7.5-7.22,11.7,2.95,1.58,5.22,2.8,8.77,4.7-2.71,1.56-4.75,2.73-7.66,4.4,2.41,2.26,4.65,4.36,7.12,6.68-1.03,.74-2.3,1.66-3.84,2.77,.34,2.94,.69,6.02,1.05,9.11,.61,.3,1.22,.59,1.82,.89-1.52,.69-3.04,1.37-4.57,2.06,.34,.72,.68,1.43,1.01,2.15,2.61-.62,5.22-1.23,7.82-1.87,1.34-.33,3.34-1.44,3.91-.93,4.26,3.81,8.8,1.72,12.63,.13,4.44-1.84,8.24-5.21,11.9-8.7-2.3,.3-4.6,.6-7.86,1.02,1.68-2.25,2.73-3.65,3.89-5.21-3.76-4.24-7.54-.15-11.9-.5,.31-1.68,.61-3.29,1.14-6.13-3.21,1.23-5.8,2.42-8.51,3.17-1.21,.34-2.67-.22-4.02-.36,.75-1.09,1.29-2.43,2.28-3.23,7.01-5.7,14.12-11.28,21.19-16.9-.26-.58-.53-1.16-.79-1.75-3.16,.17-6.32,.53-9.47,.44-1.64-.05-3.26-.88-4.88-1.36,1.01-1.74,1.83-3.65,3.1-5.17,.77-.92,2.23-1.27,3.79-2.08-1.36-1.73-2.52-3.21-3.79-4.83,2.84-3.85,6.45-2,9.59-1.41,5.64,1.05,8.66-.52,10.94-5.94,.69-1.64,1.86-3.25,3.21-4.4,3.76-3.19,4.08-6.92,2.46-11.03h-20.96l-.83-1.42c1.48-1.48,2.82-3.16,4.48-4.41,4.1-3.1,8.26-6.16,12.61-8.89,1.14-.72,3.61-.89,4.52-.15,3.51,2.87,6.3,1.9,9.39-.76-1.12-1.6-2.12-3.03-2.36-3.38,1.66-5.09,2.98-9.16,4.41-13.55-1.29-.91-2.55-1.81-3.86-2.74,3.34-3.54,6.5-6.88,10.23-10.83-2.1-.79-3.11-1.15-4.11-1.54-3.33-1.3-3.06-3.18-.61-5.06,9.01-6.9,9.25-8.17,3.03-18.12-.17-.27-.18-.63-.26-.95,.15-.28,.28-.8,.45-.81,7.14-.4,7.87-6.13,9.55-11.21,.45-1.35,1.77-2.41,2.69-3.6,.8,1.11,1.87,2.11,2.34,3.34,1.15,3.03,2.01,6.16,3.05,9.44,1.67-.24,3.32-.47,5.6-.79-2.78,5.52-5.25,10.43-7.72,15.33l1.19,.78c1.9-1.17,3.8-2.34,5.7-3.51,.32,.25,.64,.49,.97,.74-.95,1.5-1.89,3.02-2.87,4.51-1.05,1.6-2.14,3.17-3.21,4.76,1.82,1.01,3.63,2.01,6.43,3.56-.97,2.52-2.27,5.91-3.26,8.5,2.06,2.75,3.93,5.23,6.34,8.44,4.5-1.16,9.7-2.5,14.9-3.85l.73,1.44c-5.37,5.59-10.74,11.17-16.67,17.34,4.5,1.68,10.39,1.69,7.08,8.8,3.6-2.19,7.12-4.54,10.85-6.48,1.17-.61,2.9-.14,4.38-.16-.28,1.3-.18,2.89-.92,3.83-2.52,3.23-5.33,6.24-8.39,9.74,2.37,.28,4.08,.48,6.17,.72-1.8,6.24-9.34,4.03-12.26,9.23,4.27-.92,7.86-1.85,11.51-2.38,1.22-.18,2.59,.69,3.9,1.08-.61,1.2-.9,2.94-1.87,3.5-4.9,2.84-8.04,8.19-14.42,9.2-1.86,.29-3.1,4.46-4.62,6.85,.46,.5,.92,1,1.37,1.5,10.2-3.16,20.39-6.32,30.59-9.48,.35,.61,.7,1.22,1.04,1.83-1.53,1.6-3.06,3.2-4.82,5.04,1.44,1,2.86,1.98,4.27,2.96,.03,.42,.06,.85,.1,1.27-3.2,.43-6.39,.86-9.8,1.32v4.98c-3.93,.26-7.71,.5-11.48,.75l-.1,2.59c5.44,1.02,10.89,2.04,17.01,3.19-1.64,2-2.84,3.47-4.49,5.48,2.45,.7,4.6,1.2,6.65,1.95,.62,.23,1.53,1.31,1.4,1.66-.29,.75-1.06,1.52-1.82,1.81-.89,.34-2.04,.44-2.96,.2-12.48-3.16-18.78,8.57-28.96,10.9,.22,.62,.44,1.23,.66,1.85,1.94-.76,3.85-1.65,5.84-2.24,5.63-1.67,7.96-.25,7.86,5.35,4.01-1.44,7.75-2.99,11.61-4.12,3.68-1.08,7.48-1.72,11.23-2.55l.91,1.62c-1.57,2.07-3.13,4.13-5.55,7.33h32.16c.17,.61,.35,1.23,.52,1.84-1.35,.96-2.57,2.28-4.07,2.83-6.37,2.34-12.86,4.35-19.21,6.74-1.79,.67-3.88,1.9-4.72,3.46-2.44,4.56-6.41,6.59-10.76,8.96-6.78,3.69-12.83,8.73-19.2,13.2,.32,.59,.65,1.17,.97,1.76,8.4-.92,16.86-1.53,25.19-2.86,8.1-1.3,16.09-3.33,24.53-3.98-3.66,3.24-7.33,6.48-11.11,9.82,.75,.89,1.18,1.36,1.56,1.87,1.16,1.56,2.3,3.14,3.45,4.71-1.92,.67-3.79,1.73-5.75,1.92-2.93,.29-5.13,.72-5.52,4.33-.19,1.72-1.44,3.33-2.21,4.99-1.67-.99-3.35-1.97-5.5-3.24-10.03,4.33-22.59,17.29-21.88,24.58,3.88-2.13,7.3-4.11,10.82-5.9,3.53-1.8,7.15-3.41,10.73-5.1,.48,.61,.96,1.22,1.43,1.82-2.71,3.9-5.43,7.8-8.14,11.69,6.07,.01,10.28-2.92,13.78-7.08,3.35-3.98,6.62-8.02,9.92-12.04,.51,.36,1.01,.72,1.52,1.09-.5,1.37-1,2.75-1.75,4.79,3.33-1.39,6.05-2.52,8.78-3.66,.39,.38,.79,.76,1.18,1.13-1.9,3.33-3.79,6.67-5.93,10.43,6.53-.31,10.57-6.55,17.31-3.97-2.36,1.66-4.66,3.42-7.11,4.95-2.31,1.45-4.77,2.65-7.16,3.97,.16,.56,.31,1.12,.47,1.68,8.7-1.41,17.37-3.22,26.12-4.11,9.04-.92,17.9-1.9,26.62-7.5h-10.53c1.88-1.78,3.07-2.91,4.27-4.04-.07-.44-.14-.87-.2-1.31h-15.04c.48-2.3,.75-3.64,1.13-5.44-5.52,.47-10.81,.92-16.1,1.37-.05-.52-.1-1.04-.15-1.56,9.45-4.69,18.9-9.38,28.36-14.07l-.45-1.85c-3.85-.27-7.7-.52-11.55-.83-1.66-.13-3.37-.15-4.93-.64-.9-.29-2.06-1.38-2.13-2.19-.07-.86,.81-2.24,1.64-2.64,1.88-.92,3.99-1.39,6.72-2.28-1.99-1.75-3.52-3.09-5.37-4.71,4.47-3.6,8.6-.26,12.71,0,2.89,.19,5.81,.55,8.66,.26,2.27-.23,4.97-.2,5.11-4.13,.05-1.44,3.41-2.53,4.6-4.24,1.23-1.77,2.23-4.08,2.31-6.19,.14-3.32-2.65-3.44-5.25-3.69-7.78-.73-15.54-1.63-23.3-2.47l-.54-1.61c1.6-1.05,3.09-2.36,4.82-3.09,5.34-2.26,10.69-4.6,16.22-6.28,1.95-.59,4.8,.05,6.63,1.15,3.8,2.29,7.25,2.66,11.35,.28-1.57-1.67-2.88-3.06-3.26-3.46,1.81-4.53,3.28-8.21,4.87-12.16-1.68-1.06-3.3-2.08-5.18-3.27,4.13-2.7,8.03-5.24,13.03-8.51-3.49-1.36-5.5-1.98-7.34-2.94-.72-.37-1.51-1.53-1.44-2.25,.07-.72,1.09-1.45,1.84-1.97,.51-.35,1.34-.2,1.91-.49,2.43-1.23,6.89-2.64,6.83-3.79-.17-3.48-1.98-6.92-3.42-10.27-.55-1.28-1.84-2.25-3.52-4.19,2.22-.3,3.64-.89,4.85-.59,4.35,1.07,5.74-1.64,7.2-4.86,1.14-2.5,2.85-4.74,4.31-7.1,1.66,2.08,3.43,4.08,4.93,6.26,.82,1.2,1.61,2.7,1.67,4.1,.15,3.63,1.61,4.71,5.12,3.75,1-.27,2.31,.61,3.44,.95-3.28,4.49-6.26,8.58-9.24,12.67,.34,.42,.67,.84,1.01,1.26,2.66-.81,5.31-1.62,7.97-2.44l1.05,1.7c-2.53,1.8-5.06,3.59-7.8,5.54,.28,5.1,5.15,3.47,9.22,5.1-1.62,3.12-3.13,6.03-4.39,8.46,2.01,2.3,3.74,5.07,6.19,6.84,1.89,1.37,4.66,1.98,7.06,2.05,3.27,.09,6.56-.79,9.86-1,1.29-.08,2.63,.5,5.19,1.04-7.43,4.82-13.77,8.94-19.87,12.9,1.97,4.32,12.27,.19,6.8,9.41,6.58-1.34,12.59-2.61,18.63-3.71,.41-.08,1.05,1.09,1.99,2.13-4.06,3.03-7.85,5.86-12.33,9.21,2.93,.53,5.17,.94,7.4,1.35,.08,.61,.17,1.23,.25,1.84-4.65,1.1-9.31,2.21-13.96,3.31,6.13,1.74,12.59-1.13,18.17,2.48,.14,.61,.28,1.22,.42,1.83-6.03,2.16-11.93,4.93-18.14,6.29-4.24,.93-6.37,2.19-5.74,7.38,12.37,.14,24.46-5.37,38.42-2.44-2.85,1.6-4.56,2.56-6.66,3.74,1.82,1.2,3.35,2.22,5.97,3.95h-11.99v4.53c-4.44-.44-8.7-.86-12.95-1.28l-.26,1.38c5.21,4.73,12.7,3.25,19.47,5.83-1.93,1.59-3.15,2.59-4.57,3.76,3.56,3.01,6.44,1.32,9.36-.7,2.84-1.97,5.41-5.16,9.41-1.72,.63,.54,2.42-.28,3.09-.38,.43-5.33,.81-10,1.24-15.35,1.1-.75,3.38-2.31,5.67-3.88-.57-.68-1.15-1.36-1.72-2.03-1.27-.89-2.54-1.77-3.84-2.68q7.01-8.11,2.32-15.25c6.64,.22,5.55-6,8.46-10.78,1.46,3.15,2.17,5.25,3.34,7.05,.9,1.39,2.37,2.41,3.96,3.96-1.01,2.14-2.45,5.17-4.43,9.35,2.42-.9,3.64-1.36,4.86-1.82,.24,.21,.48,.41,.72,.62-1.27,1.46-2.55,2.93-4.35,4.99,1.66,1.03,3.28,2.03,5.28,3.28l-1.97,5.09c2.77,8.22,9.04,5.58,15.02,3.87,.06,.4,.11,.8,.17,1.2-3.44,3.58-6.89,7.15-10.58,10.99,2.75,1.59,7.03,1.2,4.03,6.55,4.34-2.13,7.55-3.7,10.76-5.28,.4,.52,.8,1.03,1.2,1.55-2.02,2.61-4.04,5.22-6.36,8.22,1.27,.33,2.39,.63,4.82,1.27-3.48,1.72-5.97,2.95-8.45,4.18l.11,.72,9.6-.99,.91,1.81c-3.37,2.2-6.51,4.95-10.17,6.44-3.25,1.33-4.02,2.89-3.1,6.21,6.93-1.86,13.68-3.67,20.42-5.48,.2,.4,.4,.81,.6,1.21-.75,.94-1.49,1.88-3.08,3.9,.96,.36,2.17,.81,3.74,1.41-3.11,1.99-8.28-1.13-7,4.88h-7.22c-.11,.51-.23,1.03-.34,1.54,3.55,.92,7.09,1.83,10.92,2.82-.52,1.11-1.03,2.2-1.6,3.43,1.81,.8,3.53,1.56,5.26,2.32-.05,.28-.09,.56-.14,.84-3.9,.44-8.01,.24-11.63,1.49-3.79,1.3-7.1,3.98-10.98,6.27,3.63,1.28,8.63-4.31,9.98,2.78,5.12-1.26,10.11-2.48,15.11-3.7,.2,.42,.4,.84,.6,1.26-.8,1.3-1.59,2.61-3.1,5.08h21.5c.25,.78,.5,1.56,.75,2.34-14.99,3.49-26.57,12.47-38.31,21.18l.48,1.36c9.16-.87,18.32-1.74,27.49-2.62,.02-.36,.04-.71,.07-1.07-2.94-1.59-5.87-3.18-9.15-4.96,5.23-6.32,12.82-1.77,18.15-5.85-.65-1.48-1.34-3.06-2.2-5.01,4.93-2.74,8.66,1.11,13.12,1.98,.02-6.82,4.26-5.36,8.52-4.53-5.58-3.62-9.27-10.99-18.24-6.48,0-.59,0-1.18,0-1.77,1.54-1.24,3.07-2.49,4.75-3.85-4.02-8.82,8.19-4.08,8.11-10.5-1.77,.11-3.65,.22-5.77,.35v-3.56c-1.58-.15-3.17-.31-4.17-.41,.23-2.49,.44-4.83,.74-8.07,5.11-2.16,10.11,3,15.98,3.38,.97-3.5,1.54-6.02-2.97-7.5-2.38-.78-4.2-3.57-5.94-5.73-.25-.31,1.21-2.89,2.18-3.12,1.77-.41,3.77,.16,6.04-.49-2.06-1.26-4.11-2.52-6.77-4.14,1.78-1.07,2.83-1.7,4.16-2.5-.53-.95-1.05-1.93-1.6-2.9-.82-1.45-1.83-2.82-2.4-4.35-.29-.77-.09-2.14,.45-2.66,.42-.4,1.85-.15,2.57,.26,1.67,.95,3.19,2.17,4.19,2.88,1.59-2.87,2.96-5.33,4.89-8.81-1.93-2.91-4.58-6.91-7.46-11.24,1.31-.33,1.91-.62,2.52-.62,2.92,0,6.39,3.18,8.26-2.13,1.05-2.97,3.82-5.32,1.82-9.01-.44-.81,.15-3.18,.81-3.44,4.35-1.72,3.81-3.85,1.05-6.6-.5-.49-.53-1.46-1-2.87,1.7,.53,2.77,.87,4.77,1.5-1.22-4.19-2.22-7.61-2.76-9.47,2.45-5.12,4.43-9.25,6.53-13.65,3.51,2.64-.73,9.83,6.48,9.93-1.13,2.23-2.46,3.9-2.82,5.76-.68,3.51-2.65,7.55,2.44,9.83,.55,.25,.96,2.17,.59,2.9-2.89,5.82-2.95,5.78,.31,8.93v19.36c1.59-.65,3.77-1.54,6.42-2.62,3.35,1.28,5.62,8.76,12.02,3.13-1.07-1.19-2.1-2.33-3.72-4.13,6.17-3.32,12.21-6.57,18.25-9.81-.34-.78-.68-1.56-1.02-2.33-3.56,1.09-7.12,2.18-11.3,3.45,.12-1.8,.23-3.31,.37-5.38-3.25,.7-6.37,1.37-9.49,2.04-.35-.47-.71-.95-1.06-1.42,2.15-1.09,4.31-2.17,7.09-3.58-3.35-2.14-4.87-3.11-6.39-4.09l.11-1.91c5.86-.72,11.7-1.67,17.58-2.06,3.77-.25,7.6,.2,11.39,.53,3.46,.3,4.88-.86,4.51-4.55-.35-3.51-1.85-4.71-5.22-3.98-6.26,1.35-9.92-4.12-15.21-5.2,.68-5.22,4.8-4.8,7.69-5.64,2.81-.82,5.9-.68,8.87-.96,.02-.51,.04-1.01,.05-1.52-4.09-.54-8.18-1.08-12.27-1.62-.06-.59-.13-1.18-.19-1.77,2.19-1.13,4.39-2.25,7.05-3.62-2.65-2.2-5.3-4.12-7.57-6.41-.96-.97-1.96-3.55-1.54-3.95,1.23-1.19,3.23-2.41,4.79-2.25,3.88,.4,7.67,1.56,11.63,2.45q-.14-6.2,8.12-13.06c-5.73-3.88-11.18-7.56-17.6-11.91,2.19-.98,3.73-1.98,5.4-2.34,2.41-.52,4.93-.59,7.4-.83,3.85-.37,6.75-1.58,8.13-5.87,.89-2.77,3.26-5.07,5.25-7.99-.55-1.02-1.55-2.71-2.4-4.47-1.56-3.23-1.19-5.38,2.7-6.95,2.2-.89,3.7-3.52,5.66-5.51-3.13-2.59-8.24-1.56-7.01-7.31,2.45,.33,4.89,.66,7.33,.98l1.16-1.12c-2-3.37-3.99-6.73-5.99-10.09-.56-.93-1.82-2.35-1.57-2.69,.79-1.09,2.19-1.71,3.25-2.64,1.53-1.35,3.57-2.54,4.32-4.27,1.76-4.06,2.72-8.46,4.35-12.59,.49-1.24,2.1-2.03,3.71-3.51,1.56,4.94,2.82,8.93,4.17,13.21,2.85-.71,5.27-1.31,9.08-2.26-1.51,2.79-2.51,4.26-3.13,5.87-1.62,4.22-3.36,8.45-4.36,12.83-.2,.86,2.61,2.68,4.28,3.61,1.68,.93,3.67,1.3,5.53,1.91-1.4,1.89-2.71,3.85-4.25,5.62-.71,.82-1.88,1.23-3.08,1.98,2.04,3.21,3.22,6.84,7.94,6.51,.78-.06,2.34,.85,2.31,1.22-.07,.96-.62,2.09-1.34,2.77-3.78,3.54-2.78,12.58,2.14,15.07-1.5,2.32-2.98,4.6-4.67,7.22,4.31,1.83,7.88,.95,10.29-2.46,2.79-3.95,5.43-4.79,10.02-2.61,3.95,1.87,8.68,2.05,12.95,3.34,1.71,.52,3.11,2.03,4.65,3.09-1.4,1.15-2.66,2.58-4.24,3.38-2.94,1.49-6.03,2.71-9.13,3.85-3.04,1.12-6.12,2.23-9.28,2.9-3.73,.8-5.98,2.44-6.77,6.49-.73,3.73,.53,5.8,3.37,7.98,1.97,1.51,3.12,4.1,4.17,6.44,7.17,4.78,12.56-1.51,18.87-3.58,2.01-.66,4.13-1,6.2-1.49,.25,.43,.51,.87,.76,1.3-1.77,2.39-3.54,4.78-5.67,7.65,1.86,.31,3.25,.23,4.31,.78,1.58,.82,4.23,2.29,4.1,3.13-.26,1.73-1.73,4.03-3.28,4.67-3.98,1.63-8.28,2.44-12.44,3.64-1.35,.39-2.64,.96-4.66,1.71,8.36,6.02,16.14,11.12,25.7,12.82,1.46,.26,2.7,1.7,4.05,2.6-1.72,1.02-3.36,2.72-5.17,2.92-3.42,.38-6.94-.14-10.43-.18-.56,0-1.13,.57-1.64,.85,1.59,6.36,1.07,6.74-5.77,7.2-3.18,.22-6.29,1.47-10.73,2.58,2.74,2.61,4.11,3.9,6.39,6.07-4.16,.68-7.38,1.21-11.95,1.96,7.89,3.43,14.41,5.96,22.13,5.73,9.52-.28,19.07,.79,28.61,1.13,1.77,.06,3.56-.56,5.33-.87-1.14-1.37-2.05-3.07-3.46-4.04-3.78-2.57-7.77-4.81-11.68-7.18,.11-.71,.23-1.42,.34-2.12,1.71-.21,3.63-1.03,5.09-.52,4.3,1.51,8.42,3.54,13.54,4.46-.58-1.38-1.07-2.81-1.76-4.13-1.16-2.2-2.68-4.24-3.6-6.53-.41-1.01-.16-2.95,.56-3.56,.67-.57,2.45-.18,3.58,.22,1.88,.67,3.64,1.7,6.7,3.18-1.38-3.19-2.12-4.93-2.87-6.67l.8-1.23c1.47,.85,3.4,1.37,4.34,2.62,3.06,4.1,5.24,8.96,8.74,12.58,3.24,3.35,7.72,5.53,11.74,8.09,.46,.3,1.5-.3,3.32-.74-3.53-5.75-6.78-11.05-10.11-16.48,5.18-3.11,8.56-.32,11.98,1.34,3.72,1.81,7.27,3.99,10.87,6.03,3.21,1.82,5.03,.71,4.6-2.77-.3-2.46-1.04-5.48-2.72-7.05-7.46-6.94-15.32-13.45-22.32-19.5-2.84,2.52-4.97,4.42-7.1,6.31-.74-2.54-1.79-5.04-2.16-7.64-.52-3.62-2.48-4.09-5.64-3.78-2.09,.2-4.27-.51-6.41-.82,.94-2.24,1.41-4.87,2.91-6.61,2.33-2.71,2.83-4.53-.35-6.87-3.18-2.34-6.05-5.09-10.51-8.91,2.91-.7,4.9-1.87,5.91-1.3,6.55,3.69,13.67,2.28,20.49,2.41,7.41,.15,14.85-1.04,22.28-1.53,2.83-.18,5.69-.03,10.11-.03-2-2.54-2.92-4.21-4.29-5.34-3.85-3.16-7.81-6.22-11.9-9.06-1.71-1.19-3.8-2.28-5.81-2.48-5.94-.57-9.86-3.63-12.12-8.91-1.22-2.84-2.58-3.96-6.12-4.16-6.36-.36-12.67-2.04-18.94-3.47-1.78-.41-3.33-1.84-6.01-3.39,6.02-3.33,10.74-6.39,16.86-6.94,6.25-.55,12.42-1.91,18.63-2.91,.09-.58,.18-1.16,.27-1.74-1.23-1.18-2.5-2.32-3.69-3.54-2.81-2.88-2.21-5.68,1.73-5.7,5.87-.04,11.75,1.1,17.62,1.81,1.69,.2,3.34,.63,5.04,.96-.07-14.41,10.12-7.33,17.76-8.67-2.53-1.52-3.85-2.49-5.32-3.16-4.66-2.1-9.66-3.61-13.96-6.26-3.7-2.28-6.9-1.58-10.4-.49-2.79,.87-5.55,1.85-8.32,2.78-.49-.44-.98-.89-1.47-1.33,.98-1.53,1.67-3.4,3-4.5,1.72-1.43,3.95-2.25,5.84-3.27-.08-.68-.01-1.07-.17-1.31-1.13-1.71-2.31-3.39-3.48-5.07,2.12-1.04,4.27-2.04,6.37-3.12,3.36-1.73,6.74-3.43,9.98-5.37,.74-.45,.91-1.84,1.35-2.79-1.01-.37-2.14-1.24-2.99-1.03-2.99,.75-5.88,1.87-9.63,3.13,.13-2.57,.23-4.44,.36-7.01-3.6,.39-7.16,.77-10.72,1.16l-.54-1.16c1.81-1.89,3.62-3.79,5.46-5.71-2.1-1.66-3.89-3.08-5.69-4.51l.36-1.69c6.48-.45,12.82-2.27,19.54-.41,3.32,.92,6.76,1.45,10.19,1.85,2.19,.26,5.35,1.86,5.63-2.4,.35-5.29-1.33-7.92-5.51-7.56-7.25,.63-10.58-5.99-16.19-8.31-.08-.03,.71-4.16,1.79-4.59,2.51-.99,5.45-1.01,8.23-1.16,1.9-.11,3.83,.22,5.74,.36,.17-.49,.34-.99,.51-1.48-1.37-.61-2.7-1.36-4.13-1.79-1.26-.38-2.76-.11-3.91-.64-1.79-.83-3.39-2.1-5.06-3.19,1.52-.95,3.03-1.93,4.58-2.85,.53-.31,1.15-.45,3.28-1.25-3.84-3.38-7.23-5.99-10.08-9.09-1.02-1.11-.73-3.42-1.03-5.18,1.75-.23,3.66-1.02,5.21-.57,3.88,1.13,7.59,2.82,11.74,4.43q-.86-7.62,7.28-13.83c-4.85-3.93-9.54-7.59-14.06-11.44-1.53-1.3-2.65-3.08-3.96-4.63,1.86-.65,3.69-1.65,5.6-1.87,2.25-.26,4.58,.3,6.87,.26,3.29-.06,5.95-.65,6.84-4.83,.6-2.79,2.79-5.25,4.67-8.56-.58-1.11-1.75-3.26-2.84-5.45-1.65-3.32-1.84-5.74,2.79-6.97,1.81-.48,3.04-3.17,4.68-5.03-3.36-2.97-8.48-3.23-7.41-9,2.48,.89,4.67,1.68,6.85,2.47,.46-.37,.92-.73,1.38-1.1-2.4-4-4.81-7.98-7.19-11.99-.56-.94-1.64-2.28-1.35-2.84,.5-.97,2.05-2.2,2.9-2.03,3.67,.73,3.62-1.63,4.09-4.02,.76-3.88,1.67-7.74,2.81-11.52,.32-1.07,1.63-1.84,2.48-2.75,.75,.93,1.67,1.78,2.22,2.83,.69,1.29,1.29,2.7,1.55,4.13,.84,4.56,2.22,8.15,8.02,5.86,.26-.1,.67,.04,.96,.17,.28,.13,.5,.41,1.2,1.02-.55,1.28-1.37,2.68-1.77,4.2-1.15,4.38-2.56,8.77-2.91,13.23-.1,1.31,2.92,3,4.67,4.29,1.69,1.25,3.59,2.21,5.39,3.3-1.56,1.74-3.11,3.5-4.71,5.21-.42,.45-1.02,.75-1.8,1.29,2.13,3.69,3.59,7.42,8.53,8.27,2.95,.51,3.4,2.79,.77,4.52-2.75,1.81-2.67,3.49-1.2,6.16,1.78,3.22-.94,8.51,5.27,9.84-1.45,2.73-2.66,5.01-3.86,7.27,4.11,3.03,7.16,2.93,9.95-1.18,2.46-3.63,4.51-3.75,8.13-1.53,4.06,2.48,8.71,3.99,13.08,5.97,1.5,.68,3.15,1.28,4.35,2.34,2.08,1.85,2.17,3.95-.86,4.84-6.37,1.88-12.84,3.43-19.22,5.28-1.75,.51-4.7,1.56-4.73,2.45-.12,3.59,.3,7.32,1.3,10.77,.48,1.66,2.91,2.66,4.05,4.25,1.29,1.8,2.14,3.92,2.82,5.95,6.07,5.57,11.66,1.16,17.57-1.04,2-.74,4.46-.26,6.7-.34-.76,1.86-1.49,3.74-2.31,5.58-.39,.87-.95,1.66-1.7,2.94,2.19,.72,4.41,.87,5.74,2.03,1.56,1.37,2.98,3.55,3.19,5.51,.1,1.01-2.42,2.9-4.04,3.35-4.58,1.28-9.31,2.01-13.99,2.96-.21,.5-.41,1-.62,1.5,6.44,4.65,12.78,9.46,19.38,13.88,2.57,1.72,5.86,2.33,8.57,3.88,1.27,.72,1.94,2.48,2.88,3.77-1.52,.76-3.07,2.21-4.56,2.14-3.11-.14-6.18-1.16-9.29-1.62-.83-.12-1.77,.47-2.64,.73,.61,2.55,1.15,4.8,1.86,7.73-3.36-.17-5.88-.76-8.2-.3-2.41,.48-4.63,1.95-6.94,2.99,1.06,1.53,2.11,3.07,3.18,4.6,.37,.52,.81,1,2.06,2.55-4.06,.34-7.25,.61-10.45,.87,3.31,4.72,15.38,9.71,22.2,9.38,9.92-.47,19.36,1.83,28.56,5.3,3.45,1.3,6.34,3.03,5.38,7.67-.12,.58,1.93,1.94,3.17,2.4,2.14,.78,4.44,1.14,6.68,1.67,.13,.69,.26,1.38,.4,2.07-3.07,1.88-5.94,4.66-9.27,5.43-4.81,1.11-5.76,4.25-5.78,7.97-.02,3.27-1.36,4.72-4.3,4.83-5.05,.18-10.11,.15-15.17,.23-.79,.01-1.87-.12-2.31,.32-3.08,3.11-6.12,6.28-8.91,9.65-.44,.54,.11,2.59,.84,3.29,3.32,3.22,6.74,6.38,10.41,9.18,.99,.76,3.47,.84,4.45,.13,4.3-3.13,5.49-3.35,7.97,1.53,2.45,4.81,6.48,7.64,11.04,6.72,5.22-1.06,10.99-3.35,14.72-6.96,6.48-6.26,16.65-7.4,23.26-.92,2.83,2.77,1.89,4.83-3.27,6.72,0,1.69-.18,3.51,.07,5.28,.14,1.02,.92,2.76,1.48,2.79,6.94,.33,2.93,3.04,1.51,5.67-1.83,3.4-3.1,7.1-5.21,12.06,3.12-1.45,4.74-2.21,6.36-2.96,.31,.24,.61,.47,.92,.71-1.13,2.03-2.25,4.06-3.5,6.31,5.64,5.21,12.83,5.96,20.31,5.63,1.99-.09,4.05-.88,5.93-.55,1.35,.24,3.16,1.65,3.47,2.86,.26,1.04-1.03,3.23-2.15,3.71-2.98,1.28-6.23,1.94-9.39,2.81-4.07,1.12-8.16,2.2-13.99,3.77,3.9,3.05,6.8,5.05,9.35,7.42,1.52,1.41,3.57,3.49,3.42,5.08-.14,1.54-2.78,2.88-4.38,4.23-1.81,1.52-3.7,2.95-5.62,4.48,3.66,3.63,6.73,6.67,9.8,9.71l-.56,.4c1.51,.63,4.01,.98,4.29,1.96,.38,1.32-.66,3.34-1.62,4.68-1.73,2.42-3.85,4.55-6.08,7.11,1.56,.74,2.95,1.39,4.34,2.05,.2,.47,.41,.94,.61,1.41l-9.9,4.65c.08,.29,.16,.58,.24,.87,2.82,0,5.66-.18,8.46,.1,1.05,.11,2.62,1.15,2.81,2.02,.2,.91-.71,2.66-1.6,3.1-3.88,1.91-6.14,6.42-11.43,6.46-1.32,0-2.61,4.31-3.91,6.63,.43,.38,.86,.76,1.29,1.14,7.81-1.25,15.61-2.49,23.42-3.74,.28,.57,.57,1.15,.85,1.72-1.2,1.49-2.41,2.98-3.77,4.66,.93,1.13,1.96,2.37,3.52,4.26h-7.87c-.19,1.69-.36,3.21-.55,4.89-2.97-.5-5.65-.96-8.33-1.41-.13,.51-.26,1.03-.38,1.54,2.61,2.36,4.59,4.86,9.38,4.31,3.45-.39,7.23,2.08,10.86,3.29,1.1,.37,2.18,.8,3.27,1.2,.16-1.01,.32-2.02,.48-3.02,.36-2.18,.71-4.37,1.09-6.55,.78-4.37,1.57-8.89,2.32-13.09,.78-4.4,2.02-8.44,3.24-12.68,.79-2.75-.53-6.11-.79-8.19,1.94-4.48,3.61-8.32,5.83-13.45,.5,3.07,.68,5.08,1.19,7.01,.42,1.59,1.22,3.07,2.26,5.57-.78,2.27-1.96,5.69-3.36,9.74,1.37-.33,2.26-.54,3.71-.89-.72,1.41-1.23,2.38-1.72,3.37-.43,.86-1.37,2.35-1.17,2.52,5.32,4.69-1.88,11.96,4.61,16.82,1.1-.33,3.19-.96,6.71-2.02-3.22,5.24-5.74,9.34-7.91,12.87,1.15,2.78,2.07,4.99,3.07,7.39,1.62-1.28,3.5-2.75,5.37-4.23,.41,.24,.81,.48,1.22,.72-1.42,3.08-2.84,6.15-4.45,9.64,6.99,.84,9.89,5.52,10.5,11.77,.47,4.84,3.84,3.43,6.82,3.35-2.21,3.63-4.25,6.97-6.66,10.93,3.14,1.04,5.4,1.8,8.79,2.92-2.48,1.57-4.26,2.69-7,4.42,2.29,1.7,4.44,3.3,6.71,4.98-4.71,2.38-3.23,5.97-.84,10.7-.78,.41-2.08,1.09-3.38,1.77l.69,1.45c2.29-.41,5.04-.18,6.77-1.39,2.91-2.04,5.19-1.86,8.25-.52,3.66,1.61,7.66,2.47,11.51,3.66-.04,.54-.08,1.07-.11,1.61-6.55,1.26-13.09,2.52-20.09,3.87,1.36,3.51,2.35,7.32,4.34,10.51,.67,1.08,3.91,1.02,5.87,.75,3.27-.44,6.47-1.45,9.7-2.22,.14,.41,.29,.83,.43,1.24-1.03,.94-2.05,1.88-3.46,3.17,1.88,.83,3.51,1.55,5.93,2.61-4.59,4.21-10.13,2.04-15.72,4.52,6.74,3.26,12.57,6.08,18.56,8.98,0,7.79-.8,8.27-8.51,6.58-4.37-.96-8.93-1.06-14.17-1.63,.88,1.59,1.31,2.34,1.93,3.46-2.06,.14-3.91,.26-5.77,.39,11.38,6.36,24.26,2.87,35.94,6.97,.21-.54,.42-1.08,.63-1.62-2.98-1.87-5.97-3.74-8.95-5.62,.23-.54,.46-1.08,.69-1.62,3.62,1.24,7.25,2.47,11.73,4-1.36-2.98-2.27-4.99-3.76-8.24,2.99,.82,4.87,1.34,7.13,1.97,.1-.89,.21-1.87,.43-3.8,5.38,4.56,7.24,12.72,16.31,13.14-1.66-3.05-3.06-5.62-4.76-8.75,6.75-1.31,10.68,4.59,16.12,5.46,2.49-4.73,.71-6.88-13.17-16.16-1.53,.96-3.09,1.93-5.25,3.29-.32-2.57-.53-4.28-.77-6.2-2.53-.42-4.99-.82-8.83-1.45,2.64-2.17,4.2-3.44,6.01-4.93-2.37-2.25-4.56-4.32-7.01-6.65,12.95,1.16,25.25,2.26,37.55,3.36,.3-.67,.59-1.34,.89-2.01-4.38-2.87-8.74-5.78-13.17-8.58-1.65-1.04-4.51-1.41-5.04-2.78-2.13-5.48-6.9-5.19-11.27-6.23-3.42-.81-6.7-2.16-10.05-3.27,.08-.72,.17-1.45,.25-2.17,7.9-.59,15.81-1.17,24.38-1.8-1.03-1.79-1.79-3.1-2.87-4.99,6.3-2.39,11.62,1.27,17.57,2.21,1.89-7.52,7.59-3.17,13.4-3.29-5.16-2.74-8.81-5.47-12.91-6.63-4.01-1.14-8.47-.67-12.95-1.91,2.02-.86,4.04-1.71,6.42-2.72-.57-1.17-1.1-2.26-1.79-3.66,4.65-1.18,9.1-2.3,13.54-3.42-.09-.54-.17-1.08-.26-1.62h-8.08v-3.58h-7.79c1.97-1.64,2.97-2.48,4.25-3.54-.86-.98-1.75-1.98-2.64-2.98,.15-.54,.29-1.08,.44-1.61,7.75,1.48,15.51,2.97,23.41,4.48,1.62-3.6,1.12-5.3-2.98-6.52-3.61-1.07-6.73-3.75-10.4-5.92,4.07-4.87,8.57-1,12.69-2.8-2.71-1.02-5.42-2.04-8.13-3.06,.03-.39,.05-.78,.08-1.17,1.45-.36,2.9-.73,5.13-1.29-1.35-1.54-2.66-2.69-3.53-4.12-.93-1.53-1.45-3.3-2.15-4.97,1.8,.18,3.68,.07,5.36,.61,2.02,.64,3.86,1.83,6.47,3.13-.9-4.98,1.92-6.45,6.14-6.65,.39-.81,.79-1.62,1.18-2.44-4.09-2.93-8.18-5.87-12.26-8.8l.55-2.02c7.08,.74,14.95,3.85,18.68-6.07-.24-1.18-.72-3.52-1.14-5.55,2.58-1.27,4.61-2.26,7.02-3.44-2.13-2.24-3.53-3.71-4.92-5.18,.21-.34,.42-.67,.63-1.01,1.54,.48,3.08,.95,5.84,1.81-1.41-4.11-2.57-7.48-3.45-10.02,1.92-1.84,3.96-3.45,5.55-5.43,1.67-2.07,2.9-4.49,4.33-6.76l1.46,.32c.51,2.3,.53,4.9,1.68,6.82,.95,1.6,3.23,2.41,4.99,3.62-1.33,2.5-3.06,5.37-4.43,8.4-2.49,5.5,4.62,3.95,5.59,7.82-1.54,.94-3.26,1.99-5.74,3.5,2.05,2.26,4.03,4.45,6.02,6.65-3.3,3.4-3.71,7.26-.82,11.73-.89,1.06-1.83,2.18-3.41,4.07,2.12,.34,3.78,.99,5.28,.74,2.14-.34,4.72-2.52,6.16-1.85,4.54,2.11,8.64,5.18,12.91,7.87-.09,.48-.19,.97-.28,1.45-4.61,.57-9.24,1.02-13.82,1.78-1.87,.31-4.62,.86-5.19,2.11-.73,1.6,.17,4.06,.7,6.06,.28,1.05,1.72,1.85,1.88,2.88,.84,5.53,4.53,4.97,8.44,4.23,2.6-.49,5.22-.89,7.83-1.32,.13,.42,.27,.84,.4,1.26-1.04,1.19-2.08,2.39-3.38,3.88,.84,.53,1.73,.88,2.33,1.51,.83,.87,1.45,1.95,2.16,2.94-1.03,.67-1.99,1.78-3.09,1.93-3.07,.4-6.19,.4-10.77,.64,3.53,3.34,5.93,6,8.72,8.14,2.78,2.14,5.96,3.76,8.97,5.61-.18,.6-.35,1.21-.53,1.81-3.15-.55-6.31-1.09-9.81-1.7-.24,1.34-.47,2.68-.72,4.09h-9.91c.74,1.96,1.22,3.2,1.88,4.94-2.14-.14-3.88-.25-5.61-.36l-.57,1.3c4.3,1.76,8.51,3.8,12.92,5.19,4.41,1.39,9.13,1.83,13.51,3.27,2.84,.93,6.88,1.11,6.59,6.1-.04,.77,2.94,1.72,5.58,3.16-2.94,1.04-4.87,1.71-6.79,2.42-1.2,.45-3.16,.72-3.43,1.52-1.68,5.04-5.97,4.92-9.41,3.98-5.73-1.55-9.14,2-14.16,4.65,4.46,1.75,5.25,8.74,11.68,5.62,.42-.2,1.52,.5,2.03,1.04,5.47,5.67,9.79,6.21,16.8,2,5.32-3.19,10.07-2.33,13.34,1.98-6.19,3.52-12.22,7.53-18.74,10.45-4.58,2.05-9.85,3.63-14.76,3.48-3.67-.11-5.65,1.11-7.53,3.36-.53,.63-.29,2.59,.33,3.37,2.05,2.59,4.56,4.45,8.03,2.38-.1-2.11-.2-4.11-.29-6.12,2.29,.95,4.58,1.89,7.4,3.05-.5-1.55-.94-2.88-1.54-4.72,11.78,2.15,23.54,.73,34.54,5.82,.2-.77,.41-1.54,.61-2.31-5.97-3.05-11.95-6.1-18.85-9.63,5.42-.4,10.17-.75,15.07-1.12-.37-1.32-.61-2.16-1.15-4.09,6.34,2.7,11.96,.87,18-.8-4.53-1.5-9.06-3.01-13.41-4.46,.38-.56,1.38-2.03,2.56-3.76,1.86-.53,4.25-1.2,6.63-1.87-4.41-1.25-7.98-2.46-8.33-8.37,3.91,.9,7.38,1.86,10.91,2.42,1.35,.21,2.84-.53,4.26-.83-.96-.91-1.84-1.93-2.91-2.69-1.8-1.29-3.73-2.43-5.28-4.76,1.86-.08,3.72-.16,6.49-.28-1.68-.99-2.76-1.63-3.83-2.27l1.19-.48c-.69-2.16-1.38-4.33-2.38-7.45,2.45,1.02,4.32,1.79,6.29,2.62,1.43-1.32,2.9-2.68,4.7-4.35-1.9-2.13-3.83-4.28-5.84-6.53,10.27-.79,11.58-1.7,10.55-7.57,1.13-.61,2.35-1.28,3.89-2.12-.9-1.26-1.62-2.27-2.69-3.77,1.26,.15,2.1,.24,3.69,.43-.66-2.2-1.23-4.12-1.59-5.32,2.06-2.52,3.92-4.8,5.81-7.12,1.53,2.25,2.94,4.33,4.54,6.69-3.4,5.17-3.38,5.47,1.32,9.07-1.01,.82-1.98,1.61-3.3,2.68,1.23,1.37,2.3,2.55,3.04,3.37-.41,1.93-.92,3.56-1.05,5.21-.13,1.63,.14,3.3,.25,5.05,2.4,.13,5.13-.01,7.74,.5,2.49,.49,4.84,1.66,7.26,2.53,.25-.49,.5-.97,.75-1.46-.57-.86-1.14-1.71-1.82-2.74,4.89-1.33,9.71-2.65,14.53-3.96-.11-.61-.21-1.22-.32-1.83-2.88,.43-5.76,.87-8.64,1.3l.25-1.23c-2.67-.62-5.33-1.24-8.15-1.89,.69-.54,1.6-1.26,2.78-2.2-1.14-.69-2.06-1.25-3.44-2.08,.92-.47,1.42-.96,1.91-.94,7.45,.21,14.9,.61,22.36,.65,1.56,0,3.14-1.28,4.7-1.98-1.57-.96-3.04-2.23-4.74-2.81-4.1-1.4-8.31-2.48-12.48-3.69,.07-.67,.13-1.34,.2-2,4.55-.36,9.1-.72,13.65-1.08,.03-.3,.07-.6,.1-.91-3.03-.52-6.05-1.05-9.08-1.57,0-.31,0-.62,0-.93,1.43-.5,2.86-1.01,4.94-1.74-2.83-2.04-5.26-3.78-8.22-5.92,5.61-4.06,10.33,1.32,15.39-.04-1.51-5.43,4.02-3.93,7.3-6.6-4.77-2.71-9.02-5.14-14.7-8.36,9.03-1.65,18.85,1.75,23.24-8.79-.32-.64-1.2-2.37-2.16-4.24,2.92-1.45,5.53-2.75,8.84-4.39-2.8-1.69-4.59-2.76-6.38-3.84,.17-.46,.35-.92,.52-1.37,1.96,.32,3.92,.63,7.62,1.23-2.28-3.77-3.98-6.57-5.98-9.88,6.99,.86,7.67-5.69,10.84-9.65,1.41-1.77,2.9-3.8,4.83-.47q3.19,5.52,8.84,6.33c-2.32,3.36-4.67,6.76-7.68,11.11,3.9,1.16,6.75,2.01,10.85,3.23-3.16,1.76-5.33,2.97-8.59,4.79,3.27,1.82,5.95,3.32,8.93,4.98-1.16,.75-2.44,1.58-4.14,2.69,.65,2.51,1.34,5.15,2.03,7.79,.6,.21,1.2,.42,1.8,.63-1.49,.73-2.98,1.45-4.48,2.18,.34,.68,.69,1.36,1.03,2.05,2.93-.84,5.82-1.82,8.79-2.49,2.09-.47,4.37-.99,6.41-.63,3.75,.65,7.4,1.89,11.06,2.98,1.48,.44,2.9,1.1,4.34,1.66l-.09,1.32c-5.91,1.14-11.82,2.3-17.75,3.39-1.47,.27-3.22-.14-4.41,.52-1.42,.8-2.81,2.26-3.36,3.76-.31,.84,1.08,2.34,1.78,3.49,4.81,8.02,11.67,5.76,18.55,3.76,1.87-.54,3.89-.59,5.83-.86,.09,.39,.19,.78,.28,1.18-1.28,.97-2.55,1.94-4.32,3.28,2.48,.87,4.49,1.58,7.52,2.65-5.62,4.6-11.93,2.55-17.58,5.91,7.15,2.88,14.3,5.75,21.82,8.77-3.95,3.33-8.53-.64-12.9,1.01-1.71,7.89-9.76,.39-13.34,5.32l2.16,2.72c-2.52,.15-4.71,.28-7.32,.43,4.13,2.49,36.52,6.87,43.73,5.74-4.31-2.5-7.76-4.5-11.21-6.5l.67-1.73c4.18,1.3,8.36,2.59,13.64,4.23-1.68-3.07-2.86-5.22-4.86-8.88,3.68,.94,6.01,1.53,8.77,2.24-.13-1.08-.26-2.1-.38-3.13l1.02-.99c2.51,2.86,4.75,6.04,7.62,8.48,2.87,2.45,6.38,4.15,9.61,6.18,.46-.5,.91-1.01,1.37-1.51-1.77-2.72-3.53-5.43-5.3-8.15,.18-.41,.35-.83,.53-1.24,2.08,.42,4.26,.59,6.22,1.33,2.95,1.12,5.68,2.82,8.63,3.91,1.32,.49,2.96,.09,4.45,.09-.4-1.65-.29-3.78-1.3-4.84-2.27-2.39-5.01-4.36-7.72-6.29-2.56-1.82-5.32-3.36-7.99-5.03-1.92,1.08-3.87,2.17-6.98,3.92,2.02-9.69-4.66-6.97-10.11-8.11,2.52-2.31,4.13-3.79,6.19-5.68-2.66-2.2-5.32-4.41-8.25-6.84,15.05,1.03,29.36,2,43.68,2.98l.86-2.07c-5.06-2.99-9.9-6.5-15.26-8.8-3.6-1.54-7.1-2.42-9-6.32-.49-1-2.23-1.65-3.52-1.95-4.68-1.12-9.44-1.94-14.12-3.06-1.66-.4-3.19-1.33-4.78-2.02,.05-.63,.09-1.26,.14-1.89,9.32-.74,18.63-1.48,28.63-2.27-1.67-2.11-2.74-3.46-4.27-5.39,7.74-2.33,14.18,1.26,20.9,2.36,2.61-8.6,8.95-2.98,14.94-3.93-10.13-4.85-18.77-10.45-30.07-6.46,0-.69,0-1.38,0-2.07,2.41-.98,4.83-1.97,7.67-3.12-.8-1.15-1.57-2.25-2.6-3.74,5.48-1.36,10.61-2.63,15.73-3.9l-.28-2.2c-3.16,.2-6.31,.39-9.86,.61,.11-1.42,.2-2.57,.32-4.16h-9.22c2.38-1.56,3.65-2.39,5.36-3.51-1.38-1.05-2.47-1.88-4.22-3.21,.81-.38,1.25-.79,1.66-.75,5.09,.44,10.18,.83,15.24,1.49,2.78,.36,5.48,1.5,8.25,1.73,1.33,.11,2.77-1.09,4.16-1.7-1.13-1.5-1.95-3.57-3.45-4.39-4.32-2.34-8.92-4.17-14.51-6.7,5.92-4.31,10.88-1.54,15.75-2.92-3.29-1.16-6.58-2.32-9.87-3.48l.18-1.21c1.66-.39,3.33-.78,5.58-1.31-2.67-2.92-5.15-5.65-8.02-8.8,6.19-4.05,10.01,2.76,14.93,2.2q0-3.6,7.26-7.55c-4.33-3.86-8.43-7.52-12.95-11.55,4.47-2.4,8.79,1.22,12.46-.03,3.55-1.21,6.47-4.28,9.56-6.45-.82-2.67-1.57-5.1-2.21-7.14l7.64-3.85c.1-.51,.21-1.02,.31-1.53-2.22-1.13-4.43-2.27-6.65-3.4,.6-.68,1.2-1.36,1.8-2.04,1.73,.63,3.46,1.26,5.19,1.88,.38-.24,.76-.47,1.14-.71-1.58-3.54-3.15-7.08-4.96-11.14,7.17,1.43,6.74-5.32,9.63-8.72,.88-1.04,2.1-1.8,3.16-2.68,.65,1.06,1.8,2.1,1.87,3.2,.29,4.75,1.82,7.99,7.46,6.93-1.92,3.63-4.02,6.73-5.25,10.14-2.22,6.16,5.32,3.88,6.95,7.93-1.85,1.1-3.82,2.27-6.69,3.99,2.52,2.35,4.91,4.58,7.61,7.1-.88,.69-2.11,1.64-3.69,2.87,.61,3.03,1.25,6.23,2.08,10.37-.25,.29-1.28,1.5-2.55,2.99,2.92,2.24,5.47,1.81,8.31,.15,1.39-.81,3.97-1.74,4.74-1.1,4.52,3.8,9.19,1.62,13.16-.03,4.25-1.76,7.77-5.26,11.23-8.87-2.39,.35-4.78,.7-8.41,1.24,1.82-2.48,2.85-3.87,3.99-5.42-3.62-5.15-7.93-.16-12.33-1.04,.22-1.71,.45-3.39,.81-6.19-3.13,1.16-5.75,2.37-8.49,3.04-1.34,.33-2.93-.34-4.41-.55,.75-1.1,1.31-2.44,2.29-3.28,6.88-5.85,13.85-11.6,20.78-17.38-.28-.49-.57-.98-.85-1.47-3.17,0-6.37,.23-9.51-.09-1.89-.19-3.7-1.22-5.54-1.87,1.19-1.81,2.26-3.71,3.62-5.38,.66-.82,1.85-1.21,3.1-1.98-1.56-1.83-2.9-3.4-4.36-5.12,3.12-3.72,6.68-1.85,9.81-1.19,6.1,1.28,9.01-.22,10.99-6,.52-1.52,1.77-2.8,2.74-4.14q4.07-5.6,2.08-12.35h-21.66c-.28-.58-.56-1.15-.84-1.73,1.45-1.52,2.75-3.22,4.38-4.51,4.03-3.19,8.1-6.38,12.42-9.16,1.16-.75,3.81-.69,4.85,.15,3.51,2.82,6.31,2.06,9.43-.82-1.23-1.63-2.39-3.16-2.75-3.63,1.44-5.42,2.62-9.84,3.81-14.29-1.57-1.14-2.85-2.08-4.14-3.02,3.25-3.75,6.35-7.32,9.95-11.48-2.47-.84-3.74-1.12-4.87-1.68-2.97-1.47-2.92-3.37-.45-5.28,8.71-6.74,9.05-9.16,2.48-18.21-.47-.64-.7-1.46-1-2.08,.33-.47,.5-.95,.71-.97,5.96-.44,7.98-4.13,8.17-9.55,.05-1.28,.55-2.61,1.12-3.79,.38-.8,1.34-1.99,1.86-1.9,.93,.16,2.17,.97,2.5,1.81,1.5,3.8,2.73,7.72,4.16,11.9,.69-.08,1.45-.23,2.21-.25,1.05-.02,2.1,.05,3.15,.09-.27,1.16-.35,2.41-.84,3.46-1.89,4.06-3.91,8.06-5.89,12.08,.44,.32,.88,.63,1.32,.95,1.94-1.17,3.87-2.34,5.81-3.5l1.14,1.01c-1.22,1.72-2.52,3.4-3.65,5.18-.84,1.32-1.48,2.78-2.21,4.17,1.6,.79,3.18,1.61,4.8,2.35,.43,.2,.96,.17,2.55,.42-1.17,3.67-2.27,7.14-3.25,10.23,1.72,2.33,3.17,5.02,5.31,6.94,1.28,1.14,3.71,1.6,5.5,1.39,2.58-.3,5.03-1.64,7.6-2.25,1.37-.33,2.88-.06,5.44-.06-6.05,6.7-11.28,12.5-16.68,18.47q8.06,4.2,6.51,10.3c4.19-2.53,7.49-4.79,11.04-6.56,1.48-.74,3.48-.46,5.25-.64-.39,1.58-.39,3.45-1.26,4.7-2.25,3.21-4.89,6.14-7.79,9.7,2.6,.18,4.47,.31,6.92,.48-1.76,6.49-9.56,4.35-12.68,9.7,4.69-.92,8.44-1.86,12.26-2.28,1.31-.14,2.76,1.04,4.15,1.61-.73,1.19-1.19,2.84-2.25,3.48-4.84,2.9-7.85,8.4-14.32,9.28-1.57,.21-2.55,4.74-3.17,7.83,11.5-.88,20.8-8.62,33.31-7.15-2.03,2.22-3.48,3.8-5.18,5.65,1.54,1.11,3.05,2.19,5.85,4.2-4.55,.66-7.78,1.13-11.28,1.63,.23,1.63,.42,3.03,.76,5.49h-11.78l-.46,2.33c3.59,1.05,7.15,2.2,10.77,3.12,1.99,.51,4.07,.64,6.11,.95-.86,1.81-1.72,3.61-2.86,6.01,1.89,.53,3.92,.92,5.8,1.69,.92,.38,1.56,1.46,2.32,2.22-.84,.61-1.61,1.41-2.54,1.76-.9,.33-2.06,.47-2.96,.21-12.23-3.57-18.4,7.9-27.85,11.19-.12,.04-.06,.59-.1,1.11,5.03,.41,11.89-7.04,15.26,3.55,7.28-1.46,14.26-7.17,23.97-5.1-2.15,2.84-3.73,4.93-5.31,7.02l.34,1.52h31.82c.17,.65,.34,1.3,.51,1.95-1.3,1.01-2.46,2.4-3.93,2.95-6.2,2.31-12.55,4.24-18.73,6.6-1.9,.73-4.21,2-5.02,3.66-2.3,4.67-5.71,7.36-10.62,8.99-7.77,2.59-12.01,9.68-18.01,14.88,16.97-2.32,34.09-.7,50.05-7.88,.24,.64,.48,1.28,.72,1.92-3.54,3.31-7.08,6.63-11.05,10.34,1.5,1.16,2.77,1.89,3.69,2.93,.89,1.01,2.15,2.52,1.9,3.47-.24,.94-2.07,1.74-3.34,2.1-1.41,.39-3.41-.36-4.37,.39-1.44,1.13-2.29,3.08-3.24,4.77-.81,1.43-1.4,2.98-2.09,4.47-1.33-1-2.67-1.99-3.99-3.01-.38-.29-.7-.65-1.55-1.47-6.78,6.05-13.7,11.92-20.17,18.25-1.23,1.2-.7,4.19-.98,6.35,1.79-.35,3.77-.32,5.32-1.11,3.83-1.97,7.39-4.46,11.22-6.44,1.62-.84,3.64-.92,5.48-1.34,.35,.4,.7,.81,1.06,1.21-2.56,4.01-5.11,8.02-7.67,12.02,6.19,.02,9.91-3.45,13.86-7.16,3.75-3.53,4.13-10.26,11.31-11.79-.9,2.08-1.45,3.34-2.38,5.49,3.52-1.38,6.32-2.48,9.12-3.58,.39,.39,.78,.78,1.18,1.17-1.75,3.34-3.5,6.68-5.5,10.51,6.42,.23,10.54-6.7,17.34-3.44-4.62,2.96-9.24,5.92-14.29,9.15,1.13,.79,1.93,1.72,2.33,1.57,16.28-5.92,34.8-1.73,50.31-11.62h-8.91l-.64-1.1c1.3-.88,2.6-1.76,4.12-2.79-4.61-5.08-10.42-.97-15.41-2.75,.11-1.48,.21-2.87,.34-4.63-5.47,.38-10.81,.74-16.15,1.11-.06-.51-.11-1.03-.17-1.54,9.3-4.66,18.61-9.32,27.91-13.98-.1-.59-.19-1.17-.29-1.76-1.77-.3-3.52-.68-5.3-.87-3.81-.39-7.65-.53-11.42-1.12-1-.16-2.44-1.55-2.5-2.46-.07-.93,1.11-2.35,2.1-2.86,1.7-.87,3.68-1.2,6.25-1.97-2.16-1.88-3.83-3.33-5.74-5,4-3.56,7.75-.39,11.4-.22,4.77,.22,9.52,.83,14.28,1.28l-.51-2.1c1.69-2.05,3.15-4.39,5.15-6.09,2.28-1.95,3.99-3.43,3.08-7.03-1.05-4.14-4.03-3.71-6.87-4.07-7.16-.91-14.33-1.78-21.48-2.74-.55-.07-1.03-.71-2.62-1.86,2.48-1.34,4.27-2.5,6.2-3.32,5.04-2.13,10.05-4.41,15.26-6,1.94-.59,4.82-.07,6.57,1.05,3.84,2.45,7.36,3.33,11.68,.66-1.59-1.7-2.91-3.1-3.45-3.67,1.65-4.62,3.04-8.51,4.49-12.59-1.94-1.15-3.6-2.14-5.6-3.32,4.08-2.78,7.89-5.38,12.75-8.7-3.47-1.43-5.48-2.08-7.29-3.09-.87-.49-1.9-1.71-1.83-2.52,.06-.76,1.43-1.46,2.31-2.07,.38-.26,.97-.2,1.45-.32,7.71-2.01,9.23-8.11,3.51-14.03-1.33-1.38-2.57-2.85-3.93-4.37,.83-.65,1.28-1.27,1.57-1.2,6.89,1.61,9.42-2.12,10.53-8.14,.27-1.49,1.88-2.73,2.87-4.08,1.33,1.24,3.06,2.25,3.9,3.76,1.51,2.7,2.25,5.83,3.78,8.51,.73,1.27,2.44,2.19,3.9,2.77,1.46,.59,3.16,.56,4.63,.78-3.12,4.83-5.85,9.05-8.58,13.27,.38,.4,.77,.79,1.15,1.19l8.01-2.34c.34,.57,.67,1.14,1.01,1.71-2.38,1.82-4.76,3.63-7.6,5.8,.3,4.84,5.12,3.73,9.56,5.19-1.51,3.34-2.91,6.42-4,8.83,2.19,2.5,3.97,5.25,6.43,7.11,1.86,1.42,4.55,2.24,6.92,2.39,3.26,.19,6.57-.64,9.87-.76,1.42-.05,2.87,.57,5.42,1.13-7.11,4.77-13.15,8.83-19.18,12.88,1.99,4.39,12.32,.83,6.72,10.81,4.57-1.48,7.91-2.72,11.33-3.61,3.12-.82,6.58-3.52,9.66,1.45-3.72,2.9-7.44,5.82-11.81,9.23,2.85,.61,5.08,1.08,7.31,1.56l.32,1.65c-4.49,1.17-8.98,2.33-13.47,3.5,6.21,1.92,12.84-1.36,19.87,4.23-7.17,2.56-12.96,5.33-19.07,6.57-4.46,.9-6.19,2.42-5.46,7.48,12.34,.53,24.48-5.38,38.29-1.88-2.68,1.56-4.36,2.53-6.54,3.79,2.01,1.19,3.64,2.15,6.58,3.88h-12.34c.13,1.6,.23,2.83,.37,4.5-4.64-.44-8.95-.85-13.26-1.26l-.42,2.44c6.39,1.64,12.78,3.28,19.6,5.04-.8,.93-1.34,1.65-1.98,2.27-.55,.54-1.2,.97-1.95,1.56,4.24,3.68,7.32,.92,10.31-1.26,2.41-1.76,4.39-4.13,7.65-1.18,.76,.69,2.69,.1,3.78,.1v-16.33c.92-1.03,2.74-3.06,4.74-5.31-1.84-1.25-3.13-2.13-5.16-3.51,7.65-3.94,8.15-8.98,1.6-15.31,7.9,.33,5.4-6.61,8.46-9.4,4.84,1.48,1.43,10.1,8.62,8.82-1.52,3.47-2.86,6.54-4.71,10.77,2.57-.96,3.79-1.42,5.01-1.88,.22,.27,.45,.55,.67,.82-1.22,1.38-2.44,2.76-4.24,4.78,1.65,1.11,3.24,2.17,5.39,3.62-.51,1.55-1.16,3.52-1.81,5.5,2.68,3.73,5.46,7.31,10.95,5.36v5c-1.76,1.91-3.52,3.81-5.66,6.13,2.58,.85,4.12,1.36,5.66,1.87v137h-575c-.21-.7-.43-1.4-.87-2.83,1.94,.75,3.16,1.22,4.38,1.69l.57-1.09c-1.24-.63-2.8-2.06-3.65-1.72-2.3,.91-4.31,2.58-6.43,3.95h-43c-3.38-7.36-13.59-11.84-20.51-8.49,1.68,1.16,3.49,1.88,4.47,3.22,1.08,1.47,1.39,3.5,2.04,5.28h-133c2.58-4.23-1.17-6.38-3.52-7.81-1.5-.91-4.61,.56-6.9,1.3-2,.64-3.85,1.75-5.76,2.65-.25-.38-.51-.77-.76-1.15-3.53,4.94-8.86,3.13-13.59,3.7-1.52,.18-2.98,.87-4.47,1.32H438c-.55-1.45-1.11-2.9-1.65-4.32-4.13,.6-8.49,6.99-10.95-2.24-5.04,2.3-9.72,4.43-14.4,6.56h-4c-4.63-7.98-4.57-7.86-13.11-4.08-1.93,.85-4.36,.55-7.3,.86,1.36-3.03,2.14-4.77,3.33-7.42-2.95,0-5.23-.27-7.41,.06-3.93,.6-7.79,1.75-11.72,2.28-1.21,.17-2.58-.91-3.88-1.41,.76-1.13,1.29-2.58,2.33-3.31,2.03-1.43,4.38-2.39,6.54-3.65,3.45-2.01,6.85-4.11,10.27-6.17-.25-.47-.51-.93-.76-1.4-2.2,.98-4.34,2.12-6.61,2.88-2.95,.99-5.99,1.7-9.01,2.49-3.62,.94-7.4,1.45-10.84,2.84-4.22,1.71-8.13,3.52-12.9,1.79-1.59-.58-3.91-.02-5.6,.71-5.79,2.49-6.7,2.26-8.93-2.98-8.84-3.64-14.26,4.47-22.23,5.41,1.23-1.78,2.46-3.57,3.66-5.31-10.24,.46-20.1,.9-29.97,1.35l-.3-1.93c3.35-1.2,6.84-2.11,9.97-3.73,1.54-.8,2.81-2.77,3.39-4.48,.24-.72-1.58-3.03-2.54-3.08-2.02-.1-4.96,.12-6,1.42-5.6,7.06-5.53,7.19-11.06,.38-1.64,6.18-4.27-.32-6.44,.7q-5.61,4.25-8.65-5.43c-1.47,1.41-2.53,2.9-3.97,3.69-1.42,.78-4,1.75-4.74,1.1-4.81-4.18-8.93-1.45-13.13,.8-3.32,1.78-4.77,.34-5.86-2.77-.6-1.72-1.77-4.32-2.98-4.5-1.94-.28-4.13,1.12-6.82,2.01,1.34,1.6,1.86,2.04,2.15,2.61,.81,1.59,1.51,3.23,2.26,4.85-1.83,.28-3.66,.79-5.48,.76-1.26-.02-2.48-.97-3.78-1.21-2.93-.54-5.89-.89-9.6-1.42,.6,3.24,.94,5.13,1.3,7.05-2.54,2.73-4.63,1.22-6.82-.58-3.76-3.08-5.91-2.55-8.31,1.84-1.51,2.77-3.42,3.86-6.48,1.95-3.18-1.98-6.53-3.66-9.81-5.47-1.45,2.61-2.83,4.52-4.17,4.5-1.68-.03-3.32-1.67-4.98-2.62-4.11,7.52-4.29,7.53-10.94,.53-1.87,1.53-3.74,3.1-5.66,4.62-2.78,2.2-5.06,2.03-6.91-1.3-1.25-2.25-2.82-4.33-4.25-6.48-.55-.04-1.09-.08-1.64-.13-.9,2.78-2.4,5.57-2.37,8.35,0,1.02,3.6,2.07,5.62,2.98,1.29,.58,2.68,.93,4.03,1.38l-.16,.94h-25.38c.38,.78,.95,1.95,1.53,3.13-.25,.33-.5,.66-.75,.99-2.37-1.3-4.61-3.14-7.15-3.76-3.37-.82-8.58-2.24-10.13-.64-2.98,3.08-4.98,2.73-8.14,1.41-1.42-.59-3.22-.22-4.83-.4-3.21-.37-6.46-.6-9.59-1.31-6.91-1.57-13.76-3.4-20.64-5.12-.13,.23-.26,.46-.39,.69,4.5,2.55,9,5.11,13.51,7.66-.13,.65-.25,1.3-.38,1.96-5.92-.63-11.84-1.27-18.24-1.95,.4,2.26,.65,3.68,.9,5.1H1c0-37,0-74,0-111,4-.88,8-1.77,11.65-2.57-3.59-1.06-7.62-2.24-11.65-3.43,0-6,0-12,0-18Zm765.27-22.68c3.81,2.8,7.55,5.71,11.5,8.29,.72,.47,2.66-.04,3.47-.75,3.79-3.34,6.25-2.17,8.88,1.63,1.12,1.62,3.57,3,5.55,3.22,7.61,.85,13.63-3.1,20.09-6.58,7.6-4.09,11.35-9.69,11.77-18,.11-2.25,1.33-5.2,.33-6.6-2.82-3.95-6.53-7.27-10.39-11.37-2.96,2.98-5.58,5.41-7.94,8.07-1.38,1.56-2.01,4.09-3.64,4.99-.84,.46-3.12-1.7-5.35-3.03,.11,8.89-6.76,8.54-12.48,9.53-2.72,.47-5.55,.17-8.32,.41-1.21,.1-2.65,.35-3.52,1.08-3.23,2.73-6.27,5.7-9.95,9.1Zm964.68,51.42c-3.18,4.4-5.11,3.21-7.9-.38-1.67-2.14-5.64-3.93-8.25-3.57-3.69,.51-8.3,8.99-7.46,11.65,1.6,5.08,2.14,10.61,9.47,11.58,4.94,.65,9.56,3.64,14.51,4.47,2.97,.5,7.3-.12,9.25-2.04,3.41-3.35,6.1-5.43,10.58-2.39,.42,.28,1.41,.16,1.89-.15,3.66-2.36,7.25-4.82,11.18-7.47-2.76-1.44-5.13-2.28-7.02-3.74-2.68-2.07-5.31-1.99-8.58-2.09-6.14-.19-14.01,3.43-17.66-5.87Zm-1385.17-33c3.56,1.64,6.4,3.6,9.51,4.25,6.03,1.24,12.59,3.36,18.23,2.07,4.95-1.13,8.5-5.84,15.23-4.28,3.08,.71,7.49-4.32,11.58-6.93-2.74-1.38-5.01-2.12-6.76-3.51-2.68-2.12-5.35-1.86-8.57-2-5.91-.25-13.63,3.56-17.23-5.6-3.08,4.2-5.24,3.74-7.76-.47-2.7-4.51-7.29-4.46-11.1-.96-4.13,3.79-6.85,7.68-3.71,13.46,.65,1.2,.45,2.87,.6,3.98Zm665.82-120.16c-2.43,1.35-5.45,2.06-6.77,3.95-3.03,4.33-6.64,6.59-11.93,6.6-1,0-2.49,1.29-2.91,2.33-2.3,5.73-6.78,6.29-11.57,4.53-7.12-2.63-7.55,3.69-9.6,7.12-.94,1.58-.12,5.07,1.11,6.86,1.62,2.37,4.17,4.62,6.81,5.6,2.12,.78,4.97-.41,7.49-.73-.29-1.83-.35-3.73-.92-5.47-.51-1.54-1.95-2.8-2.31-4.34-.33-1.44,.22-3.09,.39-4.64,1.44,.28,3.11,.2,4.27,.92,2.24,1.4,4.13,3.35,6.31,4.86,.62,.43,1.76,.13,2.65,.16-.13-.87-.02-1.89-.45-2.58-.84-1.38-2.21-2.46-2.89-3.9-.47-1-.63-3.04-.09-3.43,.93-.67,2.68-.83,3.81-.43,1.82,.64,3.35,2.04,5.12,2.87,1.1,.52,2.6,1.07,3.58,.7,.68-.25,.73-2.07,1.13-3.16,.47-1.3,.65-3.11,1.6-3.77,6.98-4.89,7.03-4.82,5.16-14.06Zm469.61,204.22c-1.21-.93-1.91-1.37-2.5-1.92-6.1-5.63-6.1-5.51-13.01-.11-1.39,1.08-3.82,.82-5.77,1.18-2.53,1.06-5.09,2.4-7.76,2.67-6.98,.69-14.35-.47-20.34,5.41,4.42,1.44,7.52,6.54,13.16,3.38,.78-.44,2.61,.78,3.85,1.42,1.15,.59,2.08,1.86,3.26,2.12,8.67,1.86,16.27-2.32,23.88-5.17,2.4-.9,3.38-5.59,5.24-8.96ZM71.22,985.26c3.98,1.65,7.06,6.16,12.46,3.17,.74-.41,2.47,1.01,3.75,1.57,1.6,.69,3.25,2.02,4.8,1.92,4.27-.26,8.64-.64,12.71-1.85,6.42-1.91,12.84-4.31,13.75-12.62-6.72-6.57-6.64-6.46-14.49-1.04-1.34,.92-3.64,.44-5.5,.61-2.27,1.21-4.69,2.56-7.22,2.81-6.97,.69-14.25-.3-20.26,5.42Zm1613.14-2.75c-.72,.64-1.34,.98-1.68,1.51-1.89,2.92-3.81,5.84-5.55,8.85-2.87,5-1.96,7.53,3.71,8.67,1.8,.36,4.03-1.35,6.05-2.13,1.74-.66,3.5-1.87,5.19-1.78,.77,.04,2.11,2.68,1.98,4.03-.33,3.69,1.36,5.26,4.65,5.55,2.71,.24,5.71,.96,8.07,.09,1.65-.6,2.97-3.43,3.35-5.47,.13-.73-2.8-2.51-4.56-3-2.74-.76-5.67-.84-8.52-1.21-.11-.45-.21-.9-.32-1.35,1.26-.77,2.48-1.63,3.79-2.29,1.39-.71,2.87-1.24,5.12-2.19-2.91-3.32-5.23-5.97-7.5-8.56q-6.82,5.01-13.79-.74Zm-1343.13-39.7c-.97-1.64-1.55-2.83-2.32-3.89-2.3-3.16-4.47-6.07-8.33-1.31-1.76,2.17-4.31,2.1-6.14-.71-.76-1.17-1.88-2.12-3.45-3.86-3.71,5.57-7.03,10.55-10.29,15.42,6.39,5.54,7.27,5.5,12.89,1.18,1.16-.89,3.14-1.5,4.44-1.15,.89,.24,1.86,2.42,1.77,3.66-.23,3.09,.42,5.28,3.81,5.64,2.73,.29,5.73,1.01,8.16,.2,1.78-.59,2.83-3.36,4.2-5.16-1.84-1.19-3.54-2.83-5.56-3.47-2.33-.74-4.93-.6-7.42-.85l-.3-1.62c2.66-1.28,5.33-2.56,8.51-4.08Zm2.43,97.61c-7.35,1.13-14.73,3.5-21.91,3.01-6.85-.47-13.5-3.91-20.67-6.18,.63,3.52,1.56,6.98,1.78,10.48,.26,4.09,2.42,4.28,5.68,3.96,3.6-.35,7.25-.22,10.87-.14,6.73,.14,13.47,.6,20.19,.5,2.41-.04,4.8-1.3,8.09-2.27-3.84-.97-6.47-1.63-9.11-2.29,1.64-2.28,3.27-4.56,5.06-7.06Zm494.33-129.71c-.88,1.09-2.12,2.42-3.09,3.92-1.08,1.66-2.1,3.41-2.77,5.26-.45,1.24-.82,3.25-.18,3.95,.79,.86,2.69,.66,4.08,1.03,1.82,.48,4.23,.51,5.3,1.71,4.03,4.5,11.67,3.87,13.69-1.68,1.25-3.43,2.72-4.59,5.74-1.99,1.95-4.39-2.1-12.62-7.27-15.47-2.07,2.63-3.72,6.65-6.35,7.45-2.21,.68-5.57-2.39-9.16-4.17Zm-188.19-4.82c9.14-5.79,17.65-1.83,25.51-2.41,1.19-11.3,10.55-6,17-8.54-6.44-2.01-11.89-3.25-16.94-5.43-3.89-1.67-6.97-.51-10.43,.72-4.14,1.47-8.44,2.47-12.59,3.93-1.28,.45-3.16,1.64-3.24,2.63-.23,2.67,.35,5.41,.7,9.09Zm1208.88,56.59c-.57-.18-.41-.07-.26-.09,8.65-.84,17.11-4.19,26.07-1.79,.74,.2,2.97-2.85,3.4-4.65,.26-1.09-1.43-3.73-2.52-3.9-6.65-1.04-13.53-2.81-20.03-1.98-8.18,1.04-16.08,4.34-24.09,6.7-.13,.04-.12,.58-.21,1.12,5.64,.78,12.89-4.44,17.64,4.59Zm-1362.87-50.37c8.28-.5,16.84-4.44,26.01-1.94,.7,.19,2.7-3.48,3.54-5.59,.14-.36-2.46-2.45-3.97-2.71-4.85-.83-9.78-1.41-14.7-1.63-3.39-.16-6.91,0-10.19,.79-4.97,1.2-9.79,3.05-14.67,4.65-1.29,.42-2.54,.95-3.81,1.42,5.83,1.76,13.1-3.77,17.79,5.01Zm1005.35,116.06c-3.88,1.24-7.05,3.43-9.39,2.76-5.68-1.63-6.53-1.79-9.95,4.05,1.98,.97,3.95,1.94,6.5,3.18-4.98,1.25-8.92,2.23-12.86,3.22-.04,.84-.08,1.69-.13,2.53,2.21,.89,4.54,2.72,6.6,2.46,3.18-.4,7.52,.24,8.24-5.18,.43-3.24,3.35-3.83,5.67-1.78,4.39,3.88,7.76,1.79,11.75-1.35-2.33-3.59-4.55-7.01-6.42-9.9ZM112.98,992.83l-.49,2.57c2,.9,4.19,2.8,5.95,2.47,3-.57,7.31,.57,8.4-4.38,.69-3.12,3.1-4.91,5.83-2.51,4.58,4.02,7.77,1.36,11.73-1.46-2.15-3.53-4.16-6.83-5.87-9.63-3.49,1.29-7.4,3.89-8.59,2.97-6.01-4.61-7.6,.96-11.12,3.68,2.43,1.13,4.31,2,7.21,3.35-5.27,1.19-9.16,2.07-13.06,2.95Zm472.96,67.38c.11-1.54,.4-3.1,.26-4.61-.11-1.17-.75-2.29-1.15-3.44-1.25,.54-2.87,.77-3.67,1.7-1.15,1.34-1.56,3.28-2.55,4.8-1.93,2.97-.93,4.31,2.19,5.41,6.38,2.26,12.56,3.33,18.44-1.8,.61,1.97,.97,3.14,1.35,4.37,4.91-2.46,4.29-9.21-.91-14.71-1.48,1.41-3.38,4.28-4.36,3.99-4.63-1.37-6.83,1.18-9.6,4.28Zm8.49-84.75c-1.28,.98-3.06,2.34-5.02,3.84,1.48,1.57,2.65,2.81,4.46,4.73-2.02,.43-3.35,.42-4.36,.99-1.48,.83-3.86,2.12-3.81,3.12,.06,1.46,1.81,3.94,3.06,4.09,7.21,.87,14.48,1.18,21.73,1.68,.27-.54,.55-1.08,.82-1.61-5.5-5.49-11.01-10.98-16.89-16.84Zm-498.09,86.3l-.07,1.04c2.21,.4,4.42,1.13,6.63,1.14,8.94,.04,17.89-.09,26.83-.29,1.02-.02,2.52-.58,2.96-1.36,1.58-2.79,2.8-5.79,4.56-9.59-12.77,4.83-24.84,6.77-37.33,3.62,1.1,1.24,2.21,2.49,4.16,4.69-3.45,.33-5.59,.53-7.73,.74Zm733.48-51.12c.53-4.02,1-7.68,1.55-11.84-1.05-.15-2.53-.86-3.44-.41-2.65,1.3-4.45,1.91-5.58-1.84-.25-.82-3.14-.84-4.82-1.23,1.28,3.25,3.24,4.94,4.25,7.09,.99,2.09,2.12,5.26,1.23,6.84-1.79,3.16-4.64,1.45-7.3-.03-5.38-2.99-10.97-5.6-16.47-8.36-.38,.48-.75,.95-1.13,1.43,1.5,1.87,2.99,3.73,4.49,5.6,.35-.51,.7-1.02,1.05-1.54,1.79,.67,4.1,.85,5.27,2.1,8.48,8.99,9.75,7.06,20.9,2.19Zm-225.43,18.67c2.32-5.16-.29-10.47-5.09-11.54-1.23-.27-2.16-1.7-3.37-2.3-1.59-.79-3.78-2.24-4.89-1.7-2.18,1.05-4.84,3-5.41,5.09-1.12,4.16,5.31,12.95,10.66,14.97-.73-2.29-1.32-4.08-1.87-5.88-.52-1.7-.99-3.41-1.48-5.11,.44-.31,.88-.62,1.32-.92,3.36,2.45,6.71,4.9,10.12,7.39Zm-23.75-40.8c-13.1,8.38-15.62,11.13-14.1,15.72,4.6-2.14,9.19-4.27,13.77-6.4,.28,.43,.57,.85,.85,1.28-1.59,2.47-3.17,4.93-4.76,7.4,.49,.49,.98,.97,1.47,1.46,3.09-2.65,6.26-5.22,9.19-8.04,.41-.39-.07-2.16-.6-3-1.76-2.78-3.73-5.42-5.83-8.43Zm789.57,26.23c-.03-.51,.01-.79-.06-.83-10.76-5.08-21.92-3.01-32.99-1.64-.82,.1-2.03,2.28-1.88,3.32,.13,.88,1.93,2.07,3.06,2.14,2.62,.18,5.27-.28,7.92-.4,4.86-.21,10.15,3.18,14.46-2.12,.72-.88,3.17-.4,4.83-.47,1.55-.06,3.1-.01,4.67-.01Zm326.9,30.14c-.86,2.4,.85,4.27,3.89,5.25,2.82,.91,5.73,1.53,8.57,2.39,8.97,2.75,12.6,1.89,17.05-4.2-4.63-1.4-8.51,6.67-13.89,.71,1.97-2.55,3.91-5.06,6.33-8.19-7.4,1.36-14.07,2.59-21.96,4.04Zm-1366.66-50.16c-1.15,2.2,.47,4.13,3.58,5.17,2.65,.88,5.43,1.37,8.1,2.19,8.91,2.72,13.33,1.6,17.53-4.35-4.57-1.19-8.14,6.31-14.03,1.34,2.13-2.72,4.14-5.28,6.56-8.38-7.4,1.37-14.09,2.61-21.73,4.03Zm450.99-19.51c7.46,.21,8.92-2.03,6.2-7.16-.53-.99-1.38-2.32-1.09-3.14,1.17-3.29-1.12-4.66-3.25-4.8-1.88-.13-4,1.24-5.77,2.35-1.19,.75-2.15,2.08-2.83,3.36-.53,1-1.07,2.94-.59,3.39,2.57,2.43,5.46,4.52,7.32,6.01Zm-120.81-31.25c-1.45-.08-2.49-.4-3.35-.13-1.37,.43-2.63,1.25-3.93,1.91,1.27,.64,2.52,1.76,3.82,1.81,2.77,.11,5.57-.22,8.33-.57,4.54-.57,9.06-1.28,13.59-1.94,.1-.49,.19-.99,.29-1.48-3.4-2.1-6.8-4.21-10.53-6.52-.81,7.88-5.55,.81-8.21,2.54v4.37Zm1220,51.26c0-.71,.02-1.42,.03-2.13h-7.64c-.17-1.53-.29-2.55-.34-2.99h-9.67c-.04-.38-.07-.76-.11-1.13-3.53,1.78-7.06,3.57-10.58,5.35l.51,.91h27.8Zm-1042.34-51.62c-.83-2.72-.91-6.16-2.67-7.83-1.55-1.48-5.26-1.89-7.5-1.17-3.23,1.04-4.08,3.72-1.85,7.13,3.62,5.53,6.12,6.05,12.02,1.87Zm-350.2-.14l.49,1.69c9.26-.74,18.66,.85,27.83-1.22l-.05-1.83h-7.55c-.11-1.23-.21-2.25-.28-2.97-3.45,.18-6.58,.35-9.71,.52l-.17-1.29c-3.52,1.7-7.04,3.4-10.56,5.1Zm-401.05,80.11c5.06,5.75,15.35,7.01,28.11,3.44,1.59-.44,2.83-2.16,4.62-3.6-6.92-.92-12.53-1.67-18.65-2.48,1.54,2.06,2.74,3.67,4.3,5.76-7.24,3.19-12.12-3.35-18.37-3.12Zm493.8,6.59c0-1.53,.14-2.07-.02-2.48-.73-1.83-1.54-3.63-2.32-5.44-.14,.47-.29,.93-.43,1.4-2.92-.63-5.83-1.26-9.59-2.07-1.49,2.35-3.48,5.49-6.08,9.57,2.95,.7,5.53,2.19,7.03,1.46,1.93-.94,2.99-3.67,4.8-6.14,1.4,.79,3.74,2.1,6.62,3.71Zm1177.8-12.02c-4.06-1.35-8.05-4.11-10.46-3.1-2.63,1.1-3.79,5.69-5.68,8.92,7.59,2.11,11.05,.97,16.15-5.81Zm-288.86,56.94c-.22,.68-.44,1.36-.66,2.05-3.42-.64-6.85-1.28-11.41-2.14,8.25,7.84,15.84,1.54,23.2,1.02,1.23-.09,2.32-2.2,3.6-3.51-6.93-.95-12.7-1.74-19.28-2.64,1.87,2.15,3.21,3.69,4.55,5.23Zm-1092.46-101.07c7.04,1.83,11.49,.18,14.45-5.11-8.23-7.48-9.53-7.05-14.45,5.11Zm466.08-140.05c.24,7.1,8.46,14.02,16.92,14.39-3.37-7.7-9.59-11.14-16.92-14.39Zm-184.42,148.26l.17,1.72c2.98,1.27,5.9,2.71,8.95,3.75,1.37,.47,3.69,.78,4.36,.05,.86-.94,1.05-3.26,.48-4.51-.51-1.11-2.37-1.95-3.77-2.24-1.89-.39-3.93-.32-5.87-.1-1.47,.16-2.88,.86-4.32,1.32Zm-1.64,39.71c.99,1.79,1.46,3.32,2.46,4.26,1.06,.99,2.63,1.44,3.98,2.12,.34-1.41,.88-2.81,.98-4.25,.1-1.45-.24-2.94-.38-4.41,.82-.58,1.64-1.15,2.46-1.73,.76,2.13,1.52,4.26,2.28,6.39,.5-.46,1-.91,1.51-1.37-.77-1.91-1.54-3.82-2.75-6.83-3.49,1.93-6.67,3.68-10.53,5.81Zm702.53,18.94c-5.21-6.29-17.07-3.4-21.56,0h21.56Zm513.42-16.67c-2.62-2.56-13.61-2.34-14.9-.17-.52,.87-.74,2.41-.31,3.23,.37,.7,2.02,1.33,2.84,1.09,4.06-1.18,8.02-2.66,12.37-4.16Zm-1365.7-51.33c-2.67-2.7-13.77-2.2-15.06,.22-.48,.9-.56,2.32-.2,3.26,.21,.54,1.81,1.01,2.56,.78,4.16-1.26,8.26-2.74,12.7-4.25Zm926.77,82.79c3.4,3.38,7.08,4.79,11.69,2.45-3.55-8.46-5.13-8.78-11.69-2.45Zm243.16-114.66c7.38-1.42,13.31-6.77,13.06-11.79-6.9,2.51-12.33,7.41-13.06,11.79Zm-1360.67-47.45c5.56-2.63,12.05-4.14,14.69-12.32-6.9,3.11-11.92,6.35-14.69,12.32Zm-245.16,113.55c3.54,3.59,7.05,4.83,11.4,2.41-2.94-8.14-3.59-8.3-11.4-2.41Zm435.93-5.1q-12.43-5.21-14.43,1.26c2.02-1.29,3.79-2.43,6.83-4.37-.98,3.24-1.48,4.89-1.98,6.54,.33,.46,.65,.93,.98,1.39,2.59-1.45,5.18-2.9,8.61-4.81Zm1365.59,51.15c-10.92-4.91-11.5-4.84-12.88,1.57,1.87-1.25,3.54-2.37,6.31-4.22-.68,3.01-1.08,4.78-1.52,6.7,4.64,1.96,6.25-1.03,8.09-4.05Zm-928.84-286.94l1.54,1.26c1.7-1.38,3.4-2.77,5.11-4.15-1.96-1.85-3.93-3.69-5.89-5.54-.5,.33-1,.65-1.5,.98,.25,2.48,.49,4.96,.74,7.44Zm553.49,221.9c1.75,6.01,6.86,9.27,12.4,7.75-3.77-2.35-7.53-4.7-12.4-7.75Zm-1349.5-37.53c.46-.66,.91-1.32,1.37-1.99-3.51-2.25-7.03-4.5-10.54-6.75-.32,.48-.63,.96-.94,1.44,1.54,5.06,6.51,5.19,10.12,7.3Zm618.29-48.34l-.18-2.08c-2.18-.56-4.37-1.12-6.55-1.68-.22,2.04-.45,4.09-.81,7.43,3.47-1.69,5.51-2.68,7.55-3.67Zm65.61,106.49c7.5-.54,8.96-4.92,9.07-10.45-2.81,3.24-5.62,6.47-9.07,10.45Zm112.83-260.67c-3.06-1.44-6.12-2.88-9.18-4.33,1.66,5.77,4.36,7.08,9.18,4.33Zm397.41,310.42c-.06,.54-.12,1.07-.18,1.61,2.94,.92,5.85,1.95,8.83,2.68,.63,.15,2-.67,2.19-1.29,.19-.64-.57-2.23-1.06-2.29-3.24-.4-6.52-.5-9.78-.7Zm-258.38-82.89c-9.4,4.53-9.42,4.55-8.25,8.41,2.18-1.33,4.52-2.53,6.56-4.11,.78-.61,.87-2.11,1.69-4.3Zm84.25,67.79c-.42,.51-.84,1.01-1.26,1.52,1.61,4.42,5.74,5.34,9.34,7.01l1.16-1.55c-3.08-2.33-6.16-4.65-9.23-6.98Zm-407.53-151.34c.21-.88,.42-1.76,.64-2.64-2.91-.83-5.81-1.66-8.72-2.49l-.68,2.47,8.76,2.66Zm26.41,115.45c-.43,.58-.87,1.17-1.3,1.75,1.99,4.37,6.85,4,10.82,5.14-3.17-2.3-6.35-4.59-9.52-6.89Zm-211.99-19.07c-.47-.64-.94-1.29-1.41-1.93-3,2.22-6.01,4.44-9.01,6.67,.44,.6,.88,1.2,1.32,1.8,3.03-2.18,6.07-4.36,9.1-6.54Zm418.95-170.56c-1.35,1.63-2.28,2.76-3.22,3.89,1.12,.7,2.37,2.1,3.34,1.93,1.27-.23,2.31-1.7,3.45-2.63-1.01-.9-2.02-1.8-3.57-3.18Zm776.54,149.98c-.48-.32-.96-.64-1.44-.96-1.83,1.04-3.65,2.08-5.48,3.12,.08,.48,.16,.96,.24,1.43,1.83,.2,3.77,.85,5.43,.41,.72-.19,.85-2.6,1.25-4.01Zm-1363.56-50.54c-2.59,1.39-4.53,2.43-6.48,3.47,.09,.44,.18,.88,.27,1.33,1.93,.32,3.87,.65,6.21,1.04v-5.84Zm532.08-208.42l-1.65,.27c.18,1.53-.11,4.01,.63,4.37,1.33,.64,3.27,0,4.96-.11,.06-.47,.12-.95,.18-1.42-1.37-1.04-2.74-2.07-4.11-3.11Z"/></svg>