<?xml version="1.0" encoding="UTF-8"?><svg id="a" xmlns="http://www.w3.org/2000/svg" viewBox="0 0 1920 671.04"><path d="M0,25.04c2.91-1.53,5.82-3.05,8.87-4.65,1.24,3.98-.65,6.86-3.43,9.11-2.02,1.64-4.11,2.69-2.73,5.96,1.27,3.01,2.64,5.32,6.44,4.59,.62-.12,1.31,.11,3.43,.33-1.43,5.99-2.81,11.74-3.83,16.02,2.49,3.9,5.37,6.79,6.27,10.2,1.39,5.26,4.68,4.82,8.29,4.03,3.34-.73,6.53-2.16,9.86-2.97,1.16-.28,2.89,0,3.72,.74,.56,.5,.35,2.43-.15,3.41-.8,1.59-2.1,2.94-3.21,4.37-4.9,6.28-9.81,12.56-14.69,18.82,2.32,1.82,9.45,13.82,9.8,16.38,4.33-3.1,8.17-6.1,12.28-8.66,1.68-1.04,4.6-2.18,5.83-1.43,2.79,1.7,1.63,4.58,.11,6.92-3.21,4.92-6.48,9.8-10.11,15.28,2.01,.23,3.28,.25,4.49,.54,1.33,.33,2.59,.92,3.88,1.39-.76,1.55-1.13,3.64-2.37,4.52-2.12,1.49-4.78,2.2-7.2,3.28-1.03,.46-2.23,.83-2.97,1.61-.66,.69-.79,1.88-1.16,2.86,1.03,.1,2.1,.41,3.09,.25,3.87-.62,7.69-1.65,11.57-1.96,1.36-.11,3.44,1.08,4.11,2.28,.54,.95-.09,3.6-1.02,4.17-6.37,3.89-8.56,13.11-17.83,13.5-3.06,.13-5.54,10.07-3.41,12.62,.58,.69,2.18,1.1,3.09,.84,3.48-.96,7.53-1.44,10.16-3.58,6.28-5.14,14.04-4.32,21.04-6.4,1.31-.39,2.88,.1,5.87,.27-1.78,2.5-2.58,4.58-4.09,5.55-3.65,2.34-2.58,3.95,.25,5.82,1.3,.86,2.44,1.94,3.65,2.92l-.28,1.52c-2.48,.16-4.95,.43-7.43,.46-3.29,.04-6.58-.19-3.93,4.79,.47,.88,.07,2.23,.07,4.15-2.19-.32-4.02-.61-5.86-.85-1.79-.24-3.61-.74-5.36-.54-1.06,.12-2.55,1.18-2.84,2.12-.25,.82,.68,2.7,1.51,3.02,4.39,1.71,8.92,3.08,13.41,4.56,1.79,.59,3.59,1.17,5.38,1.75-.6,1.75-.81,3.79-1.87,5.2-2.01,2.69-2.45,4.25,1.54,5.09,2.04,.43,4.06,1.41,5.81,2.58,.83,.56,1.39,2.16,1.31,3.22-.05,.66-1.51,1.58-2.43,1.7-1.79,.24-3.95,.61-5.43-.13-7.48-3.75-12.47,.19-17.54,4.9-2.39,2.21-5.34,3.83-8.05,5.69-2.47,1.7-4.97,3.36-7.45,5.04,.21,.5,.41,1.01,.62,1.51,1.13-.1,2.34,0,3.39-.35,1.72-.58,3.28-1.69,5.01-2.15,6.9-1.81,9.49,.5,9.66,9.14,1.62-.37,3.18-.54,4.58-1.09,5.37-2.09,10.65-4.39,16.04-6.42,1.34-.5,2.96-.4,4.44-.32,3.71,.19,4.69,1.95,2.87,5.22-.72,1.29-1.89,2.32-2.69,3.57-.58,.92-1.51,2.56-1.18,2.94,.71,.84,2.12,1.5,3.26,1.52,6.52,.16,13.08-.32,19.55,.26,4.99,.45,10.22,1.4,14.69,3.51,3.6,1.7,.19,4.23-1.52,5.05-5.93,2.85-12.04,5.36-18.19,7.71-2.41,.92-5.19,.83-7.64,1.66-1.12,.38-2.33,1.73-2.7,2.9-2.42,7.74-6.41,13.72-15.08,15.39-1.46,.28-2.8,1.72-3.96,2.87-4.25,4.22-8.47,8.46-12.52,12.87-1.36,1.48-2.17,3.46-3.58,5.78,2.01,.44,3.1,.95,4.13,.85,9.5-.87,19.08-1.37,28.47-2.93,8.01-1.33,16.62-.71,23.72-6.02,.95-.71,2.82-.17,4.27-.21-.3,1.28-.22,2.85-.96,3.78-2.49,3.1-5.11,6.14-7.98,8.89-2.75,2.65-2.51,4.76,.36,6.94,1.05,.8,2.44,1.46,2.97,2.54,.69,1.38,1.2,3.28,.77,4.64-.29,.92-2.27,1.52-3.59,1.84-1.26,.31-2.65,.1-3.98,.08-3.58-.04-4.79,1.86-5.17,5.28-.31,2.82,2.29,7.18-2.01,8.08-1.74,.36-4.3-3.24-7.26-5.67,.93,0,.45-.14,.3,.02-7.82,8.31-15.62,16.63-23.38,24.99-.65,.7-1.43,1.74-1.37,2.57,.17,2.7,.7,5.38,1.09,8.06,2.17-.85,4.53-1.38,6.46-2.6,4.33-2.73,8.34-5.96,12.69-8.64,1.68-1.04,3.94-1.14,7.37-2.05-.79,2.97-1.01,4.81-1.76,6.41-1.69,3.58-3.73,7-5.42,10.58-.48,1.02-.26,2.38-.36,3.58,1.39-.1,3.04,.24,4.11-.39,6.75-3.95,11.62-9.72,15.11-16.67,1.42-2.82,2.56-5.79,4.22-8.45,.67-1.08,2.39-1.5,4.9-2.95-1.22,3.64-1.91,5.7-3.1,9.28,2.9-1.5,4.59-2.46,6.36-3.25,1.54-.69,3.17-1.2,4.76-1.79-.01,1.84,.37,3.8-.13,5.5-.65,2.19-2.11,4.12-3,6.25-.64,1.52-.93,3.19-1.38,4.8,.38,.3,.76,.6,1.13,.9,3.22-1.85,6.29-4.05,9.7-5.42,2.76-1.11,5.49-5.78,9.93-.33-4.65,3.39-9.09,6.45-13.29,9.81-1.3,1.04-1.93,2.92-2.87,4.41,1.76,.29,3.75,1.25,5.25,.75,12.4-4.1,25.24-4.59,38.08-5.86,6.22-.62,12.12-4.5,18.17-6.9l-.3-1.78h-11.47c.45-1.39,.51-1.87,.74-2.24,1.05-1.68,2.15-3.33,3.24-4.98-2.23-.98-4.38-2.27-6.71-2.83-1.69-.4-3.6,.25-5.42,.28-6.35,.08-6.65-.37-4.08-7.79-3.8,.31-7.02,.54-10.23,.83-3.44,.31-8.5,3.1-9.57-1.54-.92-3.99,5.03-3.24,7.73-4.93,8.17-5.11,16.39-10.14,24.58-15.21l-.59-2.21c-4.78-.76-9.56-1.52-14.34-2.28-1.81-.29-3.86-.15-5.36-1-1.48-.84-3.3-2.64-3.33-4.06-.03-1.43,1.69-3.33,3.13-4.23,1.59-1,3.74-1.11,6.63-1.86-2.75-3.05-5.04-5.58-7.49-8.29,5.31-4,9.99-.76,13.41,1.08,6.26,3.37,11.69,2.29,17.9-.11-2.56-4.74,1.34-7.41,4.16-9.4,5.69-4,4.04-8.94,1.96-13.2-.95-1.95-5.09-2.58-7.91-3.31-3.24-.85-6.66-1.02-9.95-1.74-4.19-.91-8.35-1.97-12.46-3.18-1.29-.38-3.39-1.47-3.36-2.16,.06-1.34,1.05-3.27,2.2-3.83,4.74-2.32,9.69-4.21,14.57-6.25,.46-.19,1.07-.15,1.41-.45,5.65-4.89,10.3-4.61,15.49,1.37,2.59,3,7.27,2.37,11.28-.37-2.18-2.81-4.13-5.33-6.08-7.85,.54,.04,1.07,.07,1.61,.11,.97-2.4,2.1-4.75,2.85-7.22,.69-2.3,1.41-4.75,1.27-7.08-.09-1.54-1.61-3.03-2.62-4.46-.88-1.25-1.93-2.37-2.9-3.55,1.27-.87,2.49-2.37,3.82-2.49,5.3-.45,5.81-5.35,8.2-8.44,.22-.28-1.02-2.13-1.93-2.74-1.62-1.1-3.73-1.56-5.2-2.79-.97-.81-1.77-2.61-1.58-3.79,.16-.99,1.76-1.96,2.93-2.5,1.48-.69,3.24-.75,4.75-1.39,3.56-1.54,4.43-3.58,4.11-8.08-.54-7.62-5.54-12.45-9.26-19.2,2.09-.2,3.45-.56,4.74-.4,6.08,.72,7.54-.29,8.56-6.06,.49-2.73,.96-5.49,1.74-8.15,.31-1.06,1.33-2.52,2.2-2.65,.94-.14,2.66,.82,3.03,1.72,2.15,5.15,4.34,10.33,5.83,15.68,.99,3.56,1.48,6.51,6.32,5.48,1.08-.23,3.1,.87,3.59,1.88,.42,.87-.34,3.11-1.26,3.69-5.28,3.36-4.89,9.44-7.04,14.27-.03,.06,2.46,1.88,3.55,1.67,2.13-.41,4.09-1.67,6.44-2.71,1.09,7.07-4.47,7.53-8.17,9.76,.99,3.92,1.84,7.61,6.86,7.85,4.82,.23,4.72,3.48,3.58,6.68-1.04,2.91-2.77,5.57-2.9,7.75,2.47,3.8,4.52,8.01,7.59,11.26,1.83,1.94,5.18,3,7.98,3.34,3.55,.43,7.24-.47,10.86-.44,1.84,.02,3.67,.82,6.64,1.55-8.19,6.6-15.24,12.27-23.2,18.69,2.72,1.57,4.14,2.54,5.68,3.26,6.58,3.04,6.64,3.11,3.93,11.29,4.17-1.15,7.6-1.99,10.96-3.05,2.05-.65,3.94-2.12,6-2.33,1.64-.17,3.88,.6,4.97,1.77,.63,.67,.03,3.46-.9,4.46-3.26,3.49-6.91,6.61-11.26,10.67,2.5,.52,4.33,.73,6.04,1.31,1.12,.38,2.04,1.31,3.06,1.99-.97,1-1.78,2.54-2.95,2.89-2.52,.76-5.24,.82-7.83,1.35-1.64,.34-3.2,1.01-4.8,1.54l.23,1.51c3.69,0,7.44-.45,11.04,.13,3.57,.57,8.36-.9,10.39,5.25-7.3,1.85-11.65,9.67-20.53,8.77-4.33-.44-6.45,2.91-5.68,7.89,.63,4.06,3.47,2.99,6.16,2.48,5.02-.94,10.05-2.11,15.12-2.42,6.8-.41,13.65-.1,20.47-.1l.68,1.97c-1.92,1.34-3.84,2.69-6.35,4.45,2.09,1.78,4.1,3.48,6.1,5.18l-.2,1.25c-4.05-.31-8.11-.62-12.49-.96,.38,2.25,.67,3.93,1.15,6.77-3.86-1-6.89-2.09-10-2.48-1.69-.21-3.53,.77-5.31,1.22,1.19,1.2,2.16,2.91,3.6,3.5,4.1,1.69,8.41,2.88,12.59,4.37,1.78,.63,3.46,1.54,5.19,2.32-1.02,1.35-2.05,2.69-3.06,4.05-.28,.38-.51,.81-.96,1.53,2.95,2.08,5.61,4.05,9,.71,2.35-2.31,4.9-4.4,7.33-6.57q5.43,4.39,7.55,2.64c.52-5.34,1.14-9.17,1.19-13,.03-2.77-.7-5.55-1.25-9.42,1.27-1.79,3.39-4.77,5.75-8.09-1.79-1.15-3.38-1.62-3.77-2.57-.53-1.32-.82-3.65-.07-4.44,5.23-5.47,5.76-9.35,1.7-15.77-.6-.96-1.02-2.03-1.83-3.68,9.59-.28,4.56-9.35,9.02-14.07,1.3,3.44,2.91,6.2,3.29,9.12,.45,3.48,1.43,5.51,5.53,4.6-1.65,5.13-3.14,9.75-5.12,15.88,2.83-1.49,4.24-2.23,5.92-3.11,1.1,4.21-10.32,9.86,2.2,12.14-.84,3.32-1.6,6.3-2.44,9.59,.85,.7,2.52,1.39,2.71,2.37,1.46,7.46,5.96,5.93,10.8,3.98,.99-.4,2.19-.26,4.63-.5-4.28,5.97-7.93,11.05-11.82,16.48,3.32,2.24,8.25,3.13,4.82,8.84,.43,.15,.87,.3,1.3,.45,2.44-1.7,4.82-3.49,7.35-5.05,.82-.5,2.03-.38,3.06-.54,.09,1.08,.64,2.4,.2,3.19-1.74,3.16-3.79,6.16-5.89,9.49,1.73,.49,3.08,.87,4.43,1.25l.57,1.26c-2.92,1.81-5.84,3.62-8.76,5.44l.51,1.12c2.46-.47,4.91-1.14,7.4-1.33,1.13-.08,2.33,.8,3.49,1.25-.45,1.14-.58,2.67-1.41,3.35-3.11,2.53-6.77,4.46-9.58,7.26-1.69,1.68-2.21,4.55-3.87,8.24,3.29-.43,4.79-.63,6.94-.91-.95-1.49-1.56-2.46-2.21-3.47,3.88-1.52,11.46-7.41,14.47-11.16,2.99-3.72,5.92-3.8,7.24,.38,1.89,5.96,5.31,7.83,11.11,6.22,.54-.15,1.23,.23,1.77,.34-3.06,3.95-6.08,7.85-10.07,12.99,5.94,1.47,9.98,2.47,14.02,3.46l.38,1.39c-3,1.14-6,2.28-9,3.41l-.5,1.44c4.1,1.84,8.19,3.67,12.59,5.65-1.97,.89-3.84,1.73-6.08,2.74,1.46,3.36,2.83,6.51,4.42,10.15-.59,.42-2.02,1.43-4.21,2.98,4.97,1.98,9.32,1.85,13.2-.51,3.69-2.24,6.93-2.09,10.86-.78,5.02,1.68,10.33,2.48,15.5,3.74,1.83,.45,3.59,1.14,5.34,2.9-1.15,.35-2.27,.88-3.45,1.02-8.54,1-17.08,2.13-25.65,2.77-3.32,.25-5.82,1.47-6,4.5-.09,1.48,2.4,3.21,3.88,4.67,1.57,1.55,3.32,2.92,5,4.37-.13,.74-.27,1.49-.4,2.23l29.05-2.93,.35,1.07-6.23,3.9c3.73,.97,6.71,1.74,9.68,2.51l-.06,1.61c-7,3.76-15.24,1.47-22.6,3.46-.13,.56-.25,1.13-.38,1.69,10.47,3.47,20.94,6.94,31.41,10.41l.08,.51h-18.69c1.34,4.24-.97,4.37-4.22,4.23-4.33-.19-8.68,.21-13.02,.36l-.21,1.48c1,.87,1.99,1.74,3.67,3.2h-11c5.39,3.65,57.32,9.41,61.66,6.86-5.37-2.3-10.4-4.44-15.42-6.59l.62-2.09c6.06,1.68,12.12,3.36,18.18,5.04,.24-.4,.48-.8,.72-1.2l-5.57-6.93c.22-.5,.44-1.01,.65-1.51,3.25,.81,6.5,1.62,10.25,2.55-.14-1.29-.26-2.4-.55-5.13,2.65,2,4.75,3.07,6.14,4.73,4.53,5.41,10.2,8.94,16.83,11.05,1.31,.42,2.75,.4,4.14,.58l.7-1.14c-2.6-2.97-5.2-5.93-7.81-8.9,.17-.49,.34-.99,.52-1.48,3.52,.78,7.12,1.32,10.54,2.4,3.79,1.2,7.36,3.1,11.16,4.26,1.41,.43,3.2-.36,4.81-.6-.42-1.63-.31-4.09-1.35-4.76-7.39-4.76-14.98-9.22-22.62-13.56-.66-.38-2.2,.78-3.32,1.23-1.79,.72-3.58,1.44-5.68,2.29-1.31-3.55,.4-7.97-4.63-7.94-2.99,.02-5.99,0-8.98,0-.13-.67-.26-1.34-.39-2,2.19-1.45,4.39-2.9,7.29-4.81-4.25-2.73-8.04-5.16-12.23-7.86,20.34,1.55,40.06,3.05,60.43,4.6-.49-1.64-.49-2.56-.86-2.75-6.89-3.53-13.63-7.46-20.81-10.25-4.7-1.83-9.41-2.86-12.29-7.61-.74-1.22-2.84-1.89-4.45-2.24-7.62-1.64-15.29-3.04-22.91-4.63-1.35-.28-2.6-1.07-3.9-1.62l.14-1.89c12.64-.52,25.29-1.05,39.41-1.63-2.62-2.41-4.19-3.86-6.78-6.23,10.8-2.15,19.73,2.15,28.63,3.44,4.74-10,12.51-2.7,18.96-4.66-6.4-2.6-12.61-6.03-19.25-7.56-6.67-1.53-13.78-1.17-20.92-2.69,3.28-.95,6.57-1.9,10.39-3-1.46-1.54-2.62-2.76-4.19-4.42,7.4-1.27,14.24-2.45,21.08-3.63-.04-.59-.08-1.19-.12-1.78-4.13-3.81-9.33,.78-13.97-1.15,.18-1.16,.37-2.38,.68-4.38h-11.24l-.12-1.08c1.65-.84,3.31-1.67,5.56-2.81-2.11-1.41-3.75-2.5-5.39-3.59,.1-.54,.21-1.07,.31-1.61,7.06,.9,14.15,1.63,21.17,2.76,4.57,.74,9.01,2.24,13.57,3.03,1.24,.21,3.89-.97,3.87-1.45-.05-1.78-.63-3.76-1.64-5.22-.59-.84-2.45-.71-3.66-1.2-5.98-2.42-11.94-4.9-17.73-8.04,6.33-4.83,12.93-.68,19.23-1.09,.11-.51,.21-1.01,.32-1.52-4.57-1.37-9.13-2.73-13.7-4.1,.08-.53,.17-1.06,.25-1.59,2.28-.26,4.57-.52,7.9-.89-4.32-3.66-7.9-6.7-12.5-10.6,8.61-4.1,14.04,4.03,21.22,3.39-3.65-9,5.51-4.75,8.63-8.6-5.99-4.48-11.94-8.93-17.88-13.38,.1-.45,.2-.9,.3-1.35,4.11,.47,8.27,.68,12.3,1.49,4.48,.9,8.33,1.47,10.97-3.61,.8-1.54,3.49-2.1,5.38-3.14-1.25-2.83-2.57-5.81-3.66-8.27,3.97-1.44,7.07-2.57,11.11-4.03-3.8-2.89-6.2-4.71-8.6-6.54l.93-1.47c2.5,.92,4.99,1.84,7.49,2.76,.44-.34,.88-.68,1.32-1.02-2.39-4.14-4.79-8.29-7.36-12.73-.2,.43-.11,.14-.07,.15,7.82,1.41,9.18-5.15,12.22-9.75,.81-1.22,2.34-2.67,3.56-2.69,.93-.02,2.51,1.95,2.74,3.23,1.1,6.15,3.84,10.04,10.51,8.59-2.41,4.44-6.53,8.64-6.16,12.4,.29,2.96,6.12,5.38,10.19,8.59-2.81,1.05-5.41,2.02-9.55,3.56,4.17,3.28,7.6,5.97,11.31,8.89-1.3,.74-2.91,1.66-4.89,2.8,1.11,3.69,2.21,7.34,3.63,12.07-.29,.25-1.7,1.48-3.42,2.98,3.85,3.02,7.77,3.26,11.46,.7,2.99-2.08,5.24-1.6,8.18,.07,4.16,2.38,8.7,4.09,13.03,6.18,1.83,.89,3.54,2.03,5.31,3.05-.09,.44-.19,.87-.28,1.31-4.32,.44-8.64,1.03-12.98,1.29-3.76,.22-7.55,.24-11.31,.03-2.78-.16-4.79,.75-4.92,3.48-.1,2,.47,4.33,1.52,6.03,1.57,2.54,3.83,4.66,5.4,7.19,5.79,4.93,12.36,2.08,18.84,1.53,1.96-.16,3.96,.18,6.08,1.47-1.62,1.27-3.25,2.54-5.62,4.39,2.32,.79,4.11,1.1,5.56,1.98,1.11,.67,1.79,2.05,2.67,3.11-1.14,.73-2.25,2.02-3.43,2.09-4.31,.27-8.65,.11-12.98,.19-.92,.02-1.83,.38-2.74,.58-.19,.48-.39,.96-.58,1.43,9.15,5.28,18.3,10.55,27.88,16.08-5.64,3.2-10.78-2.38-16.48-.78,.08,1.36,.16,2.82,.25,4.45h-16.42c2.1,2.38,3.12,3.54,4.85,5.5-3.67-.21-6.61-.39-9.56-.56,6.34,4.66,13.07,7.64,20.91,8.73,8.83,1.23,17.49,3.66,26.19,5.71,3.15,.74,5.52,2.37,4.17,6.17,2.82,.67,5.29,1.25,7.75,1.84l.08,1.71c-3.05,.68-6.12,1.33-9.16,2.07-1.42,.34-3.65,.46-4.05,1.34-3.9,8.64-11.51,5.04-17.38,4.68-3.91-.24-6.85-.2-10.02,2.03-1.8,1.26-4.11,1.78-7.06,2.99,4.39,3.15,8.64,8.59,11.94,8.06,6.62-1.05,9.8,2.75,14.58,5.08,6.59,3.21,14,1.25,20.53-2.02,6.79-3.39,16.79-2,21.15,4.05-2.33,.11-4.32-.18-6.02,.38-2.84,.94-5.55,2.33-8.22,3.73-1.45,.76-2.56,2.37-4.05,2.79-5.96,1.71-12.5,2.13-17.9,4.86-6.21,3.14-12.09,2.85-18.52,2.56-2.41-.11-4.95,2.79-7.37,4.28,2.78,5.97,5.14,6.7,14.38,4.62-.51-1.49-1.01-2.95-1.64-4.78,5.16-3.21,7.81,4.31,12.84,2.89-1.02-1.7-1.92-3.2-3.72-6.19,15.14,4.79,28.98,2.08,42.86,1.96l.36-2.53c-6.1-1.41-12.21-2.82-18.31-4.22,.05-.59,.1-1.18,.16-1.77h22.49c-1.48-2.26-2.11-3.22-3.33-5.08,3.39,.44,5.79,.87,8.21,1.03,3.59,.24,7.09,3.13,10.87-.77,1.31-1.35,5.18-.22,7.95-.47-7.2-2.77-13.82-7.84-22.59-4.41,.02-.49,.04-.97,.06-1.46,1.55-.57,3.11-1.14,4.93-1.81-.36-.91-.68-1.75-1-2.56,3.8-.79,7.53-1.56,11.26-2.33l-.19-.84c-4.4-1.32-8.8-2.64-12.56-3.77,.13-1.36,.26-2.65,.48-4.92,6.34,1.09,13.4,2.31,20.43,3.52,.73-4.06,.66-3.85-4.54-5.47-2.76-.86-5.25-2.6-7.86-3.94,.06-.48,.12-.96,.18-1.44,3.35,.16,6.7,.33,10.05,.49l.3-.97c-2.27-.78-4.54-1.55-7.66-2.62,1.8-.67,2.84-1.06,4.3-1.61-2.18-1.96-4.07-3.67-5.96-5.37,.22-.49,.44-.98,.65-1.48,3.41,1.05,6.81,2.1,9.01,2.78,2.5-1.91,4.26-3.26,6.69-5.12-3.13-2.47-6.37-5.03-10.75-8.49,6.95,.57,13.54,3.7,17.28-4.09-.3-.71-.87-2.06-1.57-3.75,1.95-.76,3.77-1.47,6.31-2.46-1.86-1.57-3.04-2.56-5.15-4.34,2.39,.39,3.76,.6,6.22,1-1.57-3.01-2.74-5.26-3.57-6.85,2.66-2.74,5.35-5.52,8.03-8.29,2.19,2.73,4.39,5.45,6.87,8.53-.65,1.21-2,3.71-3.52,6.54,2.45,1.31,4.31,2.31,6.73,3.61-1.58,.94-2.87,1.71-4.85,2.89,1.93,1.72,3.68,3.28,4.56,4.06v12.45c.91,.1,2.95,.99,3.93,.32,3.66-2.52,6.44-.36,9.68,.83,3.14,1.16,6.57,1.49,9.88,2.18,.17-.6,.34-1.19,.52-1.79-1.07-.83-2.14-1.65-3.56-2.75,7.36-1.51,14.3-2.93,21.24-4.35-.12-.76-.24-1.52-.35-2.28-4.57,.41-9.15,.83-14.03,1.27v-3.49c-3.75,.21-7.33,.42-10.92,.62l-.26-.76c1.43-.75,2.86-1.51,4.89-2.58-2.18-.93-3.73-1.59-5.28-2.26l.12-.94c7.36,0,14.72-.18,22.08,.06,4.96,.16,9.9,1.09,14.87,1.26,1.39,.05,3.87-1.16,4.07-2.15,.63-3.1-1.94-3.55-4.39-4.03-6.44-1.26-12.84-2.7-19.25-4.11-.44-.1-.81-.53-1.94-1.31,6.9-3.21,13.81-1.22,20.36-1.87,.05-.47,.1-.95,.14-1.42-4.7-.62-9.41-1.24-14.11-1.86,.02-.42,.04-.84,.06-1.26,2.26-.43,4.52-.86,7.99-1.52-4.87-2.66-8.66-4.73-13.75-7.51,8.83-3.59,15.7,2.12,22.89,.88-2.12-8.3,6.65-3.65,9.12-8.22-6.57-2.93-13.07-5.83-20.68-9.22,2.15-.51,3.4-1.06,4.65-1.06,3.99,0,7.98,.29,11.97,.31,3.83,.02,7.44-.03,9.95-4.09,1.12-1.8,4.08-2.45,6.29-3.67-1.45-2.05-2.98-4.2-4.58-6.45,3.78-2.69,9.44-.18,10.91-5.78-2.73-1.16-5.42-2.3-8.12-3.44,.17-.57,.35-1.14,.52-1.7,3.14,.55,6.28,1.1,9.42,1.65,.33-.51,.66-1.02,.99-1.53-2.82-3.14-5.64-6.27-8.64-9.61-.16,.35,0-.21,.1-.19,8.22,1.11,10.21-5.87,13.91-10.65,3.06-3.95,6.2-3.99,7.59,.43,1.73,5.51,4.58,7.71,10.18,5.96,.45-.14,1-.07,1.48,0,.31,.04,.6,.24,.91,.38-2.97,3.86-5.98,7.78-9.95,12.95,5.94,1.51,10.07,2.56,14.19,3.61,.05,.46,.09,.92,.14,1.37-2.93,1.07-5.87,2.13-8.8,3.2-.19,.49-.37,.99-.56,1.48,4.04,1.87,8.08,3.74,12.4,5.74-1.89,.86-3.74,1.71-6.04,2.77,1.46,3.25,2.86,6.35,4.5,9.99-.57,.42-1.97,1.47-4.25,3.17,5.03,1.85,9.29,1.89,13.18-.59,3.64-2.31,6.9-2.17,10.84-.8,4.84,1.68,9.99,2.43,14.99,3.67,2.01,.5,3.96,1.22,7.25,2.25-2.16,.9-2.94,1.44-3.77,1.54-8.89,1.04-17.8,1.89-26.67,3.1-1.86,.25-3.91,1.39-5.23,2.75-2.06,2.11-1.32,3.94,1.24,5.61,2.26,1.47,3.72,4.64,6.07,5.39,3.81,1.22,8.08,1.56,12.12,1.38,3.94-.17,7.81-1.58,11.74-2.21,1.84-.3,3.77-.05,5.83,1.01-1.74,1.06-3.49,2.11-6.13,3.72,3.73,1.01,6.67,1.81,9.61,2.61,.02,.58,.04,1.16,.05,1.75-7.07,3.22-15.14,1.59-23.76,3.42,10.71,6.13,21.27,9.21,32.29,11.04-.02,.6-.03,1.2-.05,1.81-3.02,0-6.03,.09-9.05-.02-3.12-.12-6.23-.43-9.59-.67v3.93c-5.78,.36-11.56,.73-17.35,1.09l-.14,1.47c.95,.76,1.9,1.51,3.63,2.89h-10.79c4.36,3.61,56.57,9.75,61.83,7.22-5.52-2.37-10.47-4.49-15.42-6.61,.2-.66,.41-1.31,.61-1.97,5.93,1.54,11.86,3.08,17.79,4.62l.65-1.05c-1.81-2.34-3.62-4.68-5.43-7.02,.22-.45,.45-.89,.67-1.34,3.32,.77,6.63,1.55,10.44,2.43-.36-1.48-.61-2.52-.86-3.56,.26-.36,.52-.72,.77-1.07,1.86,1.44,4.05,2.6,5.52,4.36,4.4,5.3,9.95,8.73,16.37,10.84,1.44,.47,3.05,.41,5.2-.54-2.64-2.96-5.28-5.92-7.92-8.88,.19-.5,.39-1,.58-1.5,3.51,.8,7.1,1.36,10.51,2.47,3.94,1.28,7.67,3.22,11.61,4.48,1.28,.41,2.96-.44,4.45-.71-.4-1.64-.26-4.13-1.3-4.79-7.4-4.75-14.99-9.19-22.65-13.52-.69-.39-2.41,.51-3.35,1.22-3.92,2.93-5.28,2.33-6.63-2.16-.44-1.45-2.68-2.96-4.34-3.31-2.6-.55-5.41-.15-8.13-.15-.19-.65-.37-1.29-.56-1.94,2.21-1.54,4.43-3.08,7.21-5.01-4.3-2.76-8.12-5.21-12.31-7.89,20.41,1.57,40.25,3.09,60.99,4.68-.83-1.83-.94-2.68-1.37-2.9-7.07-3.54-14-7.49-21.36-10.28-4.46-1.69-8.68-2.89-11.48-7.16-.81-1.24-2.81-2.02-4.4-2.36-7.61-1.66-15.28-3.04-22.9-4.65-1.49-.31-2.86-1.17-4.28-1.78l.2-1.89c12.69-.46,25.37-.92,39.56-1.44-2.71-2.58-4.27-4.06-6.79-6.45,10.75-1.9,19.76,2,28.65,3.64,4.67-10.11,12.63-2.46,20.18-4.33-7.74-3.1-14-6.51-20.69-8.05-6.64-1.52-13.72-1.16-20.86-2.72,3.29-.89,6.59-1.78,10.49-2.84-1.45-1.56-2.58-2.78-4.23-4.56,7.37-1.27,14.27-2.46,21.16-3.65-.07-.73-.14-1.46-.21-2.19h-13.79c.13-1.71,.23-3.05,.38-5.02h-10.77c-.07-.33-.14-.66-.2-.98,1.62-.99,3.24-1.98,5.23-3.19-2.07-1.29-3.65-2.27-6.27-3.9,14.41-2.05,26.64,4.29,39.42,4.91,1.07-6.31,.28-6.61-4.67-8.07-6.17-1.82-12-4.77-17.82-7.98,6.25-4.71,12.86-.56,19.11-1.24l.33-1.33c-4.55-1.37-9.09-2.75-13.64-4.12,.1-.52,.19-1.03,.29-1.55,2.28-.29,4.56-.59,7.66-.99-4.25-3.71-7.88-6.89-12.46-10.88,8.77-3.52,14.19,4.33,21.43,3.57-3.57-9.03,5.53-4.43,8.4-8.6-5.75-4.3-11.68-8.73-18.54-13.85,2.15-.3,3.46-.75,4.69-.6,3.28,.41,6.54,1.06,9.79,1.66,3.95,.73,7.35,.8,9.67-3.61,.9-1.71,3.64-2.45,5.61-3.68-1.21-2.55-2.57-5.41-4.01-8.42,3.93-1.65,9,.76,9.99-4.85-2.38-1.73-4.74-3.44-7.11-5.15,.3-.54,.6-1.09,.9-1.63,2.55,.91,5.11,1.83,7.66,2.74,.42-.36,.85-.72,1.27-1.09-2.47-4.15-4.94-8.31-7.48-12.57-.13,.14,.15-.34,.29-.3,7.66,1.92,8.26-5.15,11.5-8.91,1.19-1.38,2.76-2.44,4.15-3.64,1.04,1.54,2.77,2.98,3,4.62,.73,5.28,2.93,8.26,8.72,7.41,.53-.08,1.15,.51,1.47,.67-2.04,3.37-3.96,6.64-5.99,9.84-2.24,3.53-.08,5.13,2.75,6.4,1.36,.61,2.88,.89,4.19,1.57,.9,.47,1.57,1.37,2.35,2.08-.83,.68-1.56,1.58-2.5,1.98-1.5,.63-3.15,.91-4.9,1.39,.97,5.68,5.79,7.1,10.91,9.26-2.46,1.28-4,2.09-6.05,3.15,1.08,3.74,2.16,7.51,3.25,11.29h1.46c-1.43,1.23-2.85,2.47-4.57,3.97,4.06,2.89,7.74,2.7,11.8,.64,1.71-.87,4.51-1.66,5.85-.87,8.01,4.74,15.33,1.94,22.52-1.61,3.46-1.7,6.53-4.19,9.47-7.32-3.23,.27-6.46,.53-10.67,.88,.87-1.37,1.19-1.85,1.49-2.35,.86-1.44,1.71-2.89,2.56-4.34-1.96-.72-3.93-2.03-5.88-2.01-3.07,.03-6.12,.96-9.97,1.65,.23-2.35,.41-4.18,.7-7.11-2.72,.47-5.31,.82-7.84,1.4-1.77,.41-3.45,1.53-5.2,1.59-1.41,.05-2.86-1-4.3-1.56,.87-.99,1.54-2.45,2.63-2.91,9.88-4.16,17.31-11.59,25.1-18.53,.42-.38,.55-1.08,1.36-2.79-5.29,0-9.86,.3-14.36-.13-2.26-.21-5.78-1.25-6.33-2.78-1.25-3.49,2.29-4.48,4.9-5.59,1.02-.43,1.98-1.01,4.59-2.36-3.14-1.88-5.53-3.31-7.92-4.73,.33-.67,.65-1.34,.98-2,3.53,0,7.47-1.02,10.49,.21,6.16,2.51,11.23,.78,16.44-2.03l-1.22-.81c1.82-2.91,3.36-6.04,5.52-8.67,3.12-3.81,4.35-8.96,1.19-11.96-1.58-1.5-5.16-1-7.86-1.2-6.67-.49-13.35-.82-20.01-1.34-.61-.05-1.71-1.13-1.62-1.45,.34-1.17,.81-2.66,1.73-3.24,4.2-2.65,8.57-5.02,12.87-7.51,1-.58,2.17-1.03,2.93-1.85,3.58-3.81,6.76-4.17,11.07-.49,3.32,2.84,7.42,1.77,10.9-1.44-1.84-2.05-3.55-3.95-5.26-5.85,.52-.01,1.04-.03,1.56-.04,.78-2.56,1.63-5.1,2.3-7.69,.32-1.26-.12-2.88,.51-3.86,1.69-2.62,.77-3.83-1.73-4.91-1.05-.45-1.82-1.57-2.72-2.38,.92-.83,1.72-2.15,2.79-2.42,5.23-1.31,5.96-5.99,8.59-9.89-2.56-.83-4.51-1.23-6.22-2.1-1.02-.52-2.25-1.74-2.3-2.7-.05-.94,1.25-1.98,2.01-2.92,.18-.22,.62-.22,.92-.35,8.83-3.92,10.04-11.88,2.91-18.76-1.24-1.2-2.18-2.72-3.67-4.61,1.75-.54,2.84-1.25,3.81-1.11,5.46,.79,6.75-2.79,7.61-6.94,.43-2.09,.7-4.24,1.43-6.23,.44-1.21,1.61-2.15,2.45-3.21,1.04,.93,2.5,1.67,3.04,2.83,1.74,3.71,3.17,7.56,4.67,11.38,.91,2.29,2.07,3.6,4.91,2.59,1.26-.45,2.9,.21,4.18,.34-2.98,6.04-5.69,11.53-8.39,17.02,.48,.53,.95,1.07,1.43,1.6,2.67-1.29,5.35-2.58,8.29-4.01,1.11,3.82-1.4,5.31-3.53,7.13-1.2,1.03-2.08,2.42-3.1,3.65,1.83,1.35,3.57,2.86,5.54,3.97,.9,.51,2.26,.2,4.84,.34-1.46,4.5-2.77,8.52-3.76,11.57,2.58,3.27,4.86,6.42,7.45,9.29,.84,.93,2.55,1.72,3.74,1.58,4.59-.55,9.11-1.58,13.68-2.28,1.6-.24,3.28-.04,4.92-.04l.39,1.24c-6.4,6.18-12.79,12.35-19.45,18.79,4.1,3.68,14.48,.88,8.58,11.41,.42,.17,.84,.33,1.26,.5,3.27-1.52,6.56-3.01,9.81-4.59,2.09-1.02,4.02-2.47,6.2-3.13,1.12-.34,3.09,.28,3.82,1.16,.59,.72,.39,2.9-.31,3.73-3.17,3.79-6.63,7.34-10.71,11.75,3.22,.34,5.69,.6,8.95,.95-2.91,7.19-11.49,3.87-15.63,9.65,7.47,.88,14.96-4.84,22.73,1.77-8.3,3.08-12.19,10.99-20.96,11.25-4.11,.12-6.47,4.82-4.72,8.63,.41,.91,2.48,1.75,3.58,1.54,4.37-.86,8.61-2.37,12.97-3.25,7.41-1.49,14.87-2.7,22.32-3.98,.58-.1,1.23,.26,3.22,.74-2.61,2.13-4.46,3.64-6.85,5.6,2.26,1.43,4.33,2.74,6.41,4.05-.04,.41-.07,.81-.11,1.22-4.09,.22-8.18,.43-12.59,.66,.48,2.11,.85,3.76,1.45,6.41-3.84-.49-7.01-1.21-10.18-1.18-1.67,.01-3.33,1.31-4.99,2.03,1.39,.97,2.66,2.42,4.19,2.81,4.31,1.07,8.73,1.67,13.09,2.52,1.52,.29,3.01,.75,5.47,1.38-2.14,2.38-3.59,3.99-5.62,6.25,3.35,.92,6.16,1.53,8.82,2.52,1.01,.38,1.69,1.63,2.53,2.49-1.07,.5-2.3,1.65-3.18,1.42-11.19-2.95-20.61,.95-29.72,6.97-2.87,1.89-6.43,2.74-9.67,4.07,.16,.57,.32,1.14,.48,1.71,1.29-.16,2.59-.26,3.86-.5,2.59-.49,5.15-1.41,7.75-1.52,6.04-.27,6.88,.6,7.42,6.88,9.87-1.63,19.16-7.32,30.97-5.02-2.63,3.19-4.48,5.45-6.34,7.7l.34,1.71c7.14,0,14.29-.26,21.42,.08,6.39,.3,12.76,1.25,19.15,2.67-4.31,5.06-10.16,5.9-15.58,7.42-4.59,1.29-9.45,1.59-14.09,2.74-1.47,.36-3.14,1.78-3.82,3.15-2.36,4.77-5.87,7.54-10.97,9.32-4.87,1.7-9.38,4.58-13.81,7.34-3.83,2.38-7.31,5.31-10.94,8l.7,2.11c6.88-.66,13.75-1.42,20.64-1.94,7.28-.55,14.62-.52,21.86-1.4,6.77-.82,13.44-2.51,20.16-3.81,.21,.5,.42,1,.62,1.5-4.25,3.45-8.5,6.91-13.26,10.78,1.89,1.38,3.32,2.19,4.44,3.3,1.16,1.15,2.02,2.61,3.01,3.93-1.55,.61-3.08,1.29-4.66,1.81-.6,.2-1.33,.09-1.99,.02-4.73-.49-7.36,1.12-7,6.38,.08,1.17-1.14,3.49-1.56,3.44-1.6-.17-3.81-.67-4.53-1.83-1.92-3.08-3.51-2.63-5.97-.74-5.79,4.44-11.79,8.6-17.63,12.98-1.72,1.29-3.75,2.66-4.6,4.48-.88,1.88-.5,4.34-.68,6.55,1.82-.02,3.87,.52,5.41-.14,5.33-2.3,10.41-5.16,15.72-7.49,1.98-.87,4.35-.84,6.54-1.22,.36,.43,.72,.86,1.07,1.3-2.97,4.24-5.95,8.48-8.92,12.71,.22,.45,.44,.89,.66,1.34,1.73-.33,3.55-.41,5.17-1.03,7.58-2.9,13.08-8.24,17.31-15.06,1.53-2.48,2.85-5.56,6.94-4.02-.7,1.47-1.37,2.9-2.67,5.62,4.7-1.7,8.19-2.97,11.68-4.23,.42,.43,.83,.87,1.25,1.3-2.01,3.72-4.02,7.43-6.57,12.15,7.5-2.37,13.56-4.3,19.65-6.15,.28-.08,.76,.52,2.33,1.67-6.05,3.29-11.52,6.27-16.98,9.25,0,.5,.02,1.01,.03,1.51,1.64,.21,3.31,.75,4.92,.59,13.85-1.33,27.73-2.45,41.51-4.35,5.96-.83,11.68-3.35,17.51-5.11-.03-.48-.07-.95-.1-1.43h-10.49l-.3-1.17c1.28-1.06,2.56-2.12,5.29-4.38-4.38-.85-7.39-1.67-10.46-1.96-3.08-.29-6.22-.06-9.82-.06,.24-1.72,.44-3.2,.67-4.83-6.6-2.62-13.84,3.27-20.43-1.7,12.15-3.11,23.36-7.82,33.46-15.96-5.02-.52-10.04-1-15.05-1.58-2.31-.27-4.65-.55-6.86-1.22-.85-.26-1.9-1.58-1.91-2.43-.01-.84,1-2.17,1.85-2.47,2.31-.83,4.77-1.23,8.2-2.05-2.74-2.22-4.89-3.96-7.04-5.71,.15-.57,.31-1.13,.46-1.7,4.37,.68,9.03,.63,13.05,2.21,6.17,2.43,11.98,1.8,17.99,.15l-.94-1.1c2.1-2.11,4.34-4.1,6.24-6.38,1.44-1.72,3.55-3.9,3.38-5.69-.27-2.89-1.56-5.6-5.85-5.98-9.01-.78-17.96-2.39-26.92-3.74-1.48-.22-2.89-.88-4.33-1.33-.04-.49-.08-.97-.12-1.46,1.81-.89,3.55-1.98,5.44-2.62,6.44-2.17,12.87-4.49,19.46-6.06,2.31-.55,5.5,.27,7.6,1.57,4.75,2.95,9.31,3.66,15.02,1.32-2.3-2.09-4.07-3.7-5.84-5.3,.48,.04,.96,.07,1.44,.11,1.49-4.07,2.97-8.14,4.58-12.52-2.29-1.3-4.36-2.49-6.59-3.76,4.7-2.73,9.12-5.3,13.53-7.87-.13-.58-.27-1.15-.4-1.73-2.34-.93-4.78-1.68-6.98-2.88-1.11-.61-1.76-2.04-2.61-3.1,1.05-.6,2.08-1.24,3.17-1.77,.43-.21,1.03-.06,1.46-.25,2.76-1.25,7.92-2.81,7.82-3.79-.41-3.85-2.17-7.69-4.06-11.19-1.07-1.98-3.36-3.3-4.57-6.05,1.39,0,2.79-.14,4.16,.02,6.67,.79,7.38,.33,8.82-6.08,.11-.48,.03-1.09,.29-1.45,1.25-1.75,2.58-3.43,3.88-5.14,1.58,1.48,3.56,2.72,4.65,4.5,1.94,3.18,3.06,6.87,5.08,9.99,.87,1.34,3.05,2,4.76,2.56,1.81,.59,3.78,.68,5.43,.94-3.68,4.99-6.85,9.31-10.03,13.64,.4,.56,.79,1.13,1.19,1.69,3.31-.7,6.63-1.4,10.28-2.17,.03,6.18-5.86,4.59-8.44,7.03,1.02,3.53,3.13,5.28,6.75,5.68,5.37,.58,5.89,1.96,2.84,6.57-.91,1.38-1.96,2.66-2.39,3.25,3.03,3.41,5.46,7.09,8.78,9.55,2.13,1.57,5.58,1.71,8.46,1.83,3.96,.16,7.95-.44,11.92-.43,1.45,0,2.9,.81,5.33,1.54-8.08,4.57-15.15,8.57-22.22,12.57,.05,.53,.1,1.06,.14,1.59,1.73,.67,3.42,1.44,5.19,1.99,5.58,1.73,5.59,1.7,4.04,7.18,7.78,2.3,15.22-6.76,24.36-.73-5.18,3.5-9.48,6.41-14.65,9.9,3.64,.76,6.37,1.32,9.09,1.89,.05,.6,.09,1.19,.14,1.79-5.24,.92-10.49,1.84-15.73,2.75,0,.49,0,.98,0,1.47,7.04,1.42,14.87-1.86,21.62,3.15-6.76,2.59-12.4,7.56-20.32,7.22-2.05-.09-5.05,1.61-6.1,3.38-1.5,2.54-.16,4.91,3.38,4.65,4.64-.34,9.25-.97,13.89-1.19,8.07-.39,16.16-.58,24.24-.8,.55-.02,1.12,.4,2.79,1.04-2.75,1.31-4.56,2.18-7.17,3.42,2.38,1.37,4.26,2.46,7.2,4.16h-13.55c.12,1.43,.23,2.62,.37,4.24-5.37-.54-10.38-1.05-15.39-1.55l-.47,2.7c7.56,1.98,15.13,3.97,23.38,6.13-1.96,1.48-3.32,2.51-4.95,3.74,5.25,3.99,9.32,1.08,13.21-1.54,2.48-1.67,4.35-3.15,7.4-.7,1.21,.97,3.83,.16,4.73,.16,.33-3.08,.71-5.1,.73-7.12,.02-2.93-.22-5.87-.36-8.8l-1.38,.21c2.05-2.15,4.09-4.3,6.34-6.67-2.23-1.41-3.67-2.32-4.84-3.06,2.09-2.71,5.12-4.93,5.42-7.48,.31-2.65-2.03-5.6-2.77-7.36,2.55-3.56,4.96-6.92,7.68-10.73,4.95,.44,1.17,11.05,9.2,8.88-1.63,3.72-3.09,7.05-5.1,11.65,2.88-1.08,4.29-1.61,5.7-2.14l.69,.67c-1.3,1.39-2.61,2.79-4.7,5.03,1.85,1.17,3.67,2.32,6.2,3.92-.45,1.42-1.12,3.53-1.95,6.13,2.24,1.84,4.51,4.99,7.38,5.7,3.03,.75,6.64-.82,11.01-1.55l-12.59,10.58c.65,.48,1.29,.96,1.94,1.44,1.9,1.84,3.79,3.68,6.55,6.35,2.08-.86,5.77-2.37,9.46-3.88,.36,.55,.72,1.11,1.08,1.66-2.13,2.57-4.26,5.15-6.71,8.12,1.52,.44,2.8,.8,4.04,1.16,.04,.28,.12,.56,.07,.59-2.62,1.37-5.24,2.72-7.69,4.83,3.72-.27,7.43-.53,11.15-.8l.76,1.95c-3.49,2.11-6.76,4.88-10.53,6.13-3.81,1.26-4.9,2.79-3.41,6.73,7.59-1.68,15.09-3.34,22.58-4.99l.57,1.2c-.78,1.03-1.57,2.06-2.46,3.24,.97,.7,1.88,1.36,2.78,2.01l-.07,1.04c-1.5,0-3.15-.38-4.47,.12-1.14,.43-1.89,1.86-3.55,3.64h-6.67c-.1,.6-.2,1.19-.31,1.79,4.09,1.01,8.18,2.02,12.57,3.11-.56,1.16-1.1,2.26-1.74,3.57,2.01,.83,3.9,1.62,5.79,2.41l.27,1.83c-10.14-3.73-16.88,2.55-24.5,6.48,4.04,1.13,9.59-3.93,11.3,3.33,5.67-1.16,11.03-2.26,16.39-3.36l.51,1.38c-.77,1.17-1.54,2.34-2.97,4.51,8.38,.45,16.11,.87,24.61,1.32-5.83,7.69-15.9,2.92-21.64,10.33-4.51,5.82-14.14,6.31-19.78,14.21,11.51-.87,21.82-1.65,32.13-2.42,0-.44,0-.87-.01-1.31l-10.4-5.01,.16-2.11c6.23-.88,12.46-1.75,19.28-2.71-.93-2.2-1.65-3.9-3.08-7.29,5.54,1.31,9.83,2.32,14.43,3.41,.17-7.34,5.32-4.11,9.43-4.08-6.26-3.79-10.46-11.9-20.17-7.39l-.1-1.63c1.54-1.18,3.08-2.36,4.91-3.76-.46-1.16-.97-2.47-1.57-3.97,3.48-1.59,6.92-3.17,10.35-4.75-.12-.53-.25-1.06-.37-1.59h-6.46c-.19-1.3-.38-2.64-.61-4.27h-5.61c1.17-1.64,1.95-2.73,2.83-3.95-.74-1.16-1.5-2.33-2.26-3.5,.2-.47,.39-.94,.59-1.41,6.01,1.53,12.02,3.07,18.27,4.66,.79-3.87,.98-6.48-3.61-7.97-2.7-.87-4.77-3.86-6.9-6.1-.17-.18,1.27-2.77,2.13-2.88,2.03-.26,4.17,.29,6.78-.45-2.31-1.4-4.61-2.79-7.51-4.55,1.73-.96,2.8-1.55,4.03-2.22-1.81-3.39-3.62-6.78-5.42-10.18,.48-.39,.97-.77,1.45-1.16,2.7,1.58,5.4,3.16,7.38,4.32,1.54-2.97,2.83-5.44,4.76-9.15-2.2-3.07-5.27-7.34-8.8-12.25,1.7,0,2.48-.14,3.2,.02,6.56,1.44,9.19,.09,11.23-6.19,.3-.93-.32-2.2-.64-3.28-.76-2.56-2.08-5.1,1.99-6.38,.55-.17,.53-3.23,.18-4.83-.27-1.22-1.47-2.24-1.54-4.01,1.06,.51,2.12,1.02,4.61,2.22-1.64-5.05-2.86-8.85-4.12-12.72,6.69-1.08,2.73-8.93,7.2-11.81,2.96,3.07-.48,10.12,7.09,10.37-.83,1.65-1.4,2.78-1.97,3.91-2.52,4.96-1.62,8.31,2.12,12.6,.89,1.02-.46,3.98-.78,6.05l-1.81,.19c1.72,2.49,3.44,4.99,5.41,7.84-6.22,4.68,2.76,11.41-1.63,17.07,3.25,3.84,5.34,.73,7.42-1.38,4.77,1.72,7.43,10.01,15.43,3.38-1.84-.97-3.43-1.8-6.3-3.31,7.66-3.57,13.94-6.49,20.23-9.42-.15-.72-.29-1.44-.44-2.16-1.98,0-4.01-.3-5.91,.08-2.15,.43-4.17,1.47-6.9,2.49,.2-2.33,.33-3.74,.52-5.9-3.61,.54-7.06,1.06-10.51,1.57-.4-.52-.79-1.04-1.19-1.56l7.25-3.49c-3.35-2.08-4.99-3.1-6.64-4.12,.09-.65,.18-1.3,.27-1.95,6.09-.41,12.18-1.09,18.27-1.15,4.27-.04,8.55,.79,12.83,1.16,2.52,.21,4.78,.04,4.53-3.52-.23-3.25-.88-6.62-4.94-5.79-7.41,1.51-11.44-4.85-18.47-5.99,5.11-7.7,12.63-4.25,18.36-6.12,.08-.51,.16-1.02,.23-1.54-1.95-.4-3.88-.88-5.84-1.16-1.48-.21-3.07,.11-4.46-.33-1.07-.34-1.9-1.47-2.83-2.25,.83-.67,1.57-1.54,2.51-1.96,1.32-.6,2.78-.87,4.96-1.51-3.56-2.96-6.69-5.32-9.48-8.04-.93-.9-1.72-3.49-1.23-3.98,1.05-1.06,3.09-1.94,4.51-1.69,4.44,.8,8.77,2.17,12.64,3.18,.49-3.44,.1-6.49,1.42-8.33,1.35-1.89,4.37-2.59,8.04-4.54-7.09-4.95-13.19-9.2-20.19-14.09,2.17-.85,3.6-1.74,5.13-1.95,2.62-.36,5.29-.36,7.94-.39,4.48-.05,7.85-1.15,9.27-6.24,.72-2.59,3.16-4.7,5.27-7.66-.12-.21-.74-1.3-1.41-2.36-3.84-6.15-3.55-6.57,2.58-10.07,1.85-1.06,2.85-3.62,4.24-5.49-2.83-2.91-8.45-1.86-7.53-7.79,2.8,.48,5.45,.94,8.09,1.39,.36-.47,.73-.93,1.09-1.4-2.76-4.64-5.51-9.28-8.7-14.63,.75-.35,2.34-.81,3.61-1.74,1.63-1.2,3.67-2.49,4.36-4.21,1.71-4.26,2.64-8.83,4.14-13.18,.36-1.03,1.73-1.71,2.63-2.55,.75,.91,1.61,1.75,2.21,2.75,.59,.98,1.04,2.09,1.31,3.2q1.86,7.54,9.14,6.26c.44-.08,.93,.18,1.8,.37-.29,1.14-.24,2.44-.86,3.17-3.23,3.8-4.32,8.14-5.19,13.03-.82,4.58,1.12,5.59,4.34,6.73,2.14,.76,4.22,1.7,6.32,2.56-1.86,1.91-3.69,3.84-5.59,5.7-.55,.55-1.28,.91-2.15,1.51,2.27,3.7,3.84,7.63,8.98,7.65,.78,0,1.99,.78,2.21,1.45,.2,.63-.46,2.03-1.1,2.33-3.78,1.76-3.65,4.1-2.16,7.58,1.24,2.89-1.04,7.4,4.79,8.4-1.69,2.57-3.18,4.84-4.66,7.1,4.29,2.81,8.02,2.57,11.19-1.63,2.93-3.89,5.46-4.05,9.65-1.88,4.05,2.1,8.86,2.67,13.16,4.34,2.07,.8,3.76,2.6,5.63,3.94-1.77,.98-3.45,2.29-5.34,2.89-7.19,2.29-14.48,4.26-21.67,6.55-3.88,1.24-4.85,9.28-1.58,12.27,1.34,1.23,3.02,2.17,4.11,3.58,1.12,1.44,1.71,3.3,3.15,6.26,6.22,3.81,12.41-1.3,19.04-3.67,1.99-.71,4.16-.91,6.25-1.35,.25,.46,.51,.91,.76,1.37-1.81,2.35-3.62,4.71-5.81,7.55,1.75,.46,3.09,.54,4.14,1.14,1.8,1.02,3.41,2.37,5.11,3.58-1.63,1.52-3.01,3.76-4.93,4.43-4.06,1.41-8.41,1.96-12.62,2.94-.93,.22-1.78,.77-4.24,1.88,7.43,4.31,13.79,8.2,20.35,11.7,2.44,1.3,5.39,1.59,8.02,2.6,1.2,.46,2.16,1.53,3.24,2.32-1.27,.9-2.51,2.52-3.81,2.57-3.29,.13-6.6-.51-9.91-.69-1.24-.07-2.5,.27-3.77,.42q1.2,7.33-5.98,7.17c-.33,0-.72-.23-.98-.12-2.66,1.09-5.3,2.22-7.94,3.34,1.11,1.65,2.23,3.3,3.81,5.65-3.37,.43-6.55,.84-9.74,1.25,6.61,4.12,13.17,7.06,21.03,7.22,10.03,.2,20.04,1.56,30.06,2.43,.49,.04,1.04,.38,1.46,.26,1.29-.38,2.53-.91,3.79-1.38-.71-1.14-1.15-2.66-2.16-3.34-4.36-2.91-8.9-5.58-13-9.28,7.16-3.26,11.75,3.97,18.74,4.16-.53-1.66-.81-3.16-1.48-4.47-.82-1.62-2.23-2.97-2.88-4.64-.68-1.73-.76-3.69-1.1-5.55,1.76,.42,3.54,.76,5.27,1.29,1.36,.42,2.65,1.07,5.32,2.17-1.22-3.05-1.94-4.86-2.66-6.68,.26-.38,.52-.75,.79-1.13,1.31,.88,2.98,1.49,3.87,2.68,2.95,3.97,5.21,8.54,8.52,12.15,3.17,3.46,7.25,6.14,11.11,8.9,.79,.56,2.41-.05,3.65-.11-.18-1.05-.09-2.27-.6-3.13-1.85-3.13-3.96-6.11-5.84-9.22-.87-1.44-1.43-3.07-2.19-4.75,4.86-2.09,8.01,.56,11.27,2.3,3.5,1.88,6.78,4.17,10.28,6.07,1.19,.64,3.43,1.32,3.95,.78,.95-.98,1.24-2.85,1.28-4.36,.04-1.43-.13-3.39-1.03-4.25-8.21-7.82-16.6-15.45-24.63-22.85-2.57,2.63-4.37,4.48-6.18,6.33-.89-2.6-2.09-5.14-2.6-7.81-.8-4.14-3.48-4.08-6.73-3.97-1.88,.06-3.8-.87-5.7-1.35,.87-1.96,1.28-4.37,2.69-5.79,2.92-2.92,3.16-4.93-.35-7.56-3.28-2.46-6.11-5.52-9.14-8.32,.08-.54,.16-1.08,.24-1.62,1.4-.1,3.07-.73,4.17-.2,8.73,4.24,17.97,3.35,27.2,3.27,7.06-.06,14.13,.46,21.2,.65,1.1,.03,2.21-.29,4.81-.66-2.13-2.55-3.41-4.5-5.1-6.01-3.09-2.77-6.27-5.49-9.69-7.83-2.79-1.91-5.83-3.73-9.03-4.68-5.22-1.54-8.72-4.57-10.67-9.53-1.16-2.95-2.69-4.28-6.42-4.74-6.83-.83-13.49-3.18-20.14-5.15-1.56-.46-2.83-1.95-5.33-3.76,6.76-2.13,11.4-5.62,18.04-5.18,5.88,.4,11.9-1.33,17.86-2.11,.13-.52,.27-1.05,.4-1.57-1.34-1.52-2.82-2.94-3.97-4.6-.69-1-1.44-2.57-1.1-3.49,.31-.86,2.13-1.81,3.13-1.66,5.85,.87,11.65,2.02,17.46,3.13,1.82,.35,3.62,.85,5.66,1.33-.72-7.99,2.36-10.36,9.75-8.45,1.99,.52,4.03,.82,6.05,1.22,.19-.44,.39-.87,.58-1.31-1.5-1.03-2.92-2.2-4.51-3.06-4.64-2.5-9.65-4.42-13.93-7.41-4-2.8-7.52-2.12-11.66-.98-2.62,.72-7.62,1.12-8.01,.18-1.81-4.36,3.25-3.67,5.2-5.42,.82-.73,1.97-1.08,3.38-1.8-.79-1.15-1.47-2-2-2.93-.75-1.33-1.39-2.73-2.08-4.1,1.44-.7,2.85-1.47,4.32-2.09,3.9-1.65,7.88-3.12,11.69-4.95,.86-.41,1.17-1.99,1.74-3.02-1.1-.53-2.29-1.62-3.3-1.47-3.01,.44-5.94,1.37-9.68,2.3,.17-2.61,.29-4.49,.45-6.86h-12.03c2.3-2.83,5.06-4.76,5.18-6.84,.09-1.57-3.22-3.32-4.76-5.82,6.71-.35,13.16-2.01,19.69,.5,3.36,1.29,6.94,2.04,10.47,2.82,2.19,.49,5.15,2.42,5.87-1.78,.76-4.45-1.52-8.51-4.9-9.18-.48-.09-1,.09-1.49,.03-3.09-.37-5.93-.73-8.02-3.83-1.28-1.91-4.11-2.71-5.98-4.33-1.12-.97-2.69-2.96-2.35-3.77,.55-1.31,2.45-2.72,3.89-2.84,3.24-.28,6.55,.22,9.84,.38,1.01,.05,2.01,0,3.02,0l.44-1.35c-1.38-.81-2.7-1.81-4.17-2.37-1.69-.64-3.71-.57-5.26-1.41-1.55-.84-2.69-2.42-4.02-3.68,1.35-.66,2.68-1.36,4.06-1.95,.71-.31,1.51-.43,2.99-.82-3.15-3.6-5.97-6.72-8.66-9.94-1.62-1.94-4.38-3.82-1.98-6.77,2.61-3.21,4.81,.13,6.99,.98,3.33,1.3,6.44,3.13,10.32,5.07-.28-3.7-1.51-7-.42-9.07,1.07-2.04,4.5-2.83,8.09-4.83-6.84-6.72-13.09-12.86-20.08-19.73,2.14-.54,3.56-1.25,4.94-1.17,2.79,.15,5.55,.78,8.33,1.11,3.72,.44,6.67,.09,7.68-4.67,.59-2.75,2.8-5.16,4.61-8.29-1.26-3.24-2.94-7.55-4.8-12.3,2.55-.55,4.14-.45,5.03-1.19,1.37-1.15,2.74-2.75,3.18-4.41,.25-.93-1.28-2.43-2.18-3.54-1.66-2.07-3.44-4.04-5.18-6.06l1.28-1.21c2.23,1.06,4.46,2.12,6.69,3.18l1.39-1.14c-2.28-4.53-4.57-9.05-6.83-13.58-.68-1.37-1.28-2.78-1.91-4.17,1.3-.29,2.86-.22,3.83-.95,1.33-1.01,2.75-2.47,3.17-4,1.38-5.02,2.32-10.15,3.43-15.24,.64-.13,1.29-.26,1.93-.39,1.18,2.37,3.02,4.65,3.39,7.14,.91,6,2.38,10.81,10.72,8.79-.49,2.02-.39,3.61-1.13,4.35-4.15,4.13-3.47,9.6-3.69,14.52-.09,2,2.83,4.31,4.68,6.18,1.68,1.71,3.76,3.03,5.67,4.52-1.89,1.63-3.79,3.26-5.67,4.91-.24,.21-.39,.52-.82,1.12,2.08,3.59,3.04,8.04,8.17,9.53,3.25,.94,3.98,3.12,.75,5.26-2.3,1.52-2.55,3.01-1.1,5.39,.8,1.32,.5,3.26,1,4.82,.83,2.61,1.91,5.15,2.88,7.71,.46,0,.92-.02,1.38-.03-1.18,2.13-2.36,4.26-3.56,6.42,3.19,4.14,7.2,4.43,10.34,.06,2.57-3.57,4.43-3.14,7.64-.81,4.13,3,8.84,5.2,13.27,7.79,1.43,.83,3.06,1.57,4.08,2.78,1.89,2.24,2.01,4.19-1.68,4.82-6.73,1.16-13.47,2.35-20.14,3.82-1.17,.26-2.53,1.75-2.96,2.97-2.2,6.23,1.01,10.67,5.01,15.02,1.66,1.81,2.36,4.51,3.12,6.87,5.26,5.49,10.98,3.16,16.93,.76,2-.81,4.55-.24,6.85-.31-.79,1.96-1.55,3.92-2.37,5.86-.37,.88-.82,1.71-1.46,3.02,1.76,.72,3.62,.95,4.63,2.01,1.67,1.74,2.79,4.01,4.14,6.05-1.77,1.15-3.4,2.9-5.33,3.33-4.1,.92-8.36,1.15-12.7,2.36,7.08,7.05,13,14.89,22.1,19.07,1.79,.82,3.71,1.53,5.25,2.71,.99,.76,1.4,2.28,2.07,3.46-1.37,.62-2.8,1.85-4.1,1.73-2.6-.25-5.12-1.35-7.71-1.87-1.3-.26-2.71-.05-4.39-.05,.74,2.74,1.32,4.87,2.15,7.95-2.81-.21-4.9-.69-6.89-.42-2.6,.35-5.12,1.3-7.67,2,1.02,1.88,2.04,3.76,3.07,5.64,.3,.54,.61,1.07,1.27,2.25h-9.51l-.59,.98c3.46,2.41,6.66,5.41,10.45,7.08,4.08,1.8,8.7,2.46,13.11,3.44,5.12,1.14,10.27,2.09,15.41,3.12v36c-3.34-.36-6.69-.71-10.01-1.07-1.88,2.4-3.32,5.93-5.86,7.15-6.04,2.88-3.41,4.97-.16,7.56,1.17,.93,2.5,1.79,3.35,2.97,3.35,4.65,6.8,8.43,12.68,3.4v38c-6.43,2.42-8.72,10.1-4.32,14.86,1.19,1.28,2.86,2.11,4.32,3.14v315h-659c-.91-.34-1.8-.92-2.72-.98-12.77-.74-25.55-2.08-38.32-1.96-47.37,.44-94.73,1.35-142.1,2.13-2.29,.04-4.57,.53-6.86,.8H0C0,455.7,0,240.37,0,25.04ZM99.63,383.3c-4.54,5.66-8.88,9.46-10.93,14.24-1.2,2.78,1.56,7.1,2,10.79,.68,5.77,3.28,8.77,8.94,11.38,5.61,2.59,10.94,5.67,17.01,7.37,6.08,1.7,11.71,.16,14.99-5.13,2.18-3.51,4.53-3.6,7.91-1.75,1.42,.78,3.97,1.08,5.2,.3,3.61-2.28,6.91-5.09,10.07-7.98,.56-.51,.3-3.03-.41-3.61-2.78-2.26-5.85-4.16-8.88-6.09-1.17-.74-2.51-1.65-3.79-1.68-5.25-.15-10.51-.04-15.76,.06-3.72,.07-6.48-.79-6.97-5.21-.15-1.31-1.46-2.5-2.18-3.65-1.57,1.91-2.45,3.61-3.85,4.36-.57,.31-2.44-1.24-3.39-2.25-3.14-3.35-6.14-6.85-9.95-11.15Zm1616.9,29.87c3.23,2.38,6.48,4.6,9.52,7.06,2.31,1.87,4.24,2.91,6.95,.49,2.58-2.31,4.78-1.61,7.13,1.16,1.71,2.02,4.43,3.58,7,4.4,6.25,1.98,11.54-1.81,16.93-3.94,4.06-1.6,8.64-3.73,11.08-7.04,2.34-3.17,2.32-8.14,3.16-12.35,.41-2.06,1.35-4.9,.41-6.17-3.08-4.18-6.91-7.8-11.26-12.51-4.27,4.99-7.9,9.21-11.83,13.8-1.28-1.56-2.43-2.94-3.84-4.65-.63,1.3-1.35,2.14-1.41,3.03-.31,4.43-2.98,5.84-6.98,5.95-4.59,.12-9.19,.39-13.77,.67-.92,.06-2.05,.23-2.7,.79-3.35,2.86-6.57,5.86-10.38,9.3Zm-448.54-11.47c-4.13,4.57-5.02,4.29-8.95,.16-4.63-4.87-10.21-7.41-14.75-2.13-1.93,2.24-3.9,4.44-6.03,6.86,1.1,3.62,2.33,7.85,3.71,12.02,.22,.66,1,1.39,1.68,1.6,8.35,2.57,16.64,5.48,25.15,7.34,3.63,.79,8.75,.65,11.43-1.39,4.59-3.5,8.32-6.34,13.93-2.73,.34,.22,1.06,.15,1.45-.06,4.55-2.48,9.07-5.02,14.06-7.8-3.95-1.97-7.04-3.79-10.35-5.07-2.43-.95-5.12-1.42-7.73-1.71-8.22-.91-17.82,3.36-23.6-7.09Zm-1206.31-.93c-3.44,7.43-6.09,13.74-9.24,19.79-3.05,5.85,1.89,7.16,4.94,9.44,3.48,2.6,5.94,.5,8.45-2.1,1.44-1.49,3.62-3.02,5.49-3.04,1.02-.01,2.25,3,3.06,4.79,.45,.99,.45,2.32,.27,3.43-.55,3.4,1.56,4.8,4.17,5.8,1.68,.64,3.42,1.13,5.14,1.65,4.38,1.32,8.06-.99,10.02-6.48,1.53-4.3-1.78-5.63-4.72-6.66-2.45-.86-5.2-.86-7.73-1.52-1.22-.32-2.26-1.31-3.39-1.99,.79-1.14,1.35-2.67,2.43-3.34,2.03-1.24,4.37-1.98,7.29-3.24-2.2-3.52-3.77-6.62-5.88-9.3-3.85-4.9-4.18-4.8-7.86,.08-2.29,3.03-5.26,2.87-7.41-.35-1.25-1.87-2.63-3.65-5.02-6.95Zm1742.96-2.37c-2.07,2.76-3.18,3.98-3.99,5.38-3.03,5.25-4.14,5.38-8.49,.88-1.38-1.43-2.93-3.44-4.76-.73-2.36,3.49-4.41,7.19-6.98,11.42,3.14,1.03,5.28,1.44,7.09,2.44,1.26,.7,2.08,2.22,3.09,3.37-1.17,.67-2.27,1.55-3.52,1.95-2.05,.64-4.34,.63-6.26,1.49-2.66,1.19-5.89,2.51-4.78,6.46,1.3,4.61,5.9,7.56,9.77,6.27,2.8-.93,5.93-1.84,7.94-3.77,1.2-1.16,.52-4.27,.71-6.51,.04-.49,.11-1.03,.34-1.45,.79-1.45,1.43-3.78,2.54-4.05,1.33-.32,3.18,.99,4.63,1.88,1.24,.76,2.24,2.72,3.36,2.74,2.37,.03,5.14-.3,7.01-1.56,1.76-1.2,4.09-4.5,3.55-5.66-3.12-6.68-7.01-13.01-11.26-20.55Zm-566.91,21.61c-3.03-3.05-5.31-5.83-8.11-7.9-1.1-.81-3.86-.66-5.05,.19-5.18,3.71-5.79,3.83-10.52-.8-1.77-1.73-3.61-3.48-5.67-.59-3.31,4.67-6.42,9.47-9.54,14.09,6.72,6.33,10.86,6.83,15.83,3.01,1.64-1.26,4.47-2.54,6.02-1.94,1.51,.59,2.03,3.6,3.06,5.51,.7,1.3,1.28,3.32,2.34,3.64,3.59,1.09,7.51,2.53,11.01,1.97,2.66-.42,4.87-3.67,7.29-5.66-1.89-1.39-3.61-3.16-5.71-4.04-1.9-.79-4.22-.56-6.35-.86-1.67-.23-3.32-.57-4.98-.85-.09-.56-.18-1.12-.27-1.68,3.16-1.22,6.31-2.45,10.64-4.12Zm-976.57-40.23c10.68-1.16,20.85-5.9,31.3-1.42,.83-1.19,2.12-2.21,2.24-3.35,.29-2.83,.36-5.79-.23-8.54-.13-.6-3.42-.43-5.23-.76-4.36-.78-8.85-1.19-13.01-2.58-4.85-1.62-9.2-2.69-14.21-.15-4.96,2.5-10.43,3.97-15.65,5.98-1.51,.58-2.91,1.48-4.36,2.23,.17,.54,.35,1.08,.52,1.62,2.65-.44,5.29-.89,7.94-1.31,7.24-1.14,11.04,1.44,10.7,8.27Zm1159.09,11.17c-.08,.62-.17,1.23-.25,1.85,1.62-.19,3.25-.39,4.87-.57,8.51-.93,16.92-3.34,25.64-.82,1.07,.31,4.02-2.66,4.57-4.56,.65-2.25-.16-5.07-3.83-4.93-2.45,.09-4.95,.2-7.36-.15-4.59-.66-9.1-2.02-13.69-2.41-10.71-.9-20.02,5.07-30.25,6.69-.1,.02-.12,.54-.22,1.02,4.91,0,9.84-.38,14.65,.18,2.07,.24,3.92,2.41,5.86,3.7Zm174.13,.38c9.6-4.88,18.53-.79,26.76-1.12,1.74-11.87,11.3-5.36,18.12-8.34-2.89-1.03-4.47-1.64-6.07-2.16-3.93-1.27-8.04-2.13-11.76-3.84-4.71-2.16-8.7-1.33-13.19,.75-3.5,1.62-7.6,2.74-11.41,2.67-4.2-.07-5.1,2.06-4.87,5.05,.18,2.28,1.51,4.48,2.42,6.99Zm198.73,94.95c-8.2,5.43-15.72-3.17-24.87-1.7,2.23,2.65,4.15,4.31,5.23,6.4,1.02,1.97,2.26,5.03,1.43,6.5-1.71,3.01-4.45,1.18-6.9-.12-5.45-2.9-11.03-5.54-16.55-8.28-.4,.49-.8,.99-1.2,1.48,1.61,2,3.22,4.01,5.11,6.37,3.27-4.09,4.96-.86,6.89,1.01,3.81,3.68,7.41,7.05,13.44,3.7,3.96-2.2,8.43-3.6,12.81-4.9,5.86-1.74,7.19-4.21,4.62-10.46Zm-1001.13-47.38l.15-.79c-1.16-.41-2.3-.96-3.5-1.21-5.51-1.14-11-2.4-16.56-3.23-3.55-.53-7.22-.65-10.81-.44-5.91,.35-11.84,.89-17.68,1.84-1.56,.25-2.83,2.28-4.23,3.49,1.53,1.24,3,3.46,4.61,3.57,8.53,.59,17.1,.68,25.66,.84,1.36,.02,2.83-.31,4.08-.87,2-.9,3.76-2.82,5.77-3.06,4.12-.49,8.34-.15,12.52-.15Zm764.16,41.27c-3.06-9.83-14.1-11.2-18.12-19.89-2.11,1.54-4.12,3.01-7.51,5.49,2.66,1.13,4.45,1.9,6.25,2.66-2.07,1.68-2.98,2.03-3.92,2.1-2.28,.16-5.46-.27-4.75,3.18,.38,1.85,2.79,4.43,4.54,4.66,7.61,1,15.31,1.25,23.5,1.8Zm-37.17,11.83l.93,1.17c4.73-.6,7.97-3.71,10.8-7.33,.41-.53,.24-2.03-.23-2.64-2.49-3.22-5.16-6.31-8.01-9.73-4.93,3.77-9.74,7.25-14.26,11.07-.94,.8-.77,2.9-1.11,4.4,1.34,.01,2.79,.36,3.99-.03,1.86-.61,3.51-1.86,5.35-2.6,2.2-.89,4.51-1.54,6.76-2.29l.43,1.22c-1.55,2.25-3.1,4.51-4.65,6.76ZM274.23,413.92l-.45-.63c-5.86,3.82-11.73,7.65-17.59,11.47,.24,.61,.48,1.22,.72,1.83,3.15,0,6.31-.07,9.46,.01,6.09,.16,12.19,.58,18.28,.49,1.3-.02,2.57-1.76,3.86-2.7-1.47-.69-2.89-1.7-4.43-1.99-1.28-.24-2.72,.38-4.37,.67v-5.21c-3.23,.8-6.17,1.52-9.11,2.25l-.71-1.38c1.45-1.6,2.9-3.2,4.35-4.8Zm-133.61,52.44c1.23-.71,3.95-1.69,5.79-3.53,1.58-1.58,3.57-4.86,2.92-6.17-2.81-5.71-7.42-7.97-10.84-5.85-1.37,.84-1.95,3.06-2.72,4.74-.46,1-.4,2.24-.86,3.24-2.88,6.18-2.51,6.88,5.71,7.59Zm1592.73-1.67c7.88,.07,9.03-1.95,5.99-7.61-.45-.84-1.18-1.98-.93-2.68,1.15-3.25-1.16-4.43-3.28-4.89-1.65-.36-4.25,.05-5.28,1.17-1.94,2.12-4.9,6.15-4.16,7.33,1.94,3.08,5.64,5.06,7.66,6.68Zm-126.61-34.1c-1.14-.14-1.95-.38-2.72-.29-1.39,.15-2.8,.38-4.09,.87-.3,.11-.39,1.99-.15,2.09,1.27,.55,2.66,1.07,4.02,1.1,2.79,.08,5.61-.03,8.39-.29,4.96-.45,9.9-1.06,14.84-1.61l.42-1.64c-4.7-2.84-9.4-5.69-14.95-9.05,1.3,2.31,2.02,3.57,3.43,6.06-3.91-.97-6.32-1.56-8.98-2.22-.08,1.89-.15,3.29-.22,4.96Zm-192.31-5.19c.16,.62,.32,1.24,.48,1.86,10.91-.47,21.88,1.27,32.76-.52,.01-.76,.02-1.52,.03-2.28-2.88-.13-5.76-.25-9-.4-.08-.92-.18-2.08-.31-3.53-3.37,.63-6.41,1.2-9.45,1.77-.39-.65-.79-1.3-1.18-1.95,1.28-.33,2.55-.66,3.83-.98-.35-.39-.7-.78-1.05-1.18-5.37,2.41-10.75,4.81-16.12,7.22Zm-111.57,24.52c-2.01-1.61-3.83-4.06-6.12-4.65-2.6-.67-6.5-.67-8.24,.85-2.02,1.78-2.37,5.51-3.27,8.45-.07,.23,1.14,1.07,1.86,1.3,5.3,1.71,12.13-.83,15.76-5.95ZM67.95,323.33c-7.73,3.05-12.27,8.68-16.46,14.6-.55,.78,.1,2.41,.19,3.65,1.03-.26,2.22-.27,3.06-.82,2.62-1.7,5.28-3.41,7.61-5.48,3.24-2.87,5.92-6.19,5.6-11.96Zm1741.18,19.56c-.11-5.77-8.13-13.13-16.25-15.33-2.13,6.38,8.3,12.48,16.25,15.33ZM281.35,466.39c-1.36-1.55-2.24-3.34-2.99-3.29-4.34,.31-8.78,.67-12.9,1.93-1.12,.34-1.52,3.85-1.67,5.94-.03,.43,2.8,1.82,3.83,1.45,4.4-1.62,8.63-3.73,13.74-6.03Zm936.25-113.54c-.77-.78-1.54-1.56-2.31-2.34-5.07,3.54-10.18,7.01-15.14,10.68-.68,.5-.6,2.02-.87,3.07,1.05,.07,2.27,.52,3.11,.14,3.15-1.43,6.44-2.79,9.18-4.84,2.36-1.77,4.05-4.44,6.03-6.71Zm389.55,116.12c.04,.63,.08,1.27,.13,1.9,3.3,1.39,6.54,2.93,9.91,4.11,1.42,.5,3.67,.89,4.51,.15,.9-.78,1.21-3.28,.62-4.44-.65-1.3-2.5-2.4-4.02-2.76-2.04-.49-4.29-.35-6.42-.16-1.6,.14-3.16,.79-4.74,1.21Zm13.26,41.54l1.02-.98c-.96-2-1.91-4.01-3.34-6.99-3.66,1.92-7.03,3.69-11.09,5.81,1.46,2.12,2.4,4.06,3.87,5.41,.88,.81,2.6,.7,3.94,1,.23-1.29,.66-2.59,.62-3.87-.04-1.44-.52-2.87-.8-4.31l.99-.37c1.6,1.43,3.19,2.87,4.79,4.3Zm-180.51-53.79c-1.04-1.37-1.44-2.33-1.8-2.31-5.01,.25-10.04,.49-15.01,1.14-.62,.08-1.57,2.71-1.2,3.73,.33,.91,2.45,1.93,3.49,1.68,4.64-1.1,9.17-2.63,14.52-4.24Zm-933.83,22.16c-5.73-4.92-11.03-8.06-18.21-9.25,2.68,5.82,11.62,10.46,18.21,9.25Zm461.09-66.61c1.67,5.57,11.17,10.6,17.58,9.01-5.4-4.71-10.73-7.8-17.58-9.01Zm564.32,90.87c6.07,1.26,11.49,2.39,16.91,3.51,.17-.47,.34-.95,.51-1.42-1.01-.61-1.99-1.3-3.05-1.82-1.45-.71-3.33-.92-4.38-1.98-3.55-3.63-6.19-3.5-9.99,1.71Zm361.24-246.61c-.9,.52-1.79,1.04-2.69,1.56,1.07,2.61,2.15,5.22,3.22,7.82,1.61-.93,3.21-1.87,4.82-2.8-1.78-2.19-3.57-4.39-5.35-6.58ZM83.94,481.6c.42,.41,.84,.82,1.26,1.22,3.05-1.54,6.09-3.08,9.14-4.62l-.16-1.88c-1.82-.33-4.26-1.54-5.33-.79-2.05,1.43-3.32,3.98-4.91,6.07Zm70.95-95.53l-.13,2.32c2.51,.94,5.01,1.88,8.97,3.36l-1.41-8.34c-2.48,.88-4.95,1.77-7.43,2.65Zm938.47-80.56c.07,.69,.13,1.38,.2,2.07,2.22,.3,5.11,1.56,6.47,.61,1.26-.88,.87-4.11,1.21-6.3-.5-.29-1.01-.57-1.51-.86-2.12,1.49-4.24,2.99-6.36,4.48Zm214.83,91.38c.03,1.06,.05,2.11,.08,3.17h8.03l-.14-4.27c-2.66,.37-5.32,.73-7.97,1.1Zm408.49-4.54c-.03-.76-.05-1.52-.08-2.28-2.33-.67-4.65-1.34-6.98-2.01-.27,2.08-.53,4.17-.97,7.6,3.59-1.49,5.81-2.4,8.02-3.32Zm62.72,79.92c.02,.72,.04,1.44,.07,2.16,2.89,1.24,5.79,2.47,8.68,3.71,.41-.47,.81-.94,1.22-1.42-1.63-1.84-2.99-4.13-5-5.35-1.08-.65-3.27,.54-4.96,.9ZM159.65,374.41c4.29,2.89,7.53,1.89,11.51-3.6-4.86-1.11-8,1.27-11.51,3.6Zm1345.84,104.16c6.69,.41,9.76-1.85,10.87-7.68-4.26,3.01-7.57,5.34-10.87,7.68Zm388.05-231.16c-3.86-2.22-6.9-3.97-11.05-6.36,1.85,6.98,5.69,9.13,11.05,6.36Zm-144.2,255.73c-3.24-2.66-5.48-7.14-11.44-6.87,2.27,5.78,7.7,4.96,11.44,6.87Zm-641.3-213.06l-.86-1.9c-3.13,1.6-6.26,3.21-9.39,4.81,.3,.63,.6,1.27,.9,1.9,4.02,.44,6.9-1.71,9.35-4.82Zm-29.15,84.87c-.55,.3-1.1,.6-1.64,.9,.47,1.62,.64,4.39,1.48,4.61,1.78,.47,3.9-.4,5.89-.72,0-.51-.02-1.02-.02-1.53-1.9-1.08-3.8-2.17-5.7-3.25Zm234.47,13.09c.24,.87,.47,1.74,.71,2.61,3.46-.99,6.93-1.98,10.39-2.97-.2-.78-.41-1.55-.61-2.33-3.49,.89-6.99,1.79-10.48,2.68Zm397.43-7.17c.14-.63,.29-1.26,.43-1.89-3.16-.93-6.31-1.85-9.47-2.78l-.5,1.78c2.61,2.84,5.58,4.49,9.53,2.9Zm-1105.22,56.27c0-.6,0-1.2,.01-1.79-2.06-.97-4.12-1.93-6.7-3.15v6.36c2.58-.55,4.63-.99,6.69-1.42Zm-449.53-97.63c.08,.87,.15,1.74,.23,2.6h6.62l-.36-4.12c-2.16,.51-4.32,1.01-6.48,1.52Zm934.52-7.86h-9.58c3.63,4.16,6.42,4.64,9.58,0Zm622.05,18.83c.02-.93,.04-1.85,.06-2.78-2.02-.16-4.03-.32-6.05-.48,.02,1.09-.06,3.11,.08,3.12,1.95,.2,3.93,.14,5.91,.14Zm-1112.3,78.02l.88-2.35c-2.82-1.17-5.64-2.34-8.46-3.51-.3,.73-.6,1.46-.9,2.19,2.82,1.22,5.65,2.44,8.47,3.66ZM1892.14,210.68c-2.61-1.78-4.41-3.01-6.59-4.5-.89,6.41,.01,7.1,6.59,4.5Zm-582.73,152.25c.1,.81,.19,1.62,.29,2.43,2.22-.2,4.44-.4,6.66-.6-.12-.89-.3-2.56-.36-2.56-2.2,.14-4.39,.45-6.59,.73Z"/><path d="M0,.04c.33,0,.66,.03,.99,.03,2.1-.02,4.19-.04,6.29-.06-.82,2.3-1.71,4.58-2.46,6.9-1.15,3.55-2.2,7.14-3.32,10.7-.47,1.49-1,2.96-1.51,4.44V.04Z"/></svg>